<?xml version="1.0" standalone="no"?>
<!DOCTYPE svg PUBLIC "-//W3C//DTD SVG 1.1//EN" "http://www.w3.org/Graphics/SVG/1.1/DTD/svg11.dtd" >
<svg>
<metadata>
Created by FontForge 20090914 at Thu Sep  2 09:09:42 2021
 By www-data
Copyright 2020 The Besley Project Authors (https://github.com/indestructible-type/Besley)
</metadata>
<defs>
<font id="Besley-Regular" horiz-adv-x="1100" >
  <font-face 
    font-family="Besley"
    font-weight="400"
    font-stretch="normal"
    units-per-em="2000"
    panose-1="0 0 0 0 0 0 0 0 0 0"
    ascent="1600"
    descent="-400"
    x-height="1040"
    cap-height="1500"
    bbox="-328 -623 3730 2156.14"
    underline-thickness="100"
    underline-position="-150"
    unicode-range="U+000D-U+FF19"
  />
<missing-glyph horiz-adv-x="1000" 
 />
    <glyph glyph-name="uniFB00" unicode="ff" horiz-adv-x="1500" 
d="M60 29c0 -10.667 1.33105 -18.1689 3.99805 -22.502s9 -6.5 19 -6.5h552c12.667 0 20 1 22 3s3 9.33301 3 22v51c0 13.333 -1.5 22.333 -4.5 27s-11.167 7 -24.5 7h-180c-12.667 0 -21 2 -25 6s-6 12 -6 24v752c0 16 2.16699 26.333 6.5 31s13.833 7 28.5 7h457
c10 0 17.167 -1.33301 21.5 -4s6.5 -8.66699 6.5 -18v-766c0 -12 -1.33301 -20.333 -4 -25s-9.66699 -7 -21 -7h-131c-9.33301 0 -15.666 -2 -18.999 -6s-5 -11 -5 -21v-50c0 -14 2.16699 -23 6.5 -27s12.833 -6 25.5 -6h535c14.667 0 23.834 2.33301 27.501 7
s5.5 14.334 5.5 29.001v40c0 13.333 -1.5 22.333 -4.5 27s-11.167 7 -24.5 7h-175c-14.667 0 -24.334 2.16699 -29.001 6.5s-7 14.166 -7 29.499v749c0 15.333 2.33301 25 7 29s14 6 28 6h210c11.333 0 20 1.66699 26 5s9 11.333 9 24v58c0 10 -2.16699 16.333 -6.5 19
s-11.833 4 -22.5 4h-206c-12.667 0 -23.334 -0.333008 -32.001 -1s-13 6.33301 -13 21v80c0 84.667 7.33301 156 22 214s39.334 101.833 74.001 131.5s82 44.5 142 44.5c42 0 72.5 -6 91.5 -18s28.5 -24 28.5 -36c0 -13.333 -3.5 -24.833 -10.5 -34.5
s-14 -20.334 -21 -32.001s-10.5 -27.5 -10.5 -47.5c0 -28 10.667 -51 32 -69s49.333 -27 84 -27c35.333 0 63.833 11.333 85.5 34s32.5 55.334 32.5 98.001c0 38 -14 72.167 -42 102.5s-67.167 54.5 -117.5 72.5s-109.166 27 -176.499 27c-79.333 0 -146.833 -14 -202.5 -42
s-99.167 -68 -130.5 -120c-5.33301 -8.66699 -8.83301 -15.167 -10.5 -19.5s-4.5 -6.5 -8.5 -6.5c-3.33301 0 -6 1.66699 -8 5s-5.66699 8 -11 14c-28 31.333 -66.833 57.333 -116.5 78s-107.167 31 -172.5 31c-86.667 0 -162.5 -18.167 -227.5 -54.5
s-115.667 -87.166 -152 -152.499s-54.5 -141.666 -54.5 -228.999v-40c0 -10 -2 -16.5 -6 -19.5s-11.333 -4.5 -22 -4.5h-121c-14 0 -22.667 -2.5 -26 -7.5s-5 -14.833 -5 -29.5v-45c0 -10 1.33301 -17.167 4 -21.5s8.66699 -6.5 18 -6.5h129c12 0 19.833 -2.16699 23.5 -6.5
s5.5 -12.833 5.5 -25.5v-759c0 -14 -1.16699 -22.333 -3.5 -25s-10.5 -4 -24.5 -4h-117c-14 0 -23.333 -2 -28 -6s-7 -13.667 -7 -29v-46zM446.998 1040c-10.667 0 -17.833 2.16797 -21.5 6.50098s-5.5 12.166 -5.5 23.499c0 81.333 9 150.333 27 207s46 99.667 84 129
s87 44 147 44c42 0 75.833 -6 101.5 -18s38.5 -24 38.5 -36c0 -13.333 -3.5 -24.833 -10.5 -34.5s-14 -20.334 -21 -32.001s-10.5 -27.5 -10.5 -47.5c0 -28.667 13 -53.167 39 -73.5s56 -28.166 90 -23.499c12 1.33301 20.833 3.5 26.5 6.5s8.5 -4.16699 8.5 -21.5v-95
c0 -16.667 -1.33301 -26.667 -4 -30s-12.667 -5 -30 -5h-459z" />
    <glyph glyph-name="uniFB01" unicode="fi" horiz-adv-x="1290" 
d="M420 874c0 25.333 2.83203 40.9951 8.49902 46.9951s20.5 9 44.5 9h390c18 0 28.667 -3.16699 32 -9.5s5 -18.5 5 -36.5v-730c0 -18.667 -2.33301 -30.667 -7 -36s-16 -8 -34 -8h-104c-15.333 0 -25 -2.33301 -29 -7s-6 -15 -6 -31v-24
c0 -19.333 1.83301 -32.166 5.5 -38.499s14.834 -9.5 33.501 -9.5h464c16 0 26.167 2.66699 30.5 8s6.5 15.333 6.5 30v38c0 13.333 -1.33301 22.333 -4 27s-10.334 7 -23.001 7h-102c-20.667 0 -34.334 1.83301 -41.001 5.5s-10 15.834 -10 36.501v842
c0 19.333 -1.83301 31.833 -5.5 37.5s-14.834 8.5 -33.501 8.5h-578c-20 0 -32.167 2.83301 -36.5 8.5s-6.5 18.834 -6.5 39.501v12c0 91.333 9.33301 165.666 28 222.999s48.334 99.5 89.001 126.5s94.334 40.5 161.001 40.5c62 0 104.167 -6 126.5 -18s33.5 -24 33.5 -36
c0 -13.333 -3.5 -24.833 -10.5 -34.5s-14 -20.334 -21 -32.001s-10.5 -27.5 -10.5 -47.5c0 -28 10.667 -51 32 -69s49.333 -27 84 -27c35.333 0 63.833 11.333 85.5 34s32.5 55.334 32.5 98.001c0 38 -14.5 74 -43.5 108s-71.5 61.5 -127.5 82.5s-124.333 31.5 -205 31.5
c-100 0 -182 -18.167 -246 -54.5s-111.333 -87.166 -142 -152.499s-46 -141.666 -46 -228.999v-58c0 -20.667 -2.83301 -33.5 -8.5 -38.5s-18.5 -7.5 -38.5 -7.5h-88c-15.333 0 -26.666 -1.66699 -33.999 -5s-11 -13.666 -11 -30.999v-34c0 -18.667 3.16699 -30 9.5 -34
s18.833 -6 37.5 -6h82c22 0 36 -2.33301 42 -7s9 -17.667 9 -39v-726c0 -22.667 -3 -36.334 -9 -41.001s-20.667 -7 -44 -7h-92c-15.333 0 -25 -2.33301 -29 -7s-6 -15 -6 -31v-32c0 -16.667 2.16699 -27.5 6.5 -32.5s14.5 -7.5 30.5 -7.5h518c14 0 25 2 33 6
s12 13.667 12 29v41c0 16 -2.83301 25.667 -8.5 29s-16.5 5 -32.5 5h-146c-22.667 0 -37.167 2.33301 -43.5 7s-9.5 18.334 -9.5 41.001v716z" />
    <glyph glyph-name="uniFB02" unicode="fl" horiz-adv-x="1360" 
d="M420 888c0 16.667 1.5 27.835 4.5 33.502s12.833 8.5 29.5 8.5h210c14.667 0 24.334 2.16699 29.001 6.5s7 14.166 7 29.499v30c0 19.333 -2.33301 31.5 -7 36.5s-16 7.5 -34 7.5h-199c-18 0 -29.167 2.66699 -33.5 8s-6.5 17.333 -6.5 36v16
c0 84.667 7.83301 156 23.5 214s43.667 101.833 84 131.5s97.166 44.5 170.499 44.5c62 0 104.167 -6 126.5 -18s33.5 -24 33.5 -36c0 -13.333 -3.5 -24.833 -10.5 -34.5s-14 -20.334 -21 -32.001s-10.5 -27.5 -10.5 -47.5c0 -28 11 -51 33 -69s49 -27 81 -27
c16 0 26.667 -2.33301 32 -7s8 -15 8 -31v-1038c0 -18.667 -2.83301 -30 -8.5 -34s-18.167 -6 -37.5 -6h-82c-16.667 0 -29.5 -1.5 -38.5 -4.5s-13.5 -14.167 -13.5 -33.5v-36c0 -15.333 2.33301 -25.166 7 -29.499s14.334 -6.5 29.001 -6.5h456c16 0 28 1.66699 36 5
s12 13.666 12 30.999v48c0 8.66699 -1.66699 15.167 -5 19.5s-9.66602 6.5 -18.999 6.5h-106c-22 0 -35.833 2.66699 -41.5 8s-8.5 19.333 -8.5 42v1342c0 43.333 -3.66699 67.666 -11 72.999s-21.666 -0.333984 -42.999 -17.001l-56 -43c-16 -12.667 -27.833 -20 -35.5 -22
s-15.334 0 -23.001 6s-20.167 14.333 -37.5 25c-28.667 17.333 -64 31 -106 41s-90 15 -144 15c-100 0 -183.667 -18.167 -251 -54.5s-118 -87.166 -152 -152.499s-51 -141.666 -51 -228.999v-60c0 -18.667 -2.33301 -30.667 -7 -36s-16.334 -8 -35.001 -8h-104
c-13.333 0 -22.333 -2 -27 -6s-7 -13.333 -7 -28v-40c0 -16 3 -26 9 -30s16.333 -6 31 -6h96c17.333 0 29 -1.33301 35 -4s9 -12.667 9 -30v-742c0 -16.667 -2 -28.167 -6 -34.5s-15.333 -9.5 -34 -9.5h-107c-14.667 0 -23.834 -1.33301 -27.501 -4
s-5.5 -11.334 -5.5 -26.001v-52c0 -12 2.16699 -19.667 6.5 -23s12.833 -5 25.5 -5h534c14.667 0 24 2.33301 28 7s6 14.334 6 29.001v36c0 15.333 -1.66699 25.5 -5 30.5s-12.333 7.5 -27 7.5h-156c-20.667 0 -34.5 2.16699 -41.5 6.5s-10.5 17.5 -10.5 39.5v732z" />
    <glyph glyph-name="uniFB03" unicode="ffi" horiz-adv-x="1990" 
d="M453 1040c-12 0 -20.498 1.83496 -25.498 5.50195s-7.5 11.834 -7.5 24.501c0 81.333 9 150.333 27 207s46 99.667 84 129s87 44 147 44c42 0 75.833 -6 101.5 -18s38.5 -24 38.5 -36c0 -13.333 -3.5 -24.833 -10.5 -34.5s-14 -20.334 -21 -32.001
s-10.5 -27.5 -10.5 -47.5c0 -26.667 11.167 -49.334 33.5 -68.001s48.833 -28.334 79.5 -29.001c15.333 0 28.166 2.16699 38.499 6.5s15.166 -4.16699 14.499 -25.5l-2 -82c0 -17.333 -1.83301 -29 -5.5 -35s-14.167 -9 -31.5 -9h-450zM60.002 31.002
c0 -14 2.50879 -22.666 7.50879 -25.999s14.833 -5 29.5 -5h527c14 0 23.5 2 28.5 6s7.5 13.333 7.5 28v43c0 16 -4 25.5 -12 28.5s-19.333 4.5 -34 4.5h-150c-17.333 0 -29 1.66699 -35 5s-9 13.666 -9 30.999v744c0 17.333 2.16699 28.333 6.5 33s14.5 7 30.5 7h430
c21.333 0 35.5 -2.33301 42.5 -7s10.5 -18.334 10.5 -41.001v-736c0 -15.333 -2.5 -25.166 -7.5 -29.499s-14.833 -6.5 -29.5 -6.5h-114c-11.333 0 -19 -1.66699 -23 -5s-6 -10.333 -6 -21v-46c0 -15.333 2 -25.5 6 -30.5s13.333 -7.5 28 -7.5h528c17.333 0 28 2.5 32 7.5
s6 16.167 6 33.5v40c0 13.333 -3.5 21.5 -10.5 24.5s-16.5 4.5 -28.5 4.5h-159c-16.667 0 -27.834 1.5 -33.501 4.5s-8.5 12.5 -8.5 28.5v749c0 16 2.16699 26.333 6.5 31s14.166 7 29.499 7h408c18 0 28.5 -1.5 31.5 -4.5s4.5 -13.5 4.5 -31.5v-749
c0 -14 -2 -23.333 -6 -28s-13.667 -7 -29 -7h-115c-11.333 0 -19.166 -1.66699 -23.499 -5s-6.5 -10.666 -6.5 -21.999v-44c0 -16 1.83301 -26.5 5.5 -31.5s13.167 -7.5 28.5 -7.5h473c15.333 0 24.666 2.66699 27.999 8s5 15.666 5 30.999v41
c0 11.333 -1.66699 19.166 -5 23.499s-10.666 6.5 -21.999 6.5h-114c-16.667 0 -27.334 2.5 -32.001 7.5s-7 15.5 -7 31.5v855c0 16 -2.66699 26 -8 30s-15.666 6 -30.999 6h-573c-14.667 0 -26.334 1.5 -35.001 4.5s-13 12.833 -13 29.5v26
c0 84.667 7.83301 159.334 23.5 224.001s43.667 115.167 84 151.5s97.166 54.5 170.499 54.5c41.333 0 73.666 -6.16699 96.999 -18.5s39.666 -26 48.999 -41s14 -26.5 14 -34.5c0 -13.333 -3.5 -24.833 -10.5 -34.5s-14 -20.334 -21 -32.001s-10.5 -27.5 -10.5 -47.5
c0 -28 10.667 -51 32 -69s49.333 -27 84 -27c35.333 0 63.833 11.333 85.5 34s32.5 55.334 32.5 98.001c0 38 -12.833 75.667 -38.5 113s-64.834 68.166 -117.501 92.499s-119.334 36.5 -200.001 36.5c-84.667 0 -157.834 -14.667 -219.501 -44
s-111.167 -69.333 -148.5 -120c-18 -24.667 -27.833 -37.667 -29.5 -39s-12.167 9.33398 -31.5 32.001c-27.333 32 -66.166 58.5 -116.499 79.5s-108.5 31.5 -174.5 31.5c-82 0 -155.667 -16.333 -221 -49s-116.833 -78.5 -154.5 -137.5s-56.834 -128.833 -57.501 -209.5
l-1 -72c0 -13.333 -2.16699 -22 -6.5 -26s-13.5 -6 -27.5 -6h-112c-8.66699 0 -16.5 -1.33301 -23.5 -4s-10.5 -9.33398 -10.5 -20.001v-56c0 -12 2 -20 6 -24s11.667 -6 23 -6h120c14 0 22.667 -2.33301 26 -7s5 -14.334 5 -29.001v-736
c0 -19.333 -2.33301 -32.166 -7 -38.499s-17.334 -9.5 -38.001 -9.5h-103c-12.667 0 -21.167 -2.16699 -25.5 -6.5s-6.5 -13.166 -6.5 -26.499v-46z" />
    <glyph glyph-name="uniFB04" unicode="ffl" horiz-adv-x="1990" 
d="M453 1040c-12 0 -20.5 1.83301 -25.5 5.5s-7.5 11.834 -7.5 24.501c0 81.333 9 150.333 27 207s46 99.667 84 129s87 44 147 44c42 0 75.833 -6 101.5 -18s38.5 -24 38.5 -36c0 -13.333 -3.5 -24.833 -10.5 -34.5s-14 -20.334 -21 -32.001s-10.5 -27.5 -10.5 -47.5
c0 -29.333 12.833 -53.5 38.5 -72.5s55.5 -26.833 89.5 -23.5c22 2 33.833 1.16699 35.5 -2.5s2.16699 -19.5 1.5 -47.5v-45c-0.666992 -22 -3.5 -36 -8.5 -42s-19.167 -9 -42.5 -9h-437zM60 45c0 -18.667 2.00098 -30.835 6.00098 -36.502s15.333 -8.5 34 -8.5h522
c18 0 28.833 3 32.5 9s5.5 18 5.5 36v34c0 15.333 -4.33301 24.333 -13 27s-19.667 4 -33 4h-137c-26.667 0 -42.834 2.33301 -48.501 7s-8.5 20 -8.5 46v722c0 21.333 3 34.166 9 38.499s19.667 6.5 41 6.5h426c19.333 0 31.5 -2.66699 36.5 -8s7.5 -18.333 7.5 -39v-718
c0 -24.667 -3 -40 -9 -46s-21.667 -9 -47 -9h-82c-18 0 -29.5 -2.16699 -34.5 -6.5s-7.5 -15.166 -7.5 -32.499v-40c0 -14.667 3.5 -23.5 10.5 -26.5s16.833 -4.5 29.5 -4.5h526c14 0 23.167 2.16699 27.5 6.5s6.5 13.833 6.5 28.5v38c0 17.333 -3.33301 27.833 -10 31.5
s-18 5.5 -34 5.5h-132c-28.667 0 -46.5 3.16699 -53.5 9.5s-10.5 24.166 -10.5 53.499v722c0 14.667 2 24.167 6 28.5s12.667 6.5 26 6.5h222c18 0 30.167 2.16699 36.5 6.5s9.5 15.833 9.5 34.5v14c0 22.667 -4.33301 37.5 -13 44.5s-23.667 10.5 -45 10.5h-204
c-18.667 0 -29.667 3.16699 -33 9.5s-5 18.833 -5 37.5v13c0 84.667 7.83301 159.334 23.5 224.001s43.667 115.167 84 151.5s97.166 54.5 170.499 54.5c41.333 0 73.666 -6.16699 96.999 -18.5s39.666 -26 48.999 -41s14 -26.5 14 -34.5
c0 -13.333 -3.5 -24.833 -10.5 -34.5s-14 -20.334 -21 -32.001s-10.5 -27.5 -10.5 -47.5c0 -17.333 4.33301 -32.833 13 -46.5s20.334 -24.834 35.001 -33.501c10.667 -6 19.334 -9.66699 26.001 -11s10 -10.666 10 -27.999v-1042c0 -22.667 -2.83301 -36.834 -8.5 -42.501
s-19.5 -8.5 -41.5 -8.5h-90c-19.333 0 -30.833 -3.33301 -34.5 -10s-5.5 -19.667 -5.5 -39v-20c0 -16.667 2.33301 -27.667 7 -33s15.667 -8 33 -8h456c18.667 0 30.667 2.5 36 7.5s8 16.833 8 35.5v40c0 12 -2.16699 19.5 -6.5 22.5s-12.833 4.5 -25.5 4.5h-104
c-21.333 0 -34 3.5 -38 10.5s-6 21.167 -6 42.5v1386c0 34 -3.33301 48.5 -10 43.5l-34 -26.5l-42 -33c-12 -9.33301 -19.833 -13.666 -23.5 -12.999s-11.834 5.33398 -24.501 14.001c-29.333 20 -64.833 36 -106.5 48s-90.167 18 -145.5 18
c-87.333 0 -162.166 -15.333 -224.499 -46s-112.166 -72.667 -149.499 -126c-15.333 -22 -23.666 -33 -24.999 -33s-10.333 10 -27 30c-27.333 33.333 -66.333 60.833 -117 82.5s-109.667 32.5 -177 32.5c-82 0 -155.667 -16.333 -221 -49s-116.833 -78.5 -154.5 -137.5
s-56.834 -128.833 -57.501 -209.5l-1 -57c0 -18.667 -1.66699 -31.167 -5 -37.5s-14.333 -9.5 -33 -9.5h-104c-14.667 0 -24.667 -1.5 -30 -4.5s-8 -11.833 -8 -26.5v-46c0 -14 2.16699 -23 6.5 -27s12.833 -6 25.5 -6h120c10 0 17.167 -1.66699 21.5 -5
s6.5 -10.666 6.5 -21.999v-752c0 -20 -3.33301 -31.833 -10 -35.5s-20 -5.5 -40 -5.5h-90c-18.667 0 -30 -3.16699 -34 -9.5s-6 -18.166 -6 -35.499v-20z" />
    <glyph glyph-name=".notdef" horiz-adv-x="1000" 
 />
    <glyph glyph-name="uni0000" horiz-adv-x="600" 
 />
    <glyph glyph-name="uni0000" horiz-adv-x="600" 
 />
    <glyph glyph-name="uni000D" unicode="&#xd;" horiz-adv-x="600" 
 />
    <glyph glyph-name="space" unicode=" " horiz-adv-x="600" 
 />
    <glyph glyph-name="exclam" unicode="!" horiz-adv-x="638" 
d="M200 98c0 -22 5.33301 -42 16 -60s24.834 -32.167 42.501 -42.5s37.5 -15.5 59.5 -15.5s42 5.16699 60 15.5s32.167 24.5 42.5 42.5s15.5 38 15.5 60s-5.16699 42 -15.5 60s-24.5 32.167 -42.5 42.5s-38 15.5 -60 15.5s-41.833 -5.16699 -59.5 -15.5
s-31.834 -24.5 -42.501 -42.5s-16 -38 -16 -60zM436 1318c0 7.33301 0.335938 14.0029 1.00293 20.0029s1 12 1 18c0 30.667 -3.5 58 -10.5 82s-19.167 43 -36.5 57s-41.666 21 -72.999 21s-55.5 -7 -72.5 -21s-28.833 -33 -35.5 -57s-10 -51.333 -10 -82v-18v-20
c5.33301 -86 12.333 -166.667 21 -242l26 -217.5c8.66699 -69.667 16.167 -138.834 22.5 -207.501s9.83301 -139 10.5 -211c0 -8.66699 1.16699 -14.834 3.5 -18.501s8.16602 -5.5 17.499 -5.5h31c12 0 19 2.16699 21 6.5s3 11.833 3 22.5
c0.666992 57.333 3.16699 113.5 7.5 168.5s9.66602 109.833 15.999 164.5s13.166 110.667 20.499 168s14.166 116.666 20.499 177.999s11.5 126 15.5 194z" />
    <glyph glyph-name="quotedbl" unicode="&#x22;" horiz-adv-x="750" 
d="M648 1358c1.33301 7.33301 1.99707 13.6641 1.99707 18.9971v17c0 39.333 -9.33301 69.5 -28 90.5s-42.667 31.5 -72 31.5c-28.667 0 -52.5 -10.5 -71.5 -31.5s-28.5 -51.167 -28.5 -90.5c0 -6 0.166992 -11.667 0.5 -17s0.833008 -11.666 1.5 -18.999
c7.33301 -46.667 15.333 -90.167 24 -130.5s16.5 -79.166 23.5 -116.499s11.167 -74.666 12.5 -111.999c0.666992 -8 2.33398 -13.833 5.00098 -17.5s8.33398 -5.5 17.001 -5.5h30c8.66699 0 14.834 1 18.501 3s5.5 7 5.5 15c1.33301 38 5.5 75.833 12.5 113.5s15 77 24 118
s16.833 85.167 23.5 132.5zM297.997 1358c1.33301 7.33301 1.99707 13.6641 1.99707 18.9971v17c0 39.333 -9.33301 69.5 -28 90.5s-42.667 31.5 -72 31.5c-28.667 0 -52.5 -10.5 -71.5 -31.5s-28.5 -51.167 -28.5 -90.5c0 -6 0.166992 -11.667 0.5 -17
s0.833008 -11.666 1.5 -18.999c7.33301 -46.667 15.333 -90.167 24 -130.5s16.5 -79.166 23.5 -116.499s11.167 -74.666 12.5 -111.999c0.666992 -8 2.33398 -13.833 5.00098 -17.5s8.33398 -5.5 17.001 -5.5h30c8.66699 0 14.834 1 18.501 3s5.5 7 5.5 15
c1.33301 38 5.5 75.833 12.5 113.5s15 77 24 118s16.833 85.167 23.5 132.5z" />
    <glyph glyph-name="numbersign" unicode="#" horiz-adv-x="1320" 
d="M486 1610c-13.333 0 -21.1709 -1.16895 -23.5039 -3.50195s-4.16602 -9.5 -5.49902 -21.5l-55 -471c-1.33301 -14.667 -4.5 -24 -9.5 -28s-17.167 -6 -36.5 -6h-292c-11.333 0 -18.166 -2.66699 -20.499 -8s-3.5 -13.666 -3.5 -24.999v-38
c0 -15.333 1.66699 -25.666 5 -30.999s12.333 -8 27 -8h287c14 0 21.833 -1.5 23.5 -4.5s1.83398 -10.5 0.500977 -22.5l-41 -345c-2 -14.667 -3.66699 -24.667 -5 -30s-11 -8 -29 -8h-297c-12 0 -20.167 -1.33301 -24.5 -4s-6.5 -9.66699 -6.5 -21v-55
c0 -11.333 1.33301 -19.166 4 -23.499s9.33398 -6.5 20.001 -6.5h285c17.333 0 27.333 -2.5 30 -7.5s3.33398 -14.5 2.00098 -28.5l-58 -497c-1.33301 -10.667 -1.66602 -17.834 -0.999023 -21.501s7.33398 -5.5 20.001 -5.5h63c13.333 0 21 1.16699 23 3.5
s3.66699 9.16602 5 20.499l59 509c1.33301 14.667 4.16602 22.834 8.49902 24.501s14.5 2.5 30.5 2.5h275c18 0 28.833 -1.66699 32.5 -5s4.83398 -11.666 3.50098 -24.999l-58 -499c-1.33301 -14.667 -1 -23.5 1 -26.5s11.333 -4.5 28 -4.5h49c14 0 22.333 1.16699 25 3.5
s4.66699 9.83301 6 22.5l59 509c1.33301 12 3.33301 19.167 6 21.5s10.667 3.5 24 3.5h317c15.333 0 26 1.83301 32 5.5s9 13.5 9 29.5v46c0 11.333 -1.5 19 -4.5 23s-9.83301 6 -20.5 6h-310c-18 0 -28.333 2.5 -31 7.5s-3.33398 14.833 -2.00098 29.5l41 348
c1.33301 12.667 3.5 20 6.5 22s11.5 3 25.5 3h329c9.33301 0 16 1.83301 20 5.5s6 10.5 6 20.5v57c0 10 -1.5 17 -4.5 21s-9.16699 6 -18.5 6h-304c-22.667 0 -35.667 1.66699 -39 5s-3.66602 15 -0.999023 35l53 459c1.33301 14.667 1.16602 23.5 -0.500977 26.5
s-10.834 4.5 -27.501 4.5h-52c-14.667 0 -22.834 -1.66699 -24.501 -5s-3.16699 -11.333 -4.5 -24l-54 -462c-2 -18.667 -4.83301 -29.834 -8.5 -33.501s-16.167 -5.5 -37.5 -5.5h-267c-20.667 0 -32.5 2.33301 -35.5 7s-3.5 16 -1.5 34l54 463
c1.33301 10.667 1 17.667 -1 21s-8.66699 5 -20 5h-60zM800.995 969.998c18.667 0 30.6689 -1.83203 36.002 -5.49902s6.66602 -16.167 3.99902 -37.5l-39 -334c-1.33301 -12.667 -4.5 -21.334 -9.5 -26.001s-17.167 -7 -36.5 -7h-268
c-16.667 0 -27.334 1.83301 -32.001 5.5s-6 13.834 -4 30.501l39 335c2 15.333 5.66699 25.666 11 30.999s19.333 8 42 8h257z" />
    <glyph glyph-name="dollar" unicode="$" horiz-adv-x="1320" 
d="M660 1670l-10.001 -150.002c-82.667 0 -161.334 -14.333 -236.001 -43s-135.667 -73.167 -183 -133.5s-71 -138.166 -71 -233.499c0 -72 12.333 -131.667 37 -179s57.834 -85.5 99.501 -114.5s88.5 -52.167 140.5 -69.5s105.333 -32.666 160 -45.999l-40 -613
c-70 8 -126 22.5 -168 43.5s-72.333 43.5 -91 67.5s-28 44.333 -28 61c0 15.333 5.33301 28 16 38s21.334 21.5 32.001 34.5s16 31.5 16 55.5c0 37.333 -12.167 66 -36.5 86s-50.166 30 -77.499 30c-19.333 0 -38.833 -4.33301 -58.5 -13s-36.167 -22.667 -49.5 -42
s-20 -45 -20 -77c0 -65.333 17.333 -125.5 52 -180.5s86 -100.667 154 -137s152 -59.5 252 -69.5l-10 -155h110l10 150c90.667 0 170.834 10.333 240.501 31s128.167 50.334 175.5 89.001s83.166 85.834 107.499 141.501s36.5 118.5 36.5 188.5
c0 87.333 -14.667 158.333 -44 213s-68.333 98.167 -117 130.5s-102.5 57.5 -161.5 75.5s-118.167 33.667 -177.5 47l33 516c79.333 -10.667 135.333 -30.834 168 -60.501s49 -56.834 49 -81.501c0 -15.333 -5.33301 -28 -16 -38s-21.334 -21.5 -32.001 -34.5
s-16 -31.5 -16 -55.5c0 -24.667 5.83301 -45.667 17.5 -63s26.167 -30.5 43.5 -39.5s35 -13.5 53 -13.5c29.333 0 58 10 86 30s42 54 42 102c0 78.667 -18 142.5 -54 191.5s-83.333 86.5 -142 112.5s-122.667 43 -192 51l10 157h-110zM1040 379.998
c0 -45.333 -12.667 -90.835 -38 -136.502s-65.333 -83.667 -120 -114s-126.667 -46.166 -216 -47.499l39 593c60 -14.667 115.333 -32.667 166 -54s91.5 -50.666 122.5 -87.999s46.5 -88.333 46.5 -153zM339.999 1170c0 67.333 25.5 124.831 76.5 172.498
s126.833 72.834 227.5 75.501l-33 -496c-50 13.333 -95.5 29.333 -136.5 48s-73.667 43.834 -98 75.501s-36.5 73.167 -36.5 124.5z" />
    <glyph glyph-name="percent" unicode="%" horiz-adv-x="2000" 
d="M70 1080c0 -95.333 17.665 -175.666 52.998 -240.999s83.166 -114.833 143.499 -148.5s128.166 -50.5 203.499 -50.5c62 0 123.667 16.833 185 50.5s112.5 83.167 153.5 148.5s61.5 145.666 61.5 240.999s-17.667 175.666 -53 240.999s-83.166 114.833 -143.499 148.5
s-128.166 50.5 -203.499 50.5s-143.166 -16.833 -203.499 -50.5s-108.166 -83.167 -143.499 -148.5s-53 -145.666 -53 -240.999zM289.998 1080c0 68 4.66699 127.5 14 178.5s27 90.667 53 119s63.667 42.5 113 42.5s87 -14.167 113 -42.5s43.667 -68 53 -119
s14 -110.5 14 -178.5s-4.66699 -127.5 -14 -178.5s-27 -90.667 -53 -119s-63.667 -42.5 -113 -42.5s-87 14.167 -113 42.5s-43.667 68 -53 119s-14 110.5 -14 178.5zM1430 1500c-11.333 0 -20.166 -1.83301 -26.499 -5.5s-11.5 -9.16699 -15.5 -16.5l-893 -1437
c-5.33301 -8.66699 -8.33301 -17.667 -9 -27s8.66602 -14 27.999 -14h53c17.333 0 29.666 2 36.999 6s14.333 11.333 21 22l881 1440c7.33301 11.333 10.333 19.5 9 24.5s-10.666 7.5 -27.999 7.5h-57zM1130 420c0 -95.333 17.6641 -175.666 52.9971 -240.999
s83.166 -114.833 143.499 -148.5s128.166 -50.5 203.499 -50.5c62 0 123.833 16.833 185.5 50.5s112.834 83.167 153.501 148.5s61 145.666 61 240.999s-17.667 175.666 -53 240.999s-83.166 114.833 -143.499 148.5s-128.166 50.5 -203.499 50.5
s-143.166 -16.833 -203.499 -50.5s-108.166 -83.167 -143.499 -148.5s-53 -145.666 -53 -240.999zM1350 420c0 68 4.66699 127.5 14 178.5s27 90.667 53 119s63.667 42.5 113 42.5s87 -14.167 113 -42.5s43.667 -68 53 -119s14 -110.5 14 -178.5s-4.66699 -127.5 -14 -178.5
s-27 -90.667 -53 -119s-63.667 -42.5 -113 -42.5s-87 14.167 -113 42.5s-43.667 68 -53 119s-14 110.5 -14 178.5z" />
    <glyph glyph-name="ampersand" unicode="&#x26;" horiz-adv-x="1740" 
d="M1117 920c-12 0 -19.5 -2.16211 -22.5 -6.49512s-4.5 -12.833 -4.5 -25.5v-35c0 -18 2 -29.667 6 -35s14.667 -8 32 -8h114c15.333 0 25.333 -1.5 30 -4.5s6 -11.167 4 -24.5c-22.667 -134 -77.667 -260.667 -165 -380c-15.333 -20.667 -25.5 -30 -30.5 -28
s-14.167 13.667 -27.5 35l-272 431c-10 15.333 -15.5 26.166 -16.5 32.499s7.16699 13.166 24.5 20.499c61.333 26 118 55.167 170 87.5s93.833 71.666 125.5 117.999s47.5 103.833 47.5 172.5c0 53.333 -16.167 98.666 -48.5 135.999s-76.5 65.666 -132.5 84.999
s-119.667 29 -191 29c-77.333 0 -146.333 -12 -207 -36s-108.334 -58 -143.001 -102s-52 -96 -52 -156c0 -34.667 9.16699 -74.5 27.5 -119.5s39.833 -87.167 64.5 -126.5l36 -57l19.5 -30.5c3.66699 -5.66699 -3.83301 -12.167 -22.5 -19.5
c-55.333 -21.333 -109.333 -44.833 -162 -70.5s-100 -56 -142 -91s-75.333 -77.833 -100 -128.5s-37 -111.667 -37 -183c0 -95.333 23 -174 69 -236s106.833 -108.167 182.5 -138.5s157.834 -45.5 246.501 -45.5c78 0 152 10.667 222 32s135 51.333 195 90
c15.333 10 25.333 15.833 30 17.5s12.334 -5.83301 23.001 -22.5l42 -66c8.66699 -13.333 16.5 -21.833 23.5 -25.5s21.833 -5.5 44.5 -5.5h392c13.333 0 21.333 2.5 24 7.5s4 14.167 4 27.5v40c0 14 -1.66699 23.333 -5 28s-11.666 7 -24.999 7h-235
c-16 0 -26.333 1.33301 -31 4s-10 8.66699 -16 18l-67 106c-10.667 17.333 -13.5 27.5 -8.5 30.5s12.833 11.167 23.5 24.5c57.333 70.667 103.166 148.167 137.499 232.5s58.833 171.5 73.5 261.5c1.33301 10.667 3 17.167 5 19.5s9.33301 3.5 22 3.5h132c12 0 19 1 21 3
s3 9 3 21v58c0 11.333 -2.33301 18.833 -7 22.5s-12.334 5.5 -23.001 5.5h-423zM529 783.005c17.333 8.66699 28.498 12.3311 33.498 10.998s12.5 -9.66602 22.5 -24.999l327 -516c9.33301 -14.667 14.333 -24.5 15 -29.5s-6.66602 -12.167 -21.999 -21.5
c-44.667 -28.667 -91.667 -51.167 -141 -67.5s-100.666 -24.5 -153.999 -24.5c-62.667 0 -120.334 12 -173.001 36s-95 60.333 -127 109s-48 110.334 -48 185.001c0 88.667 25.833 159 77.5 211s114.834 96 189.501 132zM943.998 1280
c0 -76.667 -20.499 -138.332 -61.499 -184.999s-92.833 -86.334 -155.5 -119.001c-10.667 -5.33301 -17.834 -8.5 -21.501 -9.5s-8.83398 3.5 -15.501 13.5c-40.667 65.333 -73.5 123 -98.5 173s-37.5 92.333 -37.5 127c0 53.333 19.833 93.333 59.5 120
s87.834 40 144.501 40c36.667 0 69 -6.83301 97 -20.5s49.833 -32.5 65.5 -56.5s23.5 -51.667 23.5 -83z" />
    <glyph glyph-name="quotesingle" unicode="'" horiz-adv-x="400" 
d="M298 1358c1.33301 7.33301 1.99707 13.6641 1.99707 18.9971v17c0 39.333 -9.33301 69.5 -28 90.5s-42.667 31.5 -72 31.5c-28.667 0 -52.5 -10.5 -71.5 -31.5s-28.5 -51.167 -28.5 -90.5c0 -6 0.166992 -11.667 0.5 -17s0.833008 -11.666 1.5 -18.999
c7.33301 -46.667 15.333 -90.167 24 -130.5s16.5 -79.166 23.5 -116.499s11.167 -74.666 12.5 -111.999c0.666992 -8 2.33398 -13.833 5.00098 -17.5s8.33398 -5.5 17.001 -5.5h30c8.66699 0 14.834 1 18.501 3s5.5 7 5.5 15c1.33301 38 5.5 75.833 12.5 113.5s15 77 24 118
s16.833 85.167 23.5 132.5z" />
    <glyph glyph-name="parenleft" unicode="(" horiz-adv-x="890" 
d="M823 -276c3.33301 15.333 4.66504 25.3291 3.99805 29.9961s-8.33398 9.33398 -23.001 14.001c-164.667 54.667 -283.167 158.834 -355.5 312.501s-108.5 343.5 -108.5 569.5c0 224.667 35.667 407.334 107 548.001s188.333 238 351 292
c14.667 5.33301 23.5 9.16602 26.5 11.499s2.83301 11.833 -0.5 28.5l-9 39c-3.33301 17.333 -10.166 25.666 -20.499 24.999s-22.833 -3 -37.5 -7c-103.333 -28 -195 -69 -275 -123s-147.667 -120.167 -203 -198.5s-97.333 -169 -126 -272s-43 -217.5 -43 -343.5
c0 -128.667 15 -247.167 45 -355.5s73.833 -204.666 131.5 -288.999s128.334 -155.166 212.001 -212.499s179.167 -99.666 286.5 -126.999c11.333 -2.66699 18.333 -3.66699 21 -3s5.33398 7 8.00098 19z" />
    <glyph glyph-name="parenright" unicode=")" horiz-adv-x="890" 
d="M67 1536c-2.66699 -15.333 -3.83008 -25.1621 -3.49707 -29.4951s7.83301 -9.16602 22.5 -14.499c164.667 -54.667 283.167 -158.834 355.5 -312.501s108.5 -343.5 108.5 -569.5c0 -224.667 -35.667 -407.334 -107 -548.001s-188.333 -238 -351 -292
c-14.667 -4.66699 -23.5 -8.33398 -26.5 -11.001s-2.83301 -12.334 0.5 -29.001l9 -39c3.33301 -17.333 10.166 -25.666 20.499 -24.999s22.833 3 37.5 7c103.333 28 195 69 275 123s147.667 120.167 203 198.5s97.333 169 126 272s43 217.5 43 343.5
c0 129.333 -15 248.166 -45 356.499s-73.833 204.666 -131.5 288.999s-128.334 155.166 -212.001 212.499s-179.167 99.333 -286.5 126c-11.333 3.33301 -18.333 4.5 -21 3.5s-5.33398 -7.5 -8.00098 -19.5z" />
    <glyph glyph-name="asterisk" unicode="*" horiz-adv-x="1270" 
d="M165 772c14.667 -24.667 35.8379 -39.8232 63.5049 -45.4902s58.5 1.16602 92.5 20.499c24.667 14 47.834 29.667 69.501 47s42.5 35.166 62.5 53.499l58 54c18.667 17.667 37 33.834 55 48.501c10 8 16.667 12.667 20 14s3.33301 -7 0 -25
c-4 -23.333 -9 -47.5 -15 -72.5l-18 -77c-6 -26.333 -11 -53.333 -15 -81s-6 -56.5 -6 -86.5c0 -38.667 9.5 -68.667 28.5 -90s42.833 -32 71.5 -32c29.333 0 53.333 10.667 72 32s28 51.333 28 90c0 29.333 -2 57.666 -6 84.999s-8.83301 54 -14.5 80
s-11.5 51.167 -17.5 75.5s-11 47.833 -15 70.5c-2.66699 18.667 -2.83398 28 -0.500977 28s8.83301 -4.66699 19.5 -14c18 -14.667 36.5 -31 55.5 -49l58.5 -54.5c20 -18.333 41 -36.333 63 -54s45.333 -33.5 70 -47.5c34 -19.333 64.833 -26 92.5 -20
s48.834 21.333 63.501 46c14.667 25.333 17.5 51.333 8.5 78s-30.5 49.667 -64.5 69c-23.333 13.333 -47.833 25.166 -73.5 35.499s-51.334 19.666 -77.001 27.999l-76 24c-25 7.66699 -48.5 15.5 -70.5 23.5c-17.333 6.66699 -24.5 11.167 -21.5 13.5
s12.167 6.16602 27.5 11.499c22 8 45.333 15.667 70 23s49.667 15.166 75 23.499s50.666 17.5 75.999 27.5s49.333 21.667 72 35c34 19.333 55.5 42.666 64.5 69.999s6.16699 53.333 -8.5 78c-14.667 25.333 -35.834 40.666 -63.501 45.999s-58.5 -1.66699 -92.5 -21
c-24 -14 -46.5 -29.167 -67.5 -45.5s-41.167 -33.333 -60.5 -51l-56 -52c-18 -17 -36 -33.167 -54 -48.5c-10 -8.66699 -17.833 -15.167 -23.5 -19.5s-6.83398 4.16699 -3.50098 25.5c4 23.333 9 47.333 15 72l18 76.5c6 26.333 11 53.5 15 81.5s6 56.667 6 86
c0 39.333 -9.33301 69.5 -28 90.5s-42.667 31.5 -72 31.5c-28.667 0 -52.5 -10.5 -71.5 -31.5s-28.5 -51.167 -28.5 -90.5c0 -30 2 -58.833 6 -86.5s9 -54.667 15 -81l18 -76.5c6 -24.667 11 -48.667 15 -72c3.33301 -16.667 3.16602 -24.167 -0.500977 -22.5
s-10.167 6.16699 -19.5 13.5l-55.5 49.5l-58.5 54c-20 18.333 -41 36.333 -63 54s-45.333 33.5 -70 47.5c-34 19.333 -64.833 26.166 -92.5 20.499s-48.834 -21.167 -63.501 -46.5c-14.667 -24.667 -17.5 -50.5 -8.5 -77.5s30.5 -50.167 64.5 -69.5
c24 -14 49 -26.167 75 -36.5s52.333 -19.666 79 -27.999l78 -24c25.333 -7.66699 49 -15.834 71 -24.501c13.333 -4.66699 19.5 -8 18.5 -10s-7.83301 -5.33301 -20.5 -10c-22 -8.66699 -45.667 -16.834 -71 -24.501l-78 -24c-26.667 -8.33301 -53 -17.5 -79 -27.5
s-51 -22 -75 -36c-34 -19.333 -55.5 -42.5 -64.5 -69.5s-6.16699 -53.167 8.5 -78.5z" />
    <glyph glyph-name="plus" unicode="+" horiz-adv-x="1060" 
d="M620 836c-15.333 0 -25.166 2.33105 -29.499 6.99805s-6.5 15 -6.5 31v287c0 10.667 -1.16699 18.167 -3.5 22.5s-8.5 6.5 -18.5 6.5h-57c-12.667 0 -20.667 -2.16699 -24 -6.5s-5 -12.166 -5 -23.499v-290c0 -14.667 -2.33301 -24 -7 -28s-13.667 -6 -27 -6h-292
c-10.667 0 -18.334 -1.66699 -23.001 -5s-7 -10.666 -7 -21.999v-54c0 -12 1.66699 -19.833 5 -23.5s11.333 -5.5 24 -5.5h291c17.333 0 27.666 -2.5 30.999 -7.5s5 -16.167 5 -33.5v-295c0 -10 1.66699 -15.833 5 -17.5s10 -2.5 20 -2.5h58c9.33301 0 15.833 1 19.5 3
s5.5 7.33301 5.5 16v303c0 15.333 2.66699 24.833 8 28.5s16 5.5 32 5.5h298c8.66699 0 13.834 2 15.501 6s2.5 10.333 2.5 19v57c0 12 -2.83301 19.667 -8.5 23s-14.167 5 -25.5 5h-286z" />
    <glyph glyph-name="comma" unicode="," horiz-adv-x="508" 
d="M119 98c0 -32.667 9.49805 -60.498 28.498 -83.498s44.833 -34.5 77.5 -34.5c10.667 0 19.834 0.666992 27.501 2s15.5 4.66602 23.5 9.99902c5.33301 3.33301 10.166 6 14.499 8s6.83301 -1 7.5 -9c4 -38 -1 -73 -15 -105s-33.667 -58.167 -59 -78.5
s-53.333 -32.833 -84 -37.5c-7.33301 -0.666992 -13.333 -2.33398 -18 -5.00098s-7 -8.66699 -7 -18v-43c0 -8.66699 2 -13.5 6 -14.5s9.66699 -1.16699 17 -0.5c41.333 4 77.833 16.333 109.5 37s58.334 46.667 80.001 78s38 64.833 49 100.5s16.5 70.167 16.5 103.5
c0 73.333 -13.5 126.333 -40.5 159s-60.167 49 -99.5 49c-25.333 0 -48.166 -5.16699 -68.499 -15.5s-36.333 -24.5 -48 -42.5s-17.5 -38 -17.5 -60z" />
    <glyph glyph-name="hyphen" unicode="-" horiz-adv-x="920" 
d="M148 830c-10.667 0 -18 -1.83203 -22 -5.49902s-6 -11.167 -6 -22.5v-52c0 -12.667 1.16699 -20.834 3.5 -24.501s9.83301 -5.5 22.5 -5.5h626c13.333 0 21.333 2.5 24 7.5s4 13.5 4 25.5v49c0 12 -1.5 19.667 -4.5 23s-10.167 5 -21.5 5h-626z" />
    <glyph glyph-name="period" unicode="." horiz-adv-x="470" 
d="M115 100c0 -22 5.5 -42.167 16.5 -60.5s25.5 -32.833 43.5 -43.5s38 -16 60 -16s42.167 5.33301 60.5 16s32.833 25.167 43.5 43.5s16 38.5 16 60.5s-5.33301 42 -16 60s-25.167 32.5 -43.5 43.5s-38.5 16.5 -60.5 16.5s-42 -5.5 -60 -16.5s-32.5 -25.5 -43.5 -43.5
s-16.5 -38 -16.5 -60z" />
    <glyph glyph-name="slash" unicode="/" horiz-adv-x="1040" 
d="M874 1560c-20 0 -33 -2.33496 -39 -7.00195s-11.667 -13.667 -17 -27l-721 -1784c-6 -15.333 -7 -26.166 -3 -32.499s18.333 -9.5 43 -9.5h32c20.667 0 34.834 1.83301 42.501 5.5s14.167 12.5 19.5 26.5l717 1798c5.33301 12.667 6.66602 20.834 3.99902 24.501
s-13.667 5.5 -33 5.5h-45z" />
    <glyph glyph-name="zero" unicode="0" horiz-adv-x="1180" 
d="M80 750c0 -141.333 14.8311 -261.166 44.498 -359.499s69.167 -177.666 118.5 -237.999s104.166 -104.166 164.499 -131.499s121.166 -41 182.499 -41c56.667 0 114.834 13.667 174.501 41s114.834 71.166 165.501 131.499s91.667 139.666 123 237.999
s47 218.166 47 359.499s-13.833 261.166 -41.5 359.499s-65.5 177.666 -113.5 237.999s-102.5 104.166 -163.5 131.499s-124.833 41 -191.5 41c-61.333 0 -122.166 -13.667 -182.499 -41s-115.166 -71.166 -164.499 -131.499s-88.833 -139.666 -118.5 -237.999
s-44.5 -218.166 -44.5 -359.499zM299.998 750c0 161.333 12.5 291.166 37.5 389.499s59.333 169.666 103 213.999s93.5 66.5 149.5 66.5c62.667 0 115.5 -22.167 158.5 -66.5s75.667 -115.666 98 -213.999s33.5 -228.166 33.5 -389.499s-11.167 -291.166 -33.5 -389.499
s-55 -169.666 -98 -213.999s-95.833 -66.5 -158.5 -66.5c-56 0 -105.833 22.167 -149.5 66.5s-78 115.666 -103 213.999s-37.5 228.166 -37.5 389.499z" />
    <glyph glyph-name="one" unicode="1" horiz-adv-x="1050" 
d="M100 38c0 -15.333 2 -25.4971 6 -30.4971s13.333 -7.5 28 -7.5h782c15.333 0 24.833 2.66699 28.5 8s5.5 16 5.5 32v40c0 14.667 -4 23.334 -12 26.001s-18.667 4 -32 4h-222c-24 0 -39 2.83301 -45 8.5s-9 20.167 -9 43.5v1392c0 12.667 -3.16699 20.167 -9.5 22.5
s-15.833 3.5 -28.5 3.5h-28c-16.667 0 -26.5 -4.33301 -29.5 -13s-7.16699 -18.334 -12.5 -29.001c-28.667 -64 -57.167 -110.667 -85.5 -140s-62.666 -47.833 -102.999 -55.5s-92.833 -11.834 -157.5 -12.501c-18.667 0 -30.334 -3.16699 -35.001 -9.5s-7 -18.5 -7 -36.5
v-30c0 -16 3.66699 -25.667 11 -29s18.333 -5 33 -5h224c17.333 0 28 -3.33301 32 -10s6 -19 6 -37v-1021c0 -16.667 -2.5 -27.834 -7.5 -33.501s-16.5 -8.5 -34.5 -8.5h-258c-14.667 0 -25 -1.33301 -31 -4s-9 -11.334 -9 -26.001v-42z" />
    <glyph glyph-name="two" unicode="2" horiz-adv-x="1140" 
d="M1070 325c-0.666992 12 -2.33301 19.8301 -5 23.4971s-9.66699 5.5 -21 5.5h-41c-12.667 0 -20.167 -1.66699 -22.5 -5s-4.16602 -10.666 -5.49902 -21.999c-3.33301 -46 -18.333 -81.833 -45 -107.5s-69.334 -38.5 -128.001 -38.5
c-50.667 0 -95.334 7.33301 -134.001 22l-115.5 44c-38.333 14.667 -82.5 22 -132.5 22c-40 0 -75.833 -7.16699 -107.5 -21.5s-59.167 -33.166 -82.5 -56.499c-13.333 -14 -21.666 -27 -24.999 -39s-9.66602 -18 -18.999 -18c-5.33301 0 -7 3.16699 -5 9.5
s5.66699 14.833 11 25.5s10.333 22.334 15 35.001c26.667 67.333 68.834 133.333 126.501 198s134.5 124 230.5 178c70.667 40 136 80.5 196 121.5s112.167 83.833 156.5 128.5s78.666 92.5 102.999 143.5s36.5 106.5 36.5 166.5c0 130 -43.333 225.833 -130 287.5
s-200.667 92.5 -342 92.5c-98 0 -182.167 -17 -252.5 -51s-124.5 -78.333 -162.5 -133s-57 -112.667 -57 -174c0 -32 7 -57.667 21 -77s31.333 -33.333 52 -42s40.667 -13 60 -13c27.333 0 54 10.167 80 30.5s39 48.833 39 85.5c0 23.333 -4.66699 42 -14 56
s-20.333 25.667 -33 35s-23.667 18.333 -33 27s-14 18.667 -14 30c0 18 12.667 38.167 38 60.5s59.5 41.5 102.5 57.5s90.833 24 143.5 24c89.333 0 158.333 -22 207 -66s73 -110.667 73 -200c0 -56.667 -9.5 -108.5 -28.5 -155.5s-44.333 -89.5 -76 -127.5
s-66.167 -72.5 -103.5 -103.5s-74.666 -59.5 -111.999 -85.5c-139.333 -97.333 -245.333 -198.333 -318 -303s-111.334 -226.667 -116.001 -366c0 -9.33301 1.16699 -16.5 3.5 -21.5s8.83301 -7.5 19.5 -7.5h48c13.333 -0 22.333 2.83301 27 8.5s8.66699 12.834 12 21.501
c10 21.333 23.5 38.333 40.5 51s40.167 19 69.5 19c36.667 0 72.834 -6 108.501 -18s72.667 -26 111 -42s79.666 -30 123.999 -42s93.166 -18 146.499 -18c58 0 108.833 10.5 152.5 31.5s77.167 56.667 100.5 107s32.333 119.166 27 206.499z" />
    <glyph glyph-name="three" unicode="3" horiz-adv-x="1060" 
d="M50 298c0 -54.667 16.501 -106.157 49.501 -154.49s83 -87.666 150 -117.999s151.167 -45.5 252.5 -45.5c75.333 0 142.666 10.333 201.999 31s109.5 49.5 150.5 86.5s72.167 79.667 93.5 128s32 99.833 32 154.5c0 77.333 -17.5 148.5 -52.5 213.5
s-102.167 114.833 -201.5 149.5c-20.667 7.33301 -39.167 11.666 -55.5 12.999s-24.5 6 -24.5 14c0 11.333 5 17.166 15 17.499s33.667 9.16602 71 26.499c58 27.333 101.833 61 131.5 101s49.834 83.167 60.501 129.5s16 92.166 16 137.499
c0 80 -20.833 144.833 -62.5 194.5s-94.5 86 -158.5 109s-129.667 34.5 -197 34.5c-94.667 0 -172.334 -15 -233.001 -45s-105.667 -69 -135 -117s-44 -99.333 -44 -154c0 -32 6.66699 -57.667 20 -77s29.833 -33.333 49.5 -42s39.167 -13 58.5 -13
c27.333 0 53.166 10.167 77.499 30.5s36.5 48.833 36.5 85.5c0 18 -3.16699 32.667 -9.5 44s-13.833 21.166 -22.5 29.499s-16.167 16.666 -22.5 24.999s-9.5 18.166 -9.5 29.499c0 27.333 16.333 54.166 49 80.499s81 39.5 145 39.5c89.333 0 154.333 -23.833 195 -71.5
s61 -108.5 61 -182.5c0 -28.667 -2.16699 -61.5 -6.5 -98.5s-14.833 -73.333 -31.5 -109s-42.834 -67 -78.501 -94s-84.834 -45.167 -147.501 -54.5c-14.667 -2 -29 -2.66699 -43 -2s-25.333 -1.5 -34 -6.5s-13 -17.5 -13 -37.5v-18c0 -19.333 4.33301 -31.666 13 -36.999
s19.834 -7.5 33.501 -6.5s28.167 0.5 43.5 -1.5c86 -10.667 150.833 -34.334 194.5 -71.001s72.834 -79 87.501 -127s22 -94.333 22 -139c0 -49.333 -9.5 -98.333 -28.5 -147s-50.167 -89 -93.5 -121s-101.333 -48 -174 -48c-56 0 -102.833 6.33301 -140.5 19
s-66 28.5 -85 47.5s-28.5 37.5 -28.5 55.5c0 11.333 3.16699 21.166 9.5 29.499s13.833 16.666 22.5 24.999s16.167 18.166 22.5 29.499s9.5 26 9.5 44c0 37.333 -12.167 66 -36.5 86s-50.166 30 -77.499 30c-28.667 0 -57.167 -10 -85.5 -30s-42.5 -54 -42.5 -102z" />
    <glyph glyph-name="four" unicode="4" horiz-adv-x="1080" 
d="M1030 84c0 12.667 -2.66309 20.1631 -7.99609 22.4961s-14.333 3.5 -27 3.5h-77c-16 0 -26.333 2.16699 -31 6.5s-7 14.166 -7 29.499v275c0 14.667 2 24.834 6 30.501s13.667 8.5 29 8.5h109c14 0 23.5 1.66699 28.5 5s7.5 11.666 7.5 24.999v45
c0 14 -1.83301 23.333 -5.5 28s-12.167 7 -25.5 7h-107c-18.667 0 -30.334 2.66699 -35.001 8s-7 17.333 -7 36v325c0 12 -1 20.167 -3 24.5s-9.66699 6.5 -23 6.5h-6c-12.667 0 -19.667 -3.16699 -21 -9.5s-3.66602 -13.833 -6.99902 -22.5
c-14.667 -44.667 -30 -80.167 -46 -106.5s-35.667 -48.5 -59 -66.5c-8.66699 -6.66699 -15 -11.667 -19 -15s-6 -13.333 -6 -30v-125c0 -10 -0.333008 -16.667 -1 -20s-6.33398 -5 -17.001 -5h-392c-18.667 0 -32.5 1.83301 -41.5 5.5s-13.5 9.16699 -13.5 16.5s3 16 9 26
c31.333 51.333 73.166 100.333 125.499 147s108.5 93.834 168.5 141.501s118 98.334 174 152.001s104 113.167 144 178.5s65.333 139.333 76 222c2.66699 18.667 1.16699 30.167 -4.5 34.5s-18.834 6.5 -39.501 6.5h-109c-20.667 0 -31.667 -5 -33 -15s-4 -22.667 -8 -38
c-20.667 -79.333 -51.667 -150.666 -93 -213.999s-88.166 -122.166 -140.499 -176.499l-159.5 -159c-54 -51.667 -104 -105.167 -150 -160.5s-83 -116 -111 -182c-5.33301 -13.333 -8.5 -23 -9.5 -29s3.16699 -13.667 12.5 -23l26 -26c7.33301 -6.66699 14 -11.167 20 -13.5
s16.333 -3.5 31 -3.5h503c15.333 0 24.666 -2.5 27.999 -7.5s5 -15.167 5 -30.5v-287c0 -10 -2 -16.667 -6 -20s-11.333 -5 -22 -5h-132c-12.667 0 -20.834 -2.16699 -24.501 -6.5s-5.5 -13.166 -5.5 -26.499v-45c0 -13.333 2.16699 -22 6.5 -26s12.833 -6 25.5 -6h467
c12 0 20.167 1.5 24.5 4.5s6.5 10.167 6.5 21.5v58z" />
    <glyph glyph-name="five" unicode="5" horiz-adv-x="1030" 
d="M60 278c0 -54.667 15.667 -104.505 47 -149.505s76.333 -81 135 -108s128.667 -40.5 210 -40.5c94 0 180.333 22.5 259 67.5s141.5 106.667 188.5 185s70.5 167.5 70.5 267.5c0 93.333 -17.167 177.833 -51.5 253.5s-86.5 135.667 -156.5 180s-158.667 66.5 -266 66.5
c-54 0 -99.5 -6 -136.5 -18s-68.167 -28 -93.5 -48c-18 -14 -30 -25.5 -36 -34.5s-12.333 -12.167 -19 -9.5c-4 2 -4.33301 9.16699 -1 21.5s6.33301 30.5 9 54.5l42 322c2 14 6.33301 22.833 13 26.5s17.334 5.5 32.001 5.5h44c118.667 0 212.5 1.83301 281.5 5.5
s121 11.334 156 23.001s59.667 29.667 74 54s25.833 56.833 34.5 97.5l12 50c2.66699 9.33301 -2 14 -14 14h-57c-12.667 0 -21 -3.33301 -25 -10s-8.66699 -12.667 -14 -18c-20 -22 -40.833 -35.167 -62.5 -39.5s-52.167 -4.83301 -91.5 -1.5s-96 5 -170 5h-246
c-16.667 0 -27.834 -2.5 -33.501 -7.5s-9.5 -15.167 -11.5 -30.5l-83 -644c-2 -14.667 -2 -25.667 0 -33s12.333 -11 31 -11h42c19.333 0 32.333 2.5 39 7.5s14 12.167 22 21.5c31.333 38 64.666 64 99.999 78s81.333 21 138 21c59.333 0 111.166 -18.167 155.499 -54.5
s78.833 -87.666 103.5 -153.999s37 -144.166 37 -233.499c0 -69.333 -14.167 -134.166 -42.5 -194.499s-67.833 -109 -118.5 -146s-109 -55.5 -175 -55.5c-54 0 -99.833 10.333 -137.5 31s-56.5 44.334 -56.5 71.001c0 15.333 5.33301 28 16 38s21.334 21.5 32.001 34.5
s16 31.5 16 55.5c0 37.333 -12.167 66 -36.5 86s-50.166 30 -77.499 30c-28.667 0 -57.167 -10 -85.5 -30s-42.5 -54 -42.5 -102z" />
    <glyph glyph-name="six" unicode="6" 
d="M746 1382c0 -8.66699 -4.00391 -17.332 -12.0039 -25.999s-16 -19.834 -24 -33.501s-12 -32.5 -12 -56.5c0 -36.667 12.333 -65.167 37 -85.5s50.334 -30.5 77.001 -30.5c29.333 0 58 10 86 30s42 54 42 102c0 54.667 -14.667 99.5 -44 134.5s-67.666 61 -114.999 78
s-98.333 25.5 -153 25.5c-107.333 0 -200.5 -31.667 -279.5 -95s-140.167 -153.333 -183.5 -270s-65 -255 -65 -415c0 -142.667 9.83301 -262.667 29.5 -360s49.334 -175.333 89.001 -234s89.334 -101 149.001 -127s129.834 -39 210.501 -39
c70.667 0 134.334 10.5 191.001 31.5s105.167 52.167 145.5 93.5s71.333 92.5 93 153.5s32.5 131.5 32.5 211.5c0 110 -18.5 201.167 -55.5 273.5s-86.5 126.5 -148.5 162.5s-130 54 -204 54c-66 0 -124 -10.833 -174 -32.5s-91.667 -51.167 -125 -88.5
c-8.66699 -9.33301 -14.667 -17 -18 -23s-7 -8 -11 -6c-3.33301 2 -4.5 6.66699 -3.5 14s1.83301 19.333 2.5 36c5.33301 114.667 19.666 215.167 42.999 301.5s58.5 153.666 105.5 201.999s109.167 72.5 186.5 72.5c39.333 0 67.166 -5.66699 83.499 -17
s24.5 -23.666 24.5 -36.999zM839.996 470.002c0 -72.667 -7.83203 -139.333 -23.499 -200s-41.167 -109.167 -76.5 -145.5s-82.666 -54.5 -141.999 -54.5c-98.667 0 -173 44.5 -223 133.5s-75 207.833 -75 356.5c0 53.333 12.5 103 37.5 149s59.167 83 102.5 111
s92.666 42 147.999 42c79.333 0 141.166 -36.833 185.499 -110.5s66.5 -167.5 66.5 -281.5z" />
    <glyph glyph-name="seven" unicode="7" horiz-adv-x="1048" 
d="M80 1162c0 -7.33301 1.8291 -11.833 5.49609 -13.5s9.16699 -2.5 16.5 -2.5h56c7.33301 0 11.833 1.5 13.5 4.5s2.5 8.16699 2.5 15.5c2 57.333 16.333 99.666 43 126.999s70.334 41 131.001 41c38 0 69.667 -3.5 95 -10.5s49.666 -14.833 72.999 -23.5
s50.666 -16.5 81.999 -23.5s72 -10.5 122 -10.5c18 0 34.667 0.833008 50 2.5s29.333 4.5 42 8.5c10.667 3.33301 19 8 25 14s10.333 7.66699 13 5s1.83398 -7.66699 -2.49902 -15s-9.16602 -16.333 -14.499 -27c-36.667 -78.667 -80.334 -162.334 -131.001 -251.001
s-98.667 -169 -144 -241c-44 -69.333 -79.5 -136.166 -106.5 -200.499s-46.667 -127.166 -59 -188.499s-18.5 -121.666 -18.5 -180.999c0 -68.667 12.333 -121.167 37 -157.5s56.334 -54.5 95.001 -54.5c29.333 0 53.5 6.16699 72.5 18.5s33 28.833 42 49.5
s13.5 43.334 13.5 68.001c0 23.333 -3.33301 43.666 -10 60.999s-14.334 35 -23.001 53s-16.334 39 -23.001 63s-10 54.333 -10 91c0 29.333 2.66699 59 8 89s15.666 65.667 30.999 107s38.333 93.333 69 156c32 65.333 67 133.166 105 203.499l109.5 206.5
c35 67.333 64.833 129.333 89.5 186s40 103.667 46 141c1.33301 10.667 1.83301 17.834 1.5 21.501s-6.16602 5.5 -17.499 5.5h-69c-9.33301 0 -15.166 -1.16699 -17.499 -3.5s-4.83301 -6.83301 -7.5 -13.5c-10 -24.667 -24.167 -44.667 -42.5 -60s-46.166 -23 -83.499 -23
c-41.333 0 -78.166 6 -110.499 18s-63.666 26 -93.999 42s-63.333 30 -99 42s-77.834 18 -126.501 18c-58 0 -107.667 -10.667 -149 -32s-73.166 -57.833 -95.499 -109.5s-34.166 -123.834 -35.499 -216.501z" />
    <glyph glyph-name="eight" unicode="8" horiz-adv-x="1060" 
d="M270 420c0 56 9.33301 110.833 28 164.5s47.167 98 85.5 133s87.166 52.5 146.499 52.5s108.166 -17.5 146.499 -52.5s66.833 -79.333 85.5 -133s28 -108.5 28 -164.5s-9.33301 -110.833 -28 -164.5s-47.167 -98 -85.5 -133s-87.166 -52.5 -146.499 -52.5
s-108.166 17.5 -146.499 52.5s-66.833 79.333 -85.5 133s-28 108.5 -28 164.5zM120 1140c0 -74.667 18.3359 -137.668 55.0029 -189.001s86.334 -90.666 149.001 -117.999c15.333 -6.66699 27.166 -11.334 35.499 -14.001s12.5 -6.33398 12.5 -11.001
s-5.33301 -8.83398 -16 -12.501s-20.667 -7.5 -30 -11.5c-79.333 -30.667 -141.833 -77.167 -187.5 -139.5s-68.5 -137.166 -68.5 -224.499c0 -80 18.667 -153.333 56 -220s90.5 -120 159.5 -160s150.5 -60 244.5 -60s175.5 20 244.5 60s122.167 93.333 159.5 160
s56 140 56 220c0 89.333 -23.667 166.5 -71 231.5s-111.666 112.5 -192.999 142.5c-11.333 4 -19.333 7.16699 -24 9.5s-7 4.83301 -7 7.5c0 3.33301 3 5.83301 9 7.5s14 4.5 24 8.5c65.333 26.667 117 66.334 155 119.001s57 117.334 57 194.001
c0 73.333 -17.333 138.666 -52 195.999s-82.834 102.333 -144.501 135s-132.834 49 -213.501 49s-151.834 -16.333 -213.501 -49s-109.834 -77.667 -144.501 -135s-52 -122.666 -52 -195.999zM320.003 1140c0 49.333 8 96.166 24 140.499s39.5 80.333 70.5 108
s69.5 41.5 115.5 41.5s84.5 -13.833 115.5 -41.5s54.5 -63.667 70.5 -108s24 -91.166 24 -140.499s-8 -96.166 -24 -140.499s-39.5 -80.333 -70.5 -108s-69.5 -41.5 -115.5 -41.5s-84.5 13.833 -115.5 41.5s-54.5 63.667 -70.5 108s-24 91.166 -24 140.499z" />
    <glyph glyph-name="nine" unicode="9" 
d="M354 118c0 8.66699 4.00391 17.3311 12.0039 25.998s16 19.834 24 33.501s12 32.5 12 56.5c0 37.333 -12.333 66 -37 86s-50.334 30 -77.001 30c-29.333 0 -58 -10 -86 -30s-42 -54 -42 -102c0 -54.667 14.667 -99.5 44 -134.5s67.666 -61 114.999 -78
s98.333 -25.5 153 -25.5c107.333 0 200.5 31.667 279.5 95s140.167 153.333 183.5 270s65 255 65 415c0 142.667 -9.83301 262.667 -29.5 360s-49.334 175.333 -89.001 234s-89.334 101 -149.001 127s-129.834 39 -210.501 39c-70.667 0 -134.334 -10.5 -191.001 -31.5
s-105.167 -52.167 -145.5 -93.5s-71.333 -92.5 -93 -153.5s-32.5 -131.5 -32.5 -211.5c0 -110 18.5 -201.167 55.5 -273.5s86.5 -126.5 148.5 -162.5s130 -54 204 -54c66 0 124 11 174 33s91.667 51.333 125 88c8.66699 9.33301 14.667 17 18 23s7 8 11 6
c3.33301 -2 4.5 -6.66699 3.5 -14s-1.83301 -19.333 -2.5 -36c-5.33301 -114 -19.666 -214.333 -42.999 -301s-58.5 -154.167 -105.5 -202.5s-109.167 -72.5 -186.5 -72.5c-39.333 0 -67.166 5.83301 -83.499 17.5s-24.5 23.834 -24.5 36.501zM260.004 1030
c0 72.667 7.83203 139.333 23.499 200s41.167 109.167 76.5 145.5s82.666 54.5 141.999 54.5c99.333 0 173.833 -44.333 223.5 -133s74.5 -207.667 74.5 -357c0 -53.333 -12.5 -103 -37.5 -149s-59.167 -83 -102.5 -111s-92.666 -42 -147.999 -42
c-79.333 0 -141.166 36.833 -185.499 110.5s-66.5 167.5 -66.5 281.5z" />
    <glyph glyph-name="colon" unicode=":" horiz-adv-x="470" 
d="M115 940c0 -22 5.5 -42.167 16.5 -60.5s25.5 -32.833 43.5 -43.5s38 -16 60 -16s42.167 5.33301 60.5 16s32.833 25.167 43.5 43.5s16 38.5 16 60.5s-5.33301 42 -16 60s-25.167 32.5 -43.5 43.5s-38.5 16.5 -60.5 16.5s-42 -5.5 -60 -16.5s-32.5 -25.5 -43.5 -43.5
s-16.5 -38 -16.5 -60zM115 100c0 -22 5.5 -42.167 16.5 -60.5s25.5 -32.833 43.5 -43.5s38 -16 60 -16s42.167 5.33301 60.5 16s32.833 25.167 43.5 43.5s16 38.5 16 60.5s-5.33301 42 -16 60s-25.167 32.5 -43.5 43.5s-38.5 16.5 -60.5 16.5s-42 -5.5 -60 -16.5
s-32.5 -25.5 -43.5 -43.5s-16.5 -38 -16.5 -60z" />
    <glyph glyph-name="semicolon" unicode=";" horiz-adv-x="508" 
d="M115 940c0 -22 5.5 -42.167 16.5 -60.5s25.5 -32.833 43.5 -43.5s38 -16 60 -16s42.167 5.33301 60.5 16s32.833 25.167 43.5 43.5s16 38.5 16 60.5s-5.33301 42 -16 60s-25.167 32.5 -43.5 43.5s-38.5 16.5 -60.5 16.5s-42 -5.5 -60 -16.5s-32.5 -25.5 -43.5 -43.5
s-16.5 -38 -16.5 -60zM119 98c0 -32.667 9.49805 -60.498 28.498 -83.498s44.833 -34.5 77.5 -34.5c10.667 0 19.834 0.666992 27.501 2s15.5 4.66602 23.5 9.99902c5.33301 3.33301 10.166 6 14.499 8s6.83301 -1 7.5 -9c4 -38 -1 -73 -15 -105s-33.667 -58.167 -59 -78.5
s-53.333 -32.833 -84 -37.5c-7.33301 -0.666992 -13.333 -2.33398 -18 -5.00098s-7 -8.66699 -7 -18v-43c0 -8.66699 2 -13.5 6 -14.5s9.66699 -1.16699 17 -0.5c41.333 4 77.833 16.333 109.5 37s58.334 46.667 80.001 78s38 64.833 49 100.5s16.5 70.167 16.5 103.5
c0 73.333 -13.5 126.333 -40.5 159s-60.167 49 -99.5 49c-25.333 0 -48.166 -5.16699 -68.499 -15.5s-36.333 -24.5 -48 -42.5s-17.5 -38 -17.5 -60z" />
    <glyph glyph-name="less" unicode="&#x3c;" horiz-adv-x="1120" 
d="M296 752c-16.667 6.66699 -28.5 11.001 -35.5 13.001s-10.5 5.66699 -10.5 11s4.16699 9 12.5 11s20.166 6 35.499 12l666 257c12.667 5.33301 21.834 11.5 27.501 18.5s8.5 19.833 8.5 38.5v46c0 17.333 -2.5 27.666 -7.5 30.999s-13.833 2.33301 -26.5 -3l-812 -314
c-14.667 -5.33301 -24 -10.166 -28 -14.499s-6 -17.166 -6 -38.499v-80c0 -20.667 1.66699 -34.834 5 -42.501s12.333 -14.167 27 -19.5l804 -311c13.333 -4.66699 24 -6.83398 32 -6.50098s12 11.833 12 34.5v42c0 20 -2.83301 33.333 -8.5 40s-15.5 12.667 -29.5 18z" />
    <glyph glyph-name="equal" unicode="=" horiz-adv-x="1120" 
d="M157 980c-14 0 -23.667 -1.83203 -29 -5.49902s-8 -11.167 -8 -22.5v-52c0 -12.667 1.66699 -20.834 5 -24.501s13 -5.5 29 -5.5h810c16.667 0 26.834 2.5 30.501 7.5s5.5 13.5 5.5 25.5v49c0 12 -1.83301 19.667 -5.5 23s-12.834 5 -27.501 5h-810zM157 680.001
c-14 0 -23.667 -1.83203 -29 -5.49902s-8 -11.167 -8 -22.5v-52c0 -12.667 1.66699 -20.834 5 -24.501s13 -5.5 29 -5.5h810c16.667 0 26.834 2.5 30.501 7.5s5.5 13.5 5.5 25.5v49c0 12 -1.83301 19.667 -5.5 23s-12.834 5 -27.501 5h-810z" />
    <glyph glyph-name="greater" unicode="&#x3e;" horiz-adv-x="1120" 
d="M824 798c16.667 -6.66699 28.5 -11.001 35.5 -13.001s10.5 -5.66699 10.5 -11s-4.16699 -9 -12.5 -11s-20.166 -6 -35.499 -12l-666 -257c-12.667 -4.66699 -21.834 -10.667 -27.501 -18s-8.5 -20.333 -8.5 -39v-46c0 -16.667 2.5 -26.667 7.5 -30
s13.833 -2.66602 26.5 2.00098l812 314c14.667 5.33301 24 10.333 28 15s6 17.334 6 38.001v80c0 20.667 -1.66699 34.834 -5 42.501s-12.333 14.167 -27 19.5l-804 311c-13.333 5.33301 -24 7.66602 -32 6.99902s-12 -12.334 -12 -35.001v-42
c0 -20 2.83301 -33.333 8.5 -40s15.5 -12.667 29.5 -18z" />
    <glyph glyph-name="question" unicode="?" 
d="M298 1324c0 22 16.3359 46.167 49.0029 72.5s91 39.5 175 39.5c66 0 119.333 -14.333 160 -43s70.167 -65.667 88.5 -111s27.5 -92.666 27.5 -141.999c0 -96.667 -29.833 -183.334 -89.5 -260.001s-138.167 -133 -235.5 -169
c-14.667 -5.33301 -24.834 -11.333 -30.501 -18s-8.5 -20.667 -8.5 -42v-196c0 -17.333 3 -27.833 9 -31.5s17.667 -5.5 35 -5.5h37c15.333 0 25.666 1.83301 30.999 5.5s8 12.834 8 27.501v136c0 21.333 3.83301 34.5 11.5 39.5s19.5 9.5 35.5 13.5
c82 21.333 152.833 55.5 212.5 102.5s105.667 101.833 138 164.5s48.5 127 48.5 193c0 86.667 -17.5 161.334 -52.5 224.001s-87.833 111 -158.5 145s-159.667 51 -267 51c-94.667 0 -174 -16.833 -238 -50.5s-112.333 -76.334 -145 -128.001s-49 -104.834 -49 -159.501
c0 -32 6.33301 -58.5 19 -79.5s29.167 -36.667 49.5 -47s42.166 -15.5 65.499 -15.5s45.333 4.16699 66 12.5s37.5 21.333 50.5 39s19.5 40.5 19.5 68.5c0 25.333 -3.16699 45.5 -9.5 60.5s-13.5 27.333 -21.5 37s-15.167 19.5 -21.5 29.5s-9.5 22.333 -9.5 37zM413.003 100
c0 -22 5.5 -42.167 16.5 -60.5s25.5 -32.833 43.5 -43.5s38 -16 60 -16s42.167 5.33301 60.5 16s32.833 25.167 43.5 43.5s16 38.5 16 60.5s-5.33301 42 -16 60s-25.167 32.5 -43.5 43.5s-38.5 16.5 -60.5 16.5s-42 -5.5 -60 -16.5s-32.5 -25.5 -43.5 -43.5
s-16.5 -38 -16.5 -60z" />
    <glyph glyph-name="at" unicode="@" horiz-adv-x="2120" 
d="M1328 692c0 -64 -9.66699 -123.168 -29 -177.501s-44.333 -101.833 -75 -142.5s-63.334 -72.167 -98.001 -94.5s-67.334 -33.5 -98.001 -33.5c-64 0 -106.333 22.667 -127 68s-31 101.333 -31 168c0 62 8.5 121.5 25.5 178.5s39.667 107.833 68 152.5s60.333 80 96 106
s71.834 39 108.501 39c33.333 0 60.333 -9.5 81 -28.5s36.834 -43 48.501 -72s19.667 -58.167 24 -87.5s6.5 -54.666 6.5 -75.999zM1640 -161.001c12 12.667 19.6611 21.665 22.9941 26.998s-1.33398 14.333 -14.001 27l-29 29c-16 16 -26.667 22.5 -32 19.5
s-15.666 -12.167 -30.999 -27.5c-57.333 -56 -117.333 -101 -180 -135s-126.5 -58.667 -191.5 -74s-130.167 -23 -195.5 -23c-72 0 -146 12.5 -222 37.5s-146.333 67 -211 126s-117 138.833 -157 239.5s-60 226.334 -60 377.001c0 136 21.833 264.833 65.5 386.5
s104.834 229.5 183.501 323.5s170.334 167.833 275.001 221.5s218 80.5 340 80.5c92 0 179 -15.667 261 -47s154.333 -75.333 217 -132s112 -122.834 148 -198.501s54 -157.834 54 -246.501c0 -76.667 -9 -150.167 -27 -220.5s-43.333 -133 -76 -188
s-70.667 -98.333 -114 -130s-90.333 -47.5 -141 -47.5c-23.333 0 -40.333 6.66699 -51 20s-17 29.333 -19 48s-2 36.334 0 53.001s3.33301 28.334 4 35.001l131 566c5.33301 20.667 5.66602 34.834 0.999023 42.501s-18.667 11.5 -42 11.5h-91
c-14.667 0 -24.667 -2.16699 -30 -6.5s-9.33301 -12.166 -12 -23.499l-24 -105c-7.33301 -32 -12.666 -46.833 -15.999 -44.5s-12 19.5 -26 51.5c-20 46 -48 81.833 -84 107.5s-79.667 38.5 -131 38.5c-47.333 0 -93.833 -11 -139.5 -33s-88.334 -52.333 -128.001 -91
s-74.5 -83.334 -104.5 -134.001s-53.5 -105 -70.5 -163s-25.5 -117 -25.5 -177c0 -69.333 14 -127.833 42 -175.5s64.833 -83.667 110.5 -108s94.834 -36.5 147.501 -36.5c44.667 0 89 11.5 133 34.5s84.667 55.167 122 96.5c24.667 27.333 39.334 38.833 44.001 34.5
s12 -17.166 22 -38.499c16.667 -34.667 39.834 -64.5 69.501 -89.5s70.834 -37.5 123.501 -37.5c85.333 0 160.833 21.167 226.5 63.5s120.834 98.166 165.501 167.499s78.5 145.166 101.5 227.499s34.5 163.5 34.5 243.5c0 91.333 -18.167 180.833 -54.5 268.5
s-90 166.834 -161 237.501s-158.667 127 -263 169s-224.833 63 -361.5 63c-109.333 0 -215.166 -18 -317.499 -54s-197.166 -87.5 -284.499 -154.5s-163.833 -147.333 -229.5 -241s-116.834 -198.5 -153.501 -314.5s-55 -240.667 -55 -374s18.5 -248.833 55.5 -346.5
s85.667 -180.167 146 -247.5s126.5 -121.166 198.5 -161.499s143.667 -69.5 215 -87.5s135.666 -27 192.999 -27c153.333 0 288 22.667 404 68s215.333 111.666 298 198.999z" />
    <glyph glyph-name="A" unicode="A" horiz-adv-x="1720" 
d="M816 1262c7.33301 17.333 12.668 25.667 16.001 25s8.66602 -11 15.999 -31l248 -660c8 -21.333 11.333 -34.333 10 -39s-17.333 -7 -48 -7h-506c-18 0 -28.333 1.66699 -31 5s-1.66699 11 3 23zM0.00195312 42.001c0 -20 3.66699 -32 11 -36s20.333 -6 39 -6h478
c16 0 25.333 1.33301 28 4s4 12 4 28v48c0 12.667 -2.33301 20.834 -7 24.501s-13 5.5 -25 5.5h-151c-22 0 -34.333 4 -37 12s-0.666992 20 6 36l103 242c6.66699 15.333 13.834 25.833 21.501 31.5s22.834 8.5 45.501 8.5h580c32 0 51 -3.33301 57 -10
s13.333 -21.334 22 -44.001l90 -240c3.33301 -9.33301 5.33301 -17.666 6 -24.999s-7 -11 -23 -11h-152c-12.667 0 -21.834 -1.83301 -27.501 -5.5s-8.5 -12.5 -8.5 -26.5v-46c0 -14.667 3.16699 -23.667 9.5 -27s15.833 -5 28.5 -5h590c15.333 0 24.5 2 27.5 6
s4.5 13.667 4.5 29v44c0 13.333 -1.33301 21.833 -4 25.5s-10.667 5.5 -24 5.5h-158c-22.667 0 -36 3.33301 -40 10s-9.33301 18 -16 34l-543 1364c-2 5.33301 -4.83301 8.66602 -8.5 9.99902s-9.5 2 -17.5 2h-80c-6.66699 0 -11.334 -0.5 -14.001 -1.5s-5 -3.83301 -7 -8.5
l-593 -1370c-6 -14 -12.333 -24.167 -19 -30.5s-20.667 -9.5 -42 -9.5h-126c-10.667 0 -18 -1.83301 -22 -5.5s-6 -10.5 -6 -20.5v-42z" />
    <glyph glyph-name="B" unicode="B" horiz-adv-x="1495" 
d="M875 110l-344 -0.000976562c-17.333 0 -29.333 2.16699 -36 6.5s-10 14.833 -10 31.5v518c0 22.667 2.83301 37.334 8.5 44.001s19.167 10 40.5 10h341c57.333 0 110.333 -11.333 159 -34s87.667 -56.167 117 -100.5s44 -99.5 44 -165.5s-14.667 -122 -44 -168
s-68.333 -81.167 -117 -105.5s-101.667 -36.5 -159 -36.5zM534 829.999c-20 0 -33.167 1.83203 -39.5 5.49902s-9.5 15.167 -9.5 34.5v475c0 16.667 1.83301 28.334 5.5 35.001s13.5 10 29.5 10h335c50.667 0 98.834 -9.5 144.501 -28.5s83 -49.167 112 -90.5
s43.5 -95 43.5 -161s-14.5 -119.5 -43.5 -160.5s-66.333 -71.167 -112 -90.5s-93.834 -29 -144.501 -29h-321zM895 -0.00195312c107.333 0 199.833 14.166 277.5 42.499s137.5 73.333 179.5 135s63 142.5 63 242.5c0 95.333 -25.333 170.833 -76 226.5
s-121.667 95.5 -213 119.5c-12 3.33301 -18.333 7.66602 -19 12.999s6.33301 10 21 14c74.667 21.333 131.167 57.833 169.5 109.5s57.5 120.834 57.5 207.501s-20.667 158.834 -62 216.501s-99.5 101 -174.5 130s-162.833 43.5 -263.5 43.5h-747
c-12.667 0 -21.334 -2 -26.001 -6s-7 -12.667 -7 -26v-42c0 -16.667 2.66699 -26.834 8 -30.501s16.333 -5.5 33 -5.5h134c18.667 0 30.834 -1.83301 36.501 -5.5s8.5 -14.5 8.5 -32.5v-1212c0 -13.333 -3.16699 -21.666 -9.5 -24.999s-16.5 -5 -30.5 -5h-143
c-14 0 -23.667 -1.83301 -29 -5.5s-8 -13.167 -8 -28.5v-44c0 -15.333 3 -24.5 9 -27.5s16.667 -4.5 32 -4.5h779z" />
    <glyph glyph-name="C" unicode="C" horiz-adv-x="1620" 
d="M110 750c0 -111.333 17.8311 -214.001 53.498 -308.001s86.167 -175.5 151.5 -244.5s142.5 -122.5 231.5 -160.5s186.833 -57 293.5 -57c134 0 249.333 26 346 78s172.667 123 228 213s87 191.667 95 305c0.666992 6.66699 -0.833008 10.667 -4.5 12s-9.16699 2 -16.5 2
h-70c-6.66699 0 -11.5 -1.16699 -14.5 -3.5s-4.83301 -6.5 -5.5 -12.5c-8.66699 -79.333 -35.167 -155.5 -79.5 -228.5s-105 -132.5 -182 -178.5s-169.167 -69 -276.5 -69c-116 0 -212.5 29 -289.5 87s-134.667 136.333 -173 235s-57.5 208.667 -57.5 330
s20.833 231.5 62.5 330.5s102.667 177.667 183 236s178.5 87.5 294.5 87.5c91.333 0 172.166 -18.667 242.499 -56s127.333 -85.333 171 -144s71.167 -120.334 82.5 -185.001c2 -10.667 3.33301 -18.167 4 -22.5s7.33398 -6.5 20.001 -6.5h61c11.333 0 19 1.66699 23 5
s6 10.333 6 21v475c0 8 -1.16699 13.167 -3.5 15.5s-7.83301 3.5 -16.5 3.5h-54c-9.33301 0 -14.666 -1.16699 -15.999 -3.5s-3 -7.16602 -5 -14.499l-42 -143c-5.33301 -18.667 -10.666 -28.667 -15.999 -30s-13 3.33398 -23 14.001
c-50.667 53.333 -113.167 97.833 -187.5 133.5s-159.833 53.5 -256.5 53.5c-101.333 0 -197.666 -19 -288.999 -57s-172.333 -91.5 -243 -160.5s-126.334 -150.5 -167.001 -244.5s-61 -196.667 -61 -308z" />
    <glyph glyph-name="D" unicode="D" horiz-adv-x="1645" 
d="M75 34c0 -14 2.16602 -23.168 6.49902 -27.501s13.833 -6.5 28.5 -6.5h705c106.667 0 204 18.833 292 56.5s164 90.5 228 158.5s113.333 147.5 148 238.5s52 189.833 52 296.5s-16.5 205.5 -49.5 296.5s-80.667 170.5 -143 238.5s-138 120.833 -227 158.5
s-189.167 56.5 -300.5 56.5h-685c-15.333 0 -28.333 -1.66699 -39 -5s-16 -11.333 -16 -24v-45c0 -17.333 4.33301 -27.666 13 -30.999s23.334 -5 44.001 -5h128c17.333 0 27.5 -3 30.5 -9s4.5 -17.667 4.5 -35v-1196c0 -15.333 -1.33301 -25.833 -4 -31.5
s-11.667 -8.5 -27 -8.5h-154c-15.333 0 -25 -2.33301 -29 -7s-6 -15 -6 -31v-38zM525.999 109.999c-16.667 0 -27.667 1.66699 -33 5s-8 13 -8 29v1202c0 19.333 2.5 31.5 7.5 36.5s16.833 7.5 35.5 7.5h287c116 0 210 -28 282 -84s124.667 -132.333 158 -229
s50 -205.667 50 -327s-15.333 -230.333 -46 -327s-81.667 -173 -153 -229s-168.333 -84 -291 -84h-289z" />
    <glyph glyph-name="E" unicode="E" horiz-adv-x="1515" 
d="M246 1390c20.667 0 33.999 -1.83008 39.999 -5.49707s9 -15.834 9 -36.501v-1182c0 -24.667 -2.83301 -40.167 -8.5 -46.5s-20.834 -9.5 -45.501 -9.5h-130c-13.333 0 -22.666 -1.33301 -27.999 -4s-8 -10.667 -8 -24v-46c0 -16 3 -26 9 -30s16.333 -6 31 -6h1238
c13.333 0 22 2.16699 26 6.5s6 13.5 6 27.5v446c0 13.333 -3.16699 21.666 -9.5 24.999s-15.833 5 -28.5 5h-38c-8.66699 0 -14.834 -2 -18.501 -6s-5.5 -12.667 -5.5 -26c-1.33301 -96 -12 -170.667 -32 -224s-54.333 -90.666 -103 -111.999s-117 -32 -205 -32h-416
c-19.333 0 -31.5 2.66699 -36.5 8s-7.5 17.333 -7.5 36v538c0 18 2 29.833 6 35.5s14.667 8.5 32 8.5h132c53.333 0 96.833 -9 130.5 -27s59.167 -42.5 76.5 -73.5s27.666 -66.167 30.999 -105.5c1.33301 -15.333 4.66602 -24.833 9.99902 -28.5s11 -5.5 17 -5.5h33
c14.667 0 23.667 2.66699 27 8s5 16 5 32v480c0 11.333 -2.33301 19.166 -7 23.499s-12.667 6.5 -24 6.5h-33c-10 0 -16.667 -2 -20 -6s-5.66602 -12.667 -6.99902 -26c-4.66699 -58.667 -25.667 -106.334 -63 -143.001s-96 -55 -176 -55h-136c-16 0 -25.667 3.66699 -29 11
s-5 18.333 -5 33v486c0 19.333 2.83301 31.5 8.5 36.5s17.5 7.5 35.5 7.5h436c74.667 0 133.334 -9.83301 176.001 -29.5s73.5 -53 92.5 -100s29.5 -111.167 31.5 -192.5c0.666992 -12.667 2.5 -22.167 5.5 -28.5s11.833 -9.5 26.5 -9.5h40c17.333 0 26.333 2.66699 27 8
s1 16 1 32v382c0 23.333 -3.16699 37.166 -9.5 41.499s-21.166 6.5 -44.499 6.5h-1202c-14.667 0 -24 -2.5 -28 -7.5s-6 -15.167 -6 -30.5v-30c0 -15.333 1.83301 -26.166 5.5 -32.499s13.834 -9.5 30.501 -9.5h135z" />
    <glyph glyph-name="F" unicode="F" horiz-adv-x="1445" 
d="M266 1390c13.333 0 21.5039 -1.66895 24.5039 -5.00195s4.5 -11.666 4.5 -24.999v-1220c0 -11.333 -1.66699 -19.166 -5 -23.499s-10.666 -6.5 -21.999 -6.5h-166c-8.66699 0 -15.334 -0.833008 -20.001 -2.5s-7 -6.83398 -7 -15.501v-72c0 -10 1.66699 -15.833 5 -17.5
s10 -2.5 20 -2.5h592c12 0 20.5 1.83301 25.5 5.5s7.5 11.834 7.5 24.501v60c0 9.33301 -2.33301 15 -7 17s-11.667 3 -21 3h-174c-16.667 0 -27.167 2.66699 -31.5 8s-6.5 16 -6.5 32v509c0 14.667 1.5 24.5 4.5 29.5s11.5 7.5 25.5 7.5h160
c83.333 0 143.5 -17.333 180.5 -52s56.833 -83 59.5 -145c0.666992 -8.66699 1.66699 -14.667 3 -18s6.66602 -5 15.999 -5h52c9.33301 0 14.833 2.33301 16.5 7s2.5 11.334 2.5 20.001v479c0 11.333 -2.33301 18.166 -7 20.499s-12.667 3.5 -24 3.5h-34
c-16.667 0 -25 -3.5 -25 -10.5s-0.666992 -17.5 -2 -31.5c-6.66699 -54 -28.667 -95.5 -66 -124.5s-94.666 -43.5 -171.999 -43.5h-151c-16.667 0 -27.334 2.5 -32.001 7.5s-7 15.833 -7 32.5v517c0 11.333 2.5 20.333 7.5 27s13.833 10 26.5 10h426
c76.667 0 136.5 -10 179.5 -30s73.667 -54.333 92 -103s27.833 -116.334 28.5 -203.001c0 -9.33301 0.833008 -15.666 2.5 -18.999s7.5 -5 17.5 -5h52c9.33301 0 16.333 1 21 3s7 7.66699 7 17v421c0 11.333 -1.33301 19 -4 23s-9.33398 6 -20.001 6h-1231
c-6.66699 0 -10.834 -1.33301 -12.501 -4s-2.5 -7.66699 -2.5 -15v-69c0 -10 1.66699 -16.167 5 -18.5s9.66602 -3.5 18.999 -3.5h167z" />
    <glyph glyph-name="G" unicode="G" horiz-adv-x="1740" 
d="M1087 740c-15.333 0 -25.3271 -2.33008 -29.9941 -6.99707s-7 -15 -7 -31v-56c0 -16.667 2.66699 -26.834 8 -30.501s16.333 -5.5 33 -5.5h168c13.333 0 23.5 -1.5 30.5 -4.5s10.5 -12.167 10.5 -27.5v-178c0 -12.667 -0.833008 -23 -2.5 -31s-4.16699 -16.333 -7.5 -25
c-16.667 -39.333 -43.667 -78.666 -81 -117.999s-85.666 -71.833 -144.999 -97.5s-130.666 -38.5 -213.999 -38.5c-112.667 0 -206.834 29.667 -282.501 89s-132.5 139 -170.5 239s-57 210.667 -57 332s22.5 231.833 67.5 331.5s108.333 179 190 238
s177.167 88.5 286.5 88.5c115.333 0 207.166 -18.5 275.499 -55.5s119.166 -84.667 152.499 -143s54.666 -119.5 63.999 -183.5c2 -14.667 5 -24.334 9 -29.001s14.667 -7 32 -7h48c11.333 0 18.333 4.66699 21 14s4 19.333 4 30v440c0 8.66699 -2.5 15.167 -7.5 19.5
s-11.5 6.5 -19.5 6.5h-44c-8.66699 0 -15 -3.66699 -19 -11s-7.66699 -15.666 -11 -24.999l-32 -100c-4.66699 -16 -9.5 -25.333 -14.5 -28s-13.167 1.66602 -24.5 12.999c-50.667 53.333 -112.834 95.166 -186.501 125.499s-160.834 45.5 -261.501 45.5
c-101.333 0 -197.666 -19 -288.999 -57s-172.333 -91.5 -243 -160.5s-126.334 -150.5 -167.001 -244.5s-61 -196.667 -61 -308s18.333 -214 55 -308s88 -175.5 154 -244.5s143.333 -122.5 232 -160.5s185 -57 289 -57s195.167 12.667 273.5 38s144.666 58.5 198.999 99.5
s97.166 85.667 128.499 134s52.333 95.166 63 140.499c3.33301 13.333 5.16602 27.5 5.49902 42.5s0.5 30.833 0.5 47.5v90c0 15.333 1.83301 25.5 5.5 30.5s12.834 7.5 27.501 7.5h130c15.333 0 25.333 2 30 6s7 13.333 7 28v50c0 21.333 -3.16699 34.333 -9.5 39
s-19.5 7 -39.5 7h-574z" />
    <glyph glyph-name="H" unicode="H" horiz-adv-x="1770" 
d="M485 1347c0 18 2.33203 29.668 6.99902 35.001s15.334 8 32.001 8h164c15.333 0 25.333 2.33301 30 7s7 15 7 31v40c0 14.667 -3.33301 23.667 -10 27s-16.667 5 -30 5h-570c-14.667 0 -25 -2.33301 -31 -7s-9 -15 -9 -31v-26c0 -17.333 1.66699 -29.333 5 -36
s13.333 -10 30 -10h146c15.333 0 25.666 -2.5 30.999 -7.5s8 -15.5 8 -31.5v-1207c0 -16 -2.83301 -25.667 -8.5 -29s-16.5 -5 -32.5 -5h-138c-17.333 0 -28.5 -2.5 -33.5 -7.5s-7.5 -16.5 -7.5 -34.5v-28c0 -17.333 2.5 -28.333 7.5 -33s15.833 -7 32.5 -7h560
c22 0 35.833 2.66699 41.5 8s8.5 19.333 8.5 42v26c0 14.667 -2.16699 24 -6.5 28s-13.166 6 -26.499 6h-169c-16.667 0 -27.167 2.83301 -31.5 8.5s-6.5 16.167 -6.5 31.5v528c0 19.333 2.83301 31.166 8.5 35.499s18.5 6.5 38.5 6.5h704c20 0 33.167 -2.66699 39.5 -8
s9.5 -18.666 9.5 -39.999v-512c0 -18.667 -2.16699 -31.667 -6.5 -39s-16.166 -11 -35.499 -11h-169c-13.333 0 -21.5 -2.5 -24.5 -7.5s-4.5 -14.5 -4.5 -28.5v-30c0 -18.667 2.16699 -30.667 6.5 -36s15.5 -8 33.5 -8h560c19.333 0 32.5 2.16699 39.5 6.5
s10.5 16.833 10.5 37.5v34c0 14.667 -3.16699 23.667 -9.5 27s-16.166 5 -29.499 5h-144c-14.667 0 -24.5 2.16699 -29.5 6.5s-7.5 13.5 -7.5 27.5v1200c0 22 3.66699 35.167 11 39.5s22 6.5 44 6.5h126c15.333 0 25.666 2.16699 30.999 6.5s8 13.5 8 27.5v38
c0 17.333 -2.66699 28 -8 32s-16 6 -32 6h-570c-17.333 0 -28.333 -2.5 -33 -7.5s-7 -16.5 -7 -34.5v-29c0 -12.667 2.16699 -22.334 6.5 -29.001s13.5 -10 27.5 -10h163c21.333 0 33.833 -3.33301 37.5 -10s5.5 -20.667 5.5 -42v-444c0 -26.667 -2.33301 -44 -7 -52
s-20 -12 -46 -12h-690c-26.667 0 -42.834 3.33301 -48.501 10s-8.5 22.667 -8.5 48v459z" />
    <glyph glyph-name="I" unicode="I" horiz-adv-x="830" 
d="M500 1354c0 16.667 2.33105 26.835 6.99805 30.502s15 5.5 31 5.5h160c12.667 0 22.834 2.66699 30.501 8s11.5 16.666 11.5 33.999v34c0 15.333 -2.16699 24.833 -6.5 28.5s-14.166 5.5 -29.499 5.5h-584c-11.333 0 -19.166 -1 -23.499 -3s-6.5 -9.66699 -6.5 -23v-54
c0 -10.667 2.5 -18.334 7.5 -23.001s13.833 -7 26.5 -7h156c15.333 0 24.166 -2.33301 26.499 -7s3.5 -13.667 3.5 -27v-1196c0 -22.667 -7 -36.667 -21 -42s-29.667 -8 -47 -8h-106c-18.667 0 -31 -2 -37 -6s-9 -11.333 -9 -22v-50c0 -12.667 3.16699 -21.167 9.5 -25.5
s16.5 -6.5 30.5 -6.5h570c14 -0 24.167 2.33301 30.5 7s9.5 13 9.5 25v46c0 9.33301 -1.33301 17 -4 23s-8.66699 9 -18 9h-180c-14.667 0 -24.667 3.16699 -30 9.5s-8 17.833 -8 34.5v1200z" />
    <glyph glyph-name="J" unicode="J" horiz-adv-x="1177" 
d="M20 290c0 -46.667 13.6689 -93.835 41.002 -141.502s69.833 -87.667 127.5 -120s132.167 -48.5 223.5 -48.5c107.333 0 196.5 24.5 267.5 73.5s124.167 115.667 159.5 200s53 179.833 53 286.5v798c0 22 2.16699 36.167 6.5 42.5s17.166 9.5 38.499 9.5h166
c13.333 0 21.5 2.33301 24.5 7s4.5 13.667 4.5 27v48c0 13.333 -3.83301 21.333 -11.5 24s-17.167 4 -28.5 4h-620c-18 0 -30.833 -1.83301 -38.5 -5.5s-11.5 -15.167 -11.5 -34.5v-20c0 -21.333 2.33301 -35 7 -41s17.334 -9 38.001 -9h188
c22.667 0 36.167 -4.16699 40.5 -12.5s6.5 -23.833 6.5 -46.5v-851c0 -93.333 -11.5 -168.666 -34.5 -225.999s-56.167 -99 -99.5 -125s-95.333 -39 -156 -39c-54.667 0 -95.834 5.16699 -123.501 15.5s-46.334 22.5 -56.001 36.5s-14.5 26.667 -14.5 38
c0 21.333 4.5 36.833 13.5 46.5s19.167 18.667 30.5 27s21.5 20.333 30.5 36s13.5 39.834 13.5 72.501c0 36 -12.5 64.667 -37.5 86s-55.167 32 -90.5 32c-40 0 -76.333 -16.167 -109 -48.5s-49 -79.5 -49 -141.5z" />
    <glyph glyph-name="K" unicode="K" horiz-adv-x="1745" 
d="M75 38c0 -15.333 1.99023 -25.501 5.99023 -30.501s13.333 -7.5 28 -7.5h578c16.667 0 27.167 2.5 31.5 7.5s6.5 15.833 6.5 32.5v32c0 15.333 -2 25.5 -6 30.5s-14 7.5 -30 7.5h-162c-18 0 -29.5 2.33301 -34.5 7s-7.5 15.667 -7.5 33v264
c0 22.667 1.33301 38.334 4 47.001s9.33398 18.334 20.001 29.001l241 248c13.333 14 24.333 20.667 33 20s19.334 -9.33398 32.001 -26.001l441 -582c9.33301 -12 12.5 -21.667 9.5 -29s-16.167 -11 -39.5 -11h-103c-17.333 0 -28 -2.83301 -32 -8.5s-6 -17.5 -6 -35.5v-32
c0 -13.333 2 -22.333 6 -27s13.333 -7 28 -7h592c17.333 0 27.333 1.5 30 4.5s4 12.833 4 29.5v36c0 17.333 -2.5 28.333 -7.5 33s-15.833 7 -32.5 7h-134c-22.667 0 -38.667 3 -48 9s-18.666 15 -27.999 27l-565 724c-8.66699 11.333 -12.834 20.833 -12.501 28.5
s5.5 16.834 15.5 27.501l418 430c11.333 11.333 22.333 19.833 33 25.5s28.334 8.5 53.001 8.5h138c18 0 29.167 2.66699 33.5 8s6.5 17.333 6.5 36v26c0 16.667 -2 27.5 -6 32.5s-14 7.5 -30 7.5h-522c-15.333 0 -26.166 -1.83301 -32.499 -5.5s-9.5 -13.834 -9.5 -30.501
v-32c0 -16.667 2.16699 -27.834 6.5 -33.501s15.5 -8.5 33.5 -8.5h118c22.667 0 35.834 -2.83301 39.501 -8.5s-0.166016 -14.167 -11.499 -25.5l-677 -701c-17.333 -18 -28.166 -25.167 -32.499 -21.5s-6.5 19.834 -6.5 48.501v652c0 23.333 2.33301 38.5 7 45.5
s18.334 10.5 41.001 10.5h146c18 0 30.167 2.16699 36.5 6.5s9.5 16.166 9.5 35.499v38c0 12.667 -2.16699 20.834 -6.5 24.501s-12.166 5.5 -23.499 5.5h-592c-11.333 0 -18.833 -2 -22.5 -6s-5.5 -12 -5.5 -24v-52c0 -14.667 1.66699 -23 5 -25s12.333 -3 27 -3h156
c16 0 25.333 -1.33301 28 -4s4 -12 4 -28v-1202c0 -18 -2.16699 -30.167 -6.5 -36.5s-16.166 -9.5 -35.499 -9.5h-146c-12.667 0 -21.167 -2 -25.5 -6s-6.5 -12.667 -6.5 -26v-40z" />
    <glyph glyph-name="L" unicode="L" horiz-adv-x="1455" 
d="M253 1390c17.333 0 28.6689 -2.16699 34.002 -6.5s8 -14.833 8 -31.5v-1202c0 -18.667 -3 -30 -9 -34s-18.667 -6 -38 -6h-148c-11.333 0 -18.333 -2.33301 -21 -7s-4 -13 -4 -25v-42c0 -16.667 3.33301 -26.834 10 -30.501s17.667 -5.5 33 -5.5h1218
c18.667 0 29.834 3 33.501 9s5.5 18.333 5.5 37v436c0 13.333 -2.83301 21.333 -8.5 24s-15.167 4 -28.5 4h-42c-9.33301 0 -15.166 -2.33301 -17.499 -7s-3.5 -11.667 -3.5 -21c-0.666992 -84 -10.834 -153.5 -30.501 -208.5s-53.834 -96 -102.501 -123
s-117.667 -40.5 -207 -40.5h-408c-14.667 0 -25.334 1.66699 -32.001 5s-10 12.333 -10 27v1209c0 16.667 3.16699 27.334 9.5 32.001s16.833 7 31.5 7h144c13.333 0 22.5 2 27.5 6s7.5 13.333 7.5 28v42c0 16 -2.83301 25.667 -8.5 29s-16.5 5 -32.5 5h-556
c-12.667 0 -21.334 -1.66699 -26.001 -5s-7 -11.333 -7 -24v-47c0 -14 2 -23.167 6 -27.5s12.333 -6.5 25 -6.5h147z" />
    <glyph glyph-name="M" unicode="M" horiz-adv-x="2070" 
d="M318 1390c15.333 0 25.3389 -3.33301 30.0059 -10s6.66699 -16.667 6 -30l-57 -1196c-0.666992 -14.667 -4.5 -25.667 -11.5 -33s-18.833 -11 -35.5 -11h-138c-18 0 -29.5 -2.33301 -34.5 -7s-7.5 -16.334 -7.5 -35.001v-28c0 -18 2.66699 -29.167 8 -33.5
s17.333 -6.5 36 -6.5h494c18 0 31.167 2.33301 39.5 7s12.5 15.667 12.5 33v26c0 20 -2.83301 32.333 -8.5 37s-18.167 7 -37.5 7h-122c-28.667 0 -47 4 -55 12s-11.667 25.667 -11 53l45 1103c1.33301 31.333 3 52.833 5 64.5s4.66699 17.5 8 17.5
c8.66699 0 15.334 -8.16699 20.001 -24.5s8.66699 -34.833 12 -55.5s7.33301 -38 12 -52l406 -1194c5.33301 -16.667 11.333 -29.834 18 -39.501s22 -14.5 46 -14.5h46c17.333 0 28.666 3 33.999 9s10 15 14 27l388 1156c6.66699 19.333 13.5 41.833 20.5 67.5
s14.167 48.167 21.5 67.5s14.666 29 21.999 29c3.33301 0 5.16602 -10.333 5.49902 -31s0.333008 -44.167 0 -70.5s-0.166016 -48.166 0.500977 -65.499l35 -1017c0.666992 -16 -1.33301 -27 -6 -33s-15.667 -9 -33 -9h-156c-19.333 0 -30.833 -3.16699 -34.5 -9.5
s-5.5 -19.166 -5.5 -38.499v-24c0 -16.667 4.16699 -27.167 12.5 -31.5s20.166 -6.5 35.499 -6.5h566c16.667 -0 26.834 2.83301 30.501 8.5s5.5 16.834 5.5 33.501v30c0 19.333 -1.5 30.5 -4.5 33.5s-14.167 4.5 -33.5 4.5h-146c-18 0 -29.333 2.83301 -34 8.5
s-7.33398 16.834 -8.00098 33.501l-48 1184c-0.666992 17.333 1.33301 30.666 6 39.999s16.334 14 35.001 14h127c21.333 0 34.333 3 39 9s7 19.667 7 41v24c0 15.333 -2.33301 25.166 -7 29.499s-14.334 6.5 -29.001 6.5h-420c-18.667 0 -29.334 -2.33301 -32.001 -7
s-6.33398 -13.667 -11.001 -27l-385 -1168l-11.5 -36c-2.33301 -7.33301 -5.83301 -11 -10.5 -11c-5.33301 0 -9.16602 6.33301 -11.499 19s-6.83301 28.667 -13.5 48l-376 1136c-3.33301 10.667 -5.83301 19.334 -7.5 26.001s-5.33398 11.667 -11.001 15
s-15.834 5 -30.501 5h-412c-14.667 0 -25.334 -1.66699 -32.001 -5s-10 -13 -10 -29v-46c0 -12.667 2.33301 -20.834 7 -24.501s13.667 -5.5 27 -5.5h154z" />
    <glyph glyph-name="N" unicode="N" horiz-adv-x="1750" 
d="M234 1390c23.333 0 38.499 -2.33105 45.499 -6.99805s10.5 -18.667 10.5 -42v-1180c0 -22.667 -3.33301 -36.834 -10 -42.501s-21.667 -8.5 -45 -8.5h-109c-15.333 0 -26.833 -1.83301 -34.5 -5.5s-11.5 -14.167 -11.5 -31.5v-36c0 -16.667 2.66699 -27 8 -31
s16.666 -6 33.999 -6h486c16.667 0 27.834 2.16699 33.501 6.5s8.5 15.166 8.5 32.499v30c0 14.667 -1.83301 25.167 -5.5 31.5s-13.167 9.5 -28.5 9.5h-152c-19.333 0 -31.5 2.5 -36.5 7.5s-7.5 16.833 -7.5 35.5v1014c0 49.333 5 76.166 15 80.499
s22.333 -3.16699 37 -22.5l939 -1220c6.66699 -8.66699 13.667 -15 21 -19s18.666 -6 33.999 -6h6c13.333 0 21.333 4.5 24 13.5s4 19.5 4 31.5v1314c0 22 2.83301 36 8.5 42s18.834 9 39.501 9h126c17.333 0 27.666 3.16699 30.999 9.5s5 17.833 5 34.5v37
c0 14.667 -5.16699 23.167 -15.5 25.5s-21.833 3.5 -34.5 3.5h-462c-20.667 0 -33.834 -4.5 -39.501 -13.5s-8.5 -23.5 -8.5 -43.5v-22c0 -16.667 8 -26 24 -28s31.333 -3 46 -3h98c21.333 0 35.333 -2.33301 42 -7s10 -18 10 -40v-886c0 -40 -4.66699 -62.5 -14 -67.5
s-20.666 1.16699 -33.999 18.5l-790 1037c-15.333 20.667 -28.166 35 -38.499 43s-34.833 12 -73.5 12h-304c-17.333 0 -27.666 -3.16699 -30.999 -9.5s-5 -18.166 -5 -35.499v-30c0 -13.333 2 -22.5 6 -27.5s13.333 -7.5 28 -7.5h120z" />
    <glyph glyph-name="O" unicode="O" horiz-adv-x="1660" 
d="M110 750c0 -106.667 16.5 -206.5 49.5 -299.5s80.667 -174.833 143 -245.5s138 -125.834 227 -165.501s189.167 -59.5 300.5 -59.5c106.667 0 204 19.833 292 59.5s164 94.834 228 165.501s113.333 152.5 148 245.5s52 192.833 52 299.5s-16.5 206.5 -49.5 299.5
s-80.667 174.833 -143 245.5s-138 125.834 -227 165.501s-189.167 59.5 -300.5 59.5s-211.5 -19.833 -300.5 -59.5s-164.667 -94.834 -227 -165.501s-110 -152.5 -143 -245.5s-49.5 -192.833 -49.5 -299.5zM340 750c0 91.333 9.33301 177.333 28 258
s47.5 151.834 86.5 213.501s89.667 110.167 152 145.5s136.833 53 223.5 53c87.333 0 162 -17.667 224 -53s112.5 -83.833 151.5 -145.5s67.833 -132.834 86.5 -213.501s28 -166.667 28 -258c0 -90.667 -8.33301 -176.5 -25 -257.5s-44 -152.333 -82 -214
s-88.333 -110.167 -151 -145.5s-140 -53 -232 -53c-86.667 0 -161.167 17.667 -223.5 53s-113 83.833 -152 145.5s-67.833 133 -86.5 214s-28 166.833 -28 257.5z" />
    <glyph glyph-name="P" unicode="P" horiz-adv-x="1380" 
d="M263 1390c12 0 20.332 -1.49707 24.999 -4.49707s7 -10.167 7 -21.5v-1206c0 -18.667 -2.5 -31.334 -7.5 -38.001s-17.833 -10 -38.5 -10h-142c-12.667 0 -21.167 -1.66699 -25.5 -5s-6.5 -11 -6.5 -23v-36c0 -22 3.83301 -35.167 11.5 -39.5s21.834 -6.5 42.501 -6.5
h534c20 0 32 3 36 9s6 19 6 39v22c0 15.333 -1.5 25.833 -4.5 31.5s-12.167 8.5 -27.5 8.5h-130c-26.667 0 -43 3.66699 -49 11s-9 24.666 -9 51.999v431c0 27.333 3.83301 43.5 11.5 48.5s25.167 7.5 52.5 7.5h236c90.667 0 168.667 9.66699 234 29
s119.166 47.166 161.499 83.499s73.666 80.5 93.999 132.5s30.5 110.333 30.5 175c0 65.333 -10.167 123.833 -30.5 175.5s-51.666 95.667 -93.999 132s-96.166 64.166 -161.499 83.499s-143.333 29 -234 29h-673c-14.667 0 -24.5 -2.16699 -29.5 -6.5
s-7.5 -14.166 -7.5 -29.499v-41c0 -12 1.16699 -20.5 3.5 -25.5s9.5 -7.5 21.5 -7.5h163zM534.999 770.003c-20.667 0 -34.167 2.16797 -40.5 6.50098s-9.5 16.833 -9.5 37.5v537c0 13.333 1.66699 23.166 5 29.499s11.333 9.5 24 9.5h271c96 0 170 -29.333 222 -88
s78 -132.667 78 -222c0 -88.667 -26 -162.5 -78 -221.5s-126 -88.5 -222 -88.5h-250z" />
    <glyph glyph-name="Q" unicode="Q" horiz-adv-x="1660" 
d="M110 750c0 -106.667 16.501 -206.501 49.501 -299.501s80.667 -174.833 143 -245.5s138 -125.834 227 -165.501s189.167 -59.5 300.5 -59.5c60.667 0 117.334 6.33301 170.001 19c21.333 5.33301 36.166 7.33301 44.499 6s15.833 -9.66602 22.5 -24.999
c19.333 -41.333 40 -79.5 62 -114.5s48.333 -63 79 -84s68 -31.5 112 -31.5c44.667 0 84.834 9.83301 120.501 29.5s66 46.834 91 81.501s44.167 75 57.5 121s20 95.667 20 149c0 14.667 -2.33301 23.834 -7 27.501s-14.667 5.5 -30 5.5h-36
c-10.667 0 -17.667 -1.83301 -21 -5.5s-5.33301 -10.167 -6 -19.5c-2 -34.667 -9.33301 -68.334 -22 -101.001s-31.334 -59.5 -56.001 -80.5s-56.334 -31.5 -95.001 -31.5c-22.667 0 -44.167 10.5 -64.5 31.5s-40.5 48.5 -60.5 82.5c-10.667 18.667 -14.5 30.5 -11.5 35.5
s12.833 13.167 29.5 24.5c100 68 178.5 159.167 235.5 273.5s85.5 239.833 85.5 376.5c0 106.667 -16.5 206.5 -49.5 299.5s-80.667 174.833 -143 245.5s-138 125.834 -227 165.501s-189.167 59.5 -300.5 59.5s-211.5 -19.833 -300.5 -59.5s-164.667 -94.834 -227 -165.501
s-110 -152.5 -143 -245.5s-49.5 -192.833 -49.5 -299.5zM630.001 120.999c-20 10 -35.001 22.332 -45.001 36.999c-21.333 34 -29.333 71.333 -24 112s22.333 75.834 51 105.501s67.334 44.5 116.001 44.5c50 0 91.333 -12.667 124 -38s60.5 -58.5 83.5 -99.5
s44.833 -84.833 65.5 -131.5c7.33301 -16.667 9 -28.5 5 -35.5s-17.667 -13.5 -41 -19.5c-20.667 -4.66699 -42.167 -8.5 -64.5 -11.5s-45.833 -4.5 -70.5 -4.5c-38 0 -73.667 3.5 -107 10.5s-64.333 17.167 -93 30.5zM1180 231.998
c-18 -21.333 -30.333 -33.166 -37 -35.499s-16.667 9.83398 -30 36.501c-30 60 -63.167 118.667 -99.5 176s-78 104.5 -125 141.5s-101.833 55.5 -164.5 55.5c-62 0 -111.833 -15.333 -149.5 -46s-65.5 -68 -83.5 -112s-28.333 -86 -31 -126
c-1.33301 -20.667 -4 -30.834 -8 -30.501s-11.667 11.166 -23 32.499c-30.667 58.667 -53.167 124.167 -67.5 196.5s-21.5 148.833 -21.5 229.5c0 91.333 9.33301 177.333 28 258s47.5 151.834 86.5 213.501s89.667 110.167 152 145.5s136.833 53 223.5 53
c87.333 0 162 -17.667 224 -53s112.5 -83.833 151.5 -145.5s67.833 -132.834 86.5 -213.501s28 -166.667 28 -258c0 -102.667 -10.667 -199.167 -32 -289.5s-57.333 -166.5 -108 -228.5z" />
    <glyph glyph-name="R" unicode="R" horiz-adv-x="1545" 
d="M1590 190c2.66699 8.66699 1.66895 14.6641 -2.99805 17.9971s-12 6.66602 -22 9.99902l-50 16c-10 3.33301 -16.833 2.5 -20.5 -2.5s-7.16699 -11.5 -10.5 -19.5c-14.667 -34.667 -31.5 -60.334 -50.5 -77.001s-37.833 -25 -56.5 -25c-36.667 0 -62.167 11 -76.5 33
s-22.666 51.167 -24.999 87.5s-3.33301 76.5 -3 120.5s-2.83398 88.667 -9.50098 134s-21.167 87.666 -43.5 126.999s-58.166 72 -107.499 98c-22 11.333 -32.833 20.333 -32.5 27s9.83301 13 28.5 19c95.333 29.333 162 73.5 200 132.5s57 129.5 57 211.5
c0 73.333 -16.5 140.333 -49.5 201s-86.167 109 -159.5 145s-170.333 54 -291 54h-762c-12.667 0 -20.5 -2.33301 -23.5 -7s-4.5 -13.667 -4.5 -27v-31c0 -18 1.66699 -30 5 -36s13.666 -9 30.999 -9h135c21.333 0 34.833 -2.66699 40.5 -8s8.5 -18.666 8.5 -39.999v-1189
c0 -20 -2.83301 -32.167 -8.5 -36.5s-18.834 -6.5 -39.501 -6.5h-136c-14 0 -23.5 -2 -28.5 -6s-7.5 -13.667 -7.5 -29v-43c0 -12.667 2 -21.167 6 -25.5s12.333 -6.5 25 -6.5h566c13.333 0 22.166 1.66699 26.499 5s6.5 11.333 6.5 24v45
c0 14.667 -1.66699 24.334 -5 29.001s-12 7 -26 7h-149c-16 0 -26.667 1.83301 -32 5.5s-8 13.167 -8 28.5v494c0 22 2.16699 36.167 6.5 42.5s17.5 9.5 39.5 9.5h254c73.333 0 129 -12.833 167 -38.5s64.5 -59.667 79.5 -102s24 -88.666 27 -138.999
s5.5 -100.666 7.5 -150.999s9 -96.666 21 -138.999s34.667 -76.333 68 -102s83.333 -38.5 150 -38.5c82 0 145.5 19.833 190.5 59.5s76.5 89.834 94.5 150.501zM532.002 809.997c-21.333 0 -34.5 2.83203 -39.5 8.49902s-7.5 18.834 -7.5 39.501v485c0 23.333 2 37 6 41
s17.667 6 41 6h333c50.667 0 98.834 -10.333 144.501 -31s83 -52.5 112 -95.5s43.5 -97.5 43.5 -163.5s-14.5 -120.333 -43.5 -163s-66.333 -74.5 -112 -95.5s-93.834 -31.5 -144.501 -31.5h-333z" />
    <glyph glyph-name="S" unicode="S" horiz-adv-x="1345" 
d="M1079 1047c1.33301 -16.667 2.67188 -26.998 4.00488 -30.998s11 -6 29 -6h44c12.667 0 21.5 1.16699 26.5 3.5s7.5 9.83301 7.5 22.5v431c0 13.333 -1.5 22.166 -4.5 26.499s-10.833 6.5 -23.5 6.5h-64c-8 0 -13.167 -0.666992 -15.5 -2
s-4.83301 -4.66602 -7.5 -9.99902l-31 -71c-7.33301 -18 -15 -26.667 -23 -26s-17.667 6 -29 16c-40 34.667 -87.833 62.167 -143.5 82.5s-115.167 30.5 -178.5 30.5c-65.333 0 -127 -8.16699 -185 -24.5s-109.167 -41.5 -153.5 -75.5s-79 -76.667 -104 -128
s-37.5 -112 -37.5 -182c0 -80 15.833 -144.667 47.5 -194s73.667 -88.5 126 -117.5s109.833 -52.333 172.5 -70s125.334 -34.334 188.001 -50.001s120.167 -35 172.5 -58s94.333 -54 126 -93s47.5 -91.5 47.5 -157.5c0 -46 -12.833 -92 -38.5 -138
s-66.334 -84.167 -122.001 -114.5s-128.834 -45.5 -219.501 -45.5s-168.334 20.5 -233.001 61.5s-115.167 92.5 -151.5 154.5s-57.5 124.667 -63.5 188c-0.666992 11.333 -2.83398 19.833 -6.50098 25.5s-12.167 8.5 -25.5 8.5h-42c-14 0 -23.833 -1.16699 -29.5 -3.5
s-8.5 -10.5 -8.5 -24.5v-458c0 -14.667 2.5 -24 7.5 -28s15.167 -6 30.5 -6h31c19.333 0 31.5 1.33301 36.5 4s10.167 10.667 15.5 24l31 77c8 20 15 30.667 21 32s16.333 -4.66699 31 -18c45.333 -40 100.5 -73.167 165.5 -99.5s135.167 -39.5 210.5 -39.5
c114 0 211.333 18 292 54s142.167 87.667 184.5 155s63.5 147.666 63.5 240.999c0 86 -15.833 155.833 -47.5 209.5s-73.667 96.5 -126 128.5s-109.833 57.667 -172.5 77s-125.334 36.833 -188.001 52.5s-120.167 33.834 -172.5 54.501s-94.333 48.834 -126 84.501
s-47.5 83.5 -47.5 143.5c0 69.333 24.333 128 73 176s131 72 247 72c72 0 136.333 -15.833 193 -47.5s102.167 -75.334 136.5 -131.001s54.166 -119.834 59.499 -192.501z" />
    <glyph glyph-name="T" unicode="T" horiz-adv-x="1550" 
d="M420 41c0 -18.667 2.83496 -30.165 8.50195 -34.498s18.167 -6.5 37.5 -6.5h606c18 0 32.167 2 42.5 6s15.5 16 15.5 36v19c0 20.667 -2 34 -6 40s-16 9 -36 9h-164c-24.667 0 -39.834 3.16699 -45.501 9.5s-8.5 22.166 -8.5 47.499v1190c0 18 2 29.667 6 35
s14.667 8 32 8h102c86.667 0 154.167 -11 202.5 -33s82.666 -59.333 102.999 -112s31.5 -125.334 33.5 -218.001c0.666992 -16 2.66699 -27.833 6 -35.5s14.333 -11.5 33 -11.5h24c15.333 0 25.5 1.5 30.5 4.5s7.5 11.833 7.5 26.5v432c0 20 -2.16699 32.833 -6.5 38.5
s-16.166 8.5 -35.499 8.5h-1260c-22.667 0 -36.334 -3 -41.001 -9s-7 -20.667 -7 -44v-406c0 -14.667 1.5 -26.834 4.5 -36.501s12.833 -14.5 29.5 -14.5h28c17.333 0 27.833 3 31.5 9s5.83398 16.667 6.50098 32c2 94 13 167.833 33 221.5s54.333 91.667 103 114
s116.667 33.5 204 33.5h96c18.667 0 30.667 -2.66699 36 -8s8 -17.666 8 -36.999v-1190c0 -24.667 -3 -40 -9 -46s-21 -9 -45 -9h-164c-14.667 0 -25.334 -1.83301 -32.001 -5.5s-10 -13.5 -10 -29.5v-34z" />
    <glyph glyph-name="U" unicode="U" horiz-adv-x="1680" 
d="M1248 1390c19.333 0 31.1699 -2.6709 35.5029 -8.00391s6.5 -17.666 6.5 -36.999v-745c0 -121.333 -12.833 -219.5 -38.5 -294.5s-68.334 -129.667 -128.001 -164s-140.834 -51.5 -243.501 -51.5c-109.333 0 -194.5 23 -255.5 69s-103.667 109 -128 189
s-36.5 170.667 -36.5 272v725c0 21.333 3 34.166 9 38.499s19.667 6.5 41 6.5h142c19.333 0 32.166 2.33301 38.499 7s9.5 17.334 9.5 38.001v28c0 17.333 -3.66699 27.833 -11 31.5s-19 5.5 -35 5.5h-562c-14.667 0 -25.334 -1.83301 -32.001 -5.5s-10 -13.5 -10 -29.5v-32
c0 -16.667 1.5 -28 4.5 -34s12.833 -9 29.5 -9h136c17.333 0 30 -2 38 -6s12 -15.667 12 -35v-749c0 -91.333 10.333 -175.5 31 -252.5s53.667 -143.667 99 -200s105 -100 179 -131s164.333 -46.5 271 -46.5c198 0 340.833 51.333 428.5 154s131.5 261.334 131.5 476.001
v751c0 18 2.66699 29 8 33s17.333 6 36 6h134c16 0 27 2 33 6s9 14.333 9 31v34c0 18 -3 29 -9 33s-17.667 6 -35 6h-506c-16 0 -26.667 -2.16699 -32 -6.5s-8 -15.166 -8 -32.499v-38c0 -13.333 1.83301 -22.166 5.5 -26.499s11.834 -6.5 24.501 -6.5h178z" />
    <glyph glyph-name="V" unicode="V" horiz-adv-x="1720" 
d="M971 336c-10.667 -26 -19.834 -45.834 -27.501 -59.501s-15.167 -20.5 -22.5 -20.5s-15.5 7.66699 -24.5 23s-20.167 39.333 -33.5 72l-398 988c-7.33301 18.667 -9.16602 31.834 -5.49902 39.501s19.834 11.5 48.501 11.5h106c20.667 0 33.5 2.83301 38.5 8.5
s7.5 19.167 7.5 40.5v14c0 19.333 -1.66699 32 -5 38s-14.333 9 -33 9h-584c-16 0 -26.333 -2.33301 -31 -7s-7 -15.334 -7 -32.001v-32c0 -15.333 1.66699 -25.666 5 -30.999s12.333 -8 27 -8h156c20 0 32.167 -1.83301 36.5 -5.5s9.16602 -12.167 14.499 -25.5l565 -1351
c5.33301 -13.333 11.833 -23 19.5 -29s21.5 -9 41.5 -9h30c12 0 21 1.66699 27 5s10.833 8.16602 14.5 14.499s6.83398 13.166 9.50098 20.499l551 1337c6 14.667 12.5 25.5 19.5 32.5s21.5 10.5 43.5 10.5h133c13.333 0 21.166 2.83301 23.499 8.5s3.5 14.834 3.5 27.501
v37c0 14 -1.33301 23.667 -4 29s-11 8 -25 8h-502c-12 0 -19.833 -2 -23.5 -6s-5.5 -12.333 -5.5 -25v-49c0 -13.333 2.33301 -21.666 7 -24.999s14 -5 28 -5h142c28 0 45.167 -2.5 51.5 -7.5s5.83301 -16.833 -1.5 -35.5z" />
    <glyph glyph-name="W" unicode="W" horiz-adv-x="2360" 
d="M836 322c-7.33301 -20 -13.833 -34.332 -19.5 -42.999s-11.167 -13 -16.5 -13c-8 0 -15 9.16699 -21 27.5s-11.667 40.166 -17 65.499s-11.666 48.333 -18.999 69l-308 910c-6.66699 19.333 -7.83398 32.833 -3.50098 40.5s20.833 11.5 49.5 11.5h134
c15.333 0 26.666 1.83301 33.999 5.5s11 13.5 11 29.5v25c0 20 -4.5 33.333 -13.5 40s-22.833 10 -41.5 10h-562c-19.333 0 -31.333 -2.66699 -36 -8s-7 -18 -7 -38v-26c0 -16.667 2.5 -27.167 7.5 -31.5s16.167 -6.5 33.5 -6.5h122c22 0 37 -2.5 45 -7.5
s15 -15.833 21 -32.5l467 -1330c4.66699 -12.667 10 -22.5 16 -29.5s18.333 -10.5 37 -10.5h42c22.667 0 36 2.83301 40 8.5s8.66699 16.167 14 31.5l344 946c14.667 39.333 27 59 37 59c7.33301 0 13.5 -8.83301 18.5 -26.5s10 -38.834 15 -63.501s10.833 -47.667 17.5 -69
l266 -850c4.66699 -14 9.66699 -23.5 15 -28.5s17 -7.5 35 -7.5h42c17.333 0 27.833 1.5 31.5 4.5s7.83398 10.833 12.501 23.5l447 1344c5.33301 15.333 9.83301 25.5 13.5 30.5s16.167 7.5 37.5 7.5h138c19.333 0 31.666 2.5 36.999 7.5s8 17.167 8 36.5v24
c0 20 -3.16699 32 -9.5 36s-19.5 6 -39.5 6h-468c-20.667 0 -33 -3.16699 -37 -9.5s-6 -19.833 -6 -40.5v-16c0 -18 1.83301 -29.833 5.5 -35.5s14.167 -8.5 31.5 -8.5h148c21.333 0 32.5 -1.5 33.5 -4.5s-1.16699 -12.167 -6.5 -27.5l-341 -1024
c-6.66699 -21.333 -12.5 -35 -17.5 -41s-9.83301 -9 -14.5 -9c-4 0 -7.83301 6.83301 -11.5 20.5s-7.16699 30 -10.5 49s-7.33301 36.5 -12 52.5l-280 935c-6.66699 21.333 -5.66699 34.833 3 40.5s26.334 8.5 53.001 8.5h58c20.667 0 36 2 46 6s15 17.333 15 40v26
c0 16 -2.33301 26.333 -7 31s-14.667 7 -30 7h-476c-20.667 0 -33.667 -2.66699 -39 -8s-8 -18.666 -8 -39.999v-18c0 -18 1.83301 -29.833 5.5 -35.5s14.167 -8.5 31.5 -8.5h88c20 0 33.667 -2.5 41 -7.5s13.333 -15.167 18 -30.5l29 -88c7.33301 -22.667 9 -41 5 -55
s-9.66699 -31.667 -17 -53z" />
    <glyph glyph-name="X" unicode="X" horiz-adv-x="1740" 
d="M20 34c0 -13.333 1.83008 -22.3311 5.49707 -26.998s11.834 -7 24.501 -7h542c12 0 19.667 2.16699 23 6.5s5 12.833 5 25.5v47c0 13.333 -2.33301 21.833 -7 25.5s-13.667 5.5 -27 5.5h-108c-34.667 0 -54.5 3.16699 -59.5 9.5s-1.16699 17.833 11.5 34.5l359 457
c25.333 32 41.833 48 49.5 48s23.834 -16 48.501 -48l357 -470c6 -8 10.667 -15.167 14 -21.5s-4.66699 -9.5 -24 -9.5h-138c-12.667 0 -21.834 -1.83301 -27.501 -5.5s-8.5 -12.167 -8.5 -25.5v-52c0 -11.333 2.16699 -18.666 6.5 -21.999s12.5 -5 24.5 -5h597
c14.667 0 23.667 2.66699 27 8s5 15.333 5 30v37c0 15.333 -2.83301 25 -8.5 29s-15.834 6 -30.501 6h-122c-26.667 0 -43.834 2.66699 -51.501 8s-17.167 15.333 -28.5 30l-459 599c-16.667 22 -27.167 38.667 -31.5 50s-3.16602 22.666 3.50098 33.999s18 27.333 34 48
l372 483c7.33301 9.33301 13.5 16.333 18.5 21s16.5 7 34.5 7h166c12.667 0 21.334 2 26.001 6s7 12.333 7 25v38c0 19.333 -3.16699 31 -9.5 35s-18.166 6 -35.499 6h-524c-12 0 -20.167 -1.83301 -24.5 -5.5s-6.5 -12.167 -6.5 -25.5v-49c0 -14.667 3 -23.334 9 -26.001
s16.333 -4 31 -4h145c26.667 0 40.834 -2 42.501 -6s-2.83301 -12.667 -13.5 -26l-317 -408c-21.333 -27.333 -35.166 -41 -41.499 -41s-20.166 13.667 -41.499 41l-316 411c-6.66699 8.66699 -9.83398 15 -9.50098 19s4.5 6.66699 12.5 8s20 2 36 2h134
c12 0 19.833 2 23.5 6s5.5 12.333 5.5 25v55c0 11.333 -2.66699 18.166 -8 20.499s-13.666 3.5 -24.999 3.5h-597c-12.667 0 -20.834 -2 -24.501 -6s-5.5 -12.667 -5.5 -26v-42c0 -16.667 3.83301 -26.834 11.5 -30.501s19.167 -5.5 34.5 -5.5h120
c21.333 0 34.666 -2.16699 39.999 -6.5s12.333 -12.166 21 -23.499l405 -533c14.667 -18.667 25.5 -33.334 32.5 -44.001s9 -21.167 6 -31.5s-12.167 -25.166 -27.5 -44.499l-449 -566c-10 -12.667 -18.5 -21 -25.5 -25s-22.167 -6 -45.5 -6h-168
c-8 0 -14.167 -1.5 -18.5 -4.5s-6.5 -9.16699 -6.5 -18.5v-53z" />
    <glyph glyph-name="Y" unicode="Y" horiz-adv-x="1570" 
d="M490 34c0 -16.667 4.00098 -26.5029 12.001 -29.5029s19.333 -4.5 34 -4.5h554c18 0 30.833 1.83301 38.5 5.5s11.5 15.167 11.5 34.5v46c0 10.667 -2.16699 17.334 -6.5 20.001s-12.166 4 -23.499 4h-170c-20 0 -31.667 1.66699 -35 5s-5 15 -5 35v452
c0 30.667 2.66699 52.834 8 66.501s13.333 28.834 24 45.501l403 618c12.667 19.333 22.834 33.833 30.501 43.5s28.5 14.5 62.5 14.5h96c19.333 0 31.833 2.33301 37.5 7s8.5 16.334 8.5 35.001v28c0 15.333 -1.5 25.833 -4.5 31.5s-12.167 8.5 -27.5 8.5h-532
c-16.667 0 -26.834 -2.66699 -30.501 -8s-5.5 -16.666 -5.5 -33.999v-34c0 -13.333 2 -22.333 6 -27s13.333 -7 28 -7h156c34 0 53.5 -1.83301 58.5 -5.5s0.833008 -15.834 -12.5 -36.501l-342 -526c-11.333 -18 -19.833 -30.167 -25.5 -36.5s-11.167 -6.5 -16.5 -0.5
s-14 17.667 -26 35l-357 532c-8.66699 13.333 -10 23 -4 29s22.333 9 49 9h138c17.333 0 28 2.66699 32 8s6 16.666 6 33.999v32c0 15.333 -2 25.166 -6 29.499s-13.333 6.5 -28 6.5h-592c-14.667 0 -24 -2.5 -28 -7.5s-6 -15.167 -6 -30.5v-46
c0 -12.667 2.5 -20.167 7.5 -22.5s13.833 -3.5 26.5 -3.5h106c27.333 0 44.666 -2.16699 51.999 -6.5s16 -14.166 26 -29.499l465 -696c11.333 -16.667 18.666 -33 21.999 -49s5 -39 5 -69v-392c0 -16.667 -2.33301 -27.167 -7 -31.5s-15.667 -6.5 -33 -6.5h-136
c-16.667 0 -28.167 -2 -34.5 -6s-9.5 -15.333 -9.5 -34v-36z" />
    <glyph glyph-name="Z" unicode="Z" horiz-adv-x="1510" 
d="M228 1500c-24 0 -39.668 -2.00195 -47.001 -6.00195s-11 -18 -11 -42v-376c0 -17.333 2 -29.333 6 -36s15.333 -10 34 -10h18c18.667 0 30.334 1.66699 35.001 5s7 14.333 7 33c2 81.333 13.167 145.5 33.5 192.5s54.833 80.333 103.5 100s116.334 29.5 203.001 29.5h408
c43.333 0 65 -5.66699 65 -17c0 -16.667 -9.5 -33.667 -28.5 -51s-35.833 -35.333 -50.5 -54l-892 -1131c-8 -10 -13.667 -20.167 -17 -30.5s-5 -25.166 -5 -44.499v-28c0 -14.667 2.83301 -24 8.5 -28s15.5 -6 29.5 -6h1220c28 0 45.333 3 52 9s10 22.333 10 49v410
c0 14.667 -1.66699 25.334 -5 32.001s-13 10 -29 10h-35c-14.667 0 -23.334 -3.66699 -26.001 -11s-4.33398 -17.666 -5.00098 -30.999c-2 -93.333 -13.167 -166 -33.5 -218s-54.666 -88.333 -102.999 -109s-116.166 -31 -203.499 -31h-598c-14.667 0 -24.334 2 -29.001 6
s-7 9.33301 -7 16c0 14 9.5 29 28.5 45s36.833 35 53.5 57l871 1104c10.667 13.333 20.167 26.666 28.5 39.999s12.5 32 12.5 56v32c0 13.333 -1.5 22.333 -4.5 27s-10.833 7 -23.5 7h-1074z" />
    <glyph glyph-name="bracketleft" unicode="[" horiz-adv-x="650" 
d="M167 1560c-26 0 -42 -4.49805 -48 -13.498s-9 -24.5 -9 -46.5v-1731c0 -30.667 5.16699 -49.834 15.5 -57.501s28.5 -11.5 54.5 -11.5h369c17.333 0 28.5 2.16699 33.5 6.5s7.5 14.833 7.5 31.5v36c0 17.333 -3.66699 27.666 -11 30.999s-18.666 5 -33.999 5h-208
c-19.333 0 -32 2 -38 6s-9 15.333 -9 34v1551c0 23.333 6 37.333 18 42s28.333 7 49 7h198c15.333 0 25 2.33301 29 7s6 15 6 31v23c0 24.667 -4.83301 39 -14.5 43s-25.834 6 -48.501 6h-360z" />
    <glyph glyph-name="backslash" unicode="\" horiz-adv-x="1040" 
d="M208 1560h-128l742 -1860h138z" />
    <glyph glyph-name="bracketright" unicode="]" horiz-adv-x="650" 
d="M483 -300c26 0 42 4.5 48 13.5s9 24.5 9 46.5v1731c0 30.667 -5.16699 49.834 -15.5 57.501s-28.5 11.5 -54.5 11.5h-369c-17.333 0 -28.5 -2.16699 -33.5 -6.5s-7.5 -14.833 -7.5 -31.5v-36c0 -16.667 3.66699 -26.834 11 -30.501s18.666 -5.5 33.999 -5.5h208
c19.333 0 32 -1.83301 38 -5.5s9 -15.167 9 -34.5v-1551c0 -23.333 -5.83301 -37.333 -17.5 -42s-28.167 -7 -49.5 -7h-198c-15.333 0 -25 -2.33301 -29 -7s-6 -15 -6 -31v-23c0 -24.667 4.83301 -39 14.5 -43s25.834 -6 48.501 -6h360z" />
    <glyph glyph-name="asciicircum" unicode="^" horiz-adv-x="1090" 
d="M508 1399c19.333 15.333 32.334 22.668 39.001 22.001s19.334 -8.66699 38.001 -24l313 -259c10 -8.66699 17.667 -12.834 23 -12.501s14 3.83301 26 10.5l20 11c11.333 6 16.5 11.167 15.5 15.5s-5.16699 10.166 -12.5 17.499l-338 338
c-6.66699 7.33301 -13.334 12.833 -20.001 16.5s-17.334 5.5 -32.001 5.5h-76c-12.667 0 -21.667 -1.83301 -27 -5.5s-11 -8.5 -17 -14.5l-340 -340c-7.33301 -7.33301 -11.833 -13.166 -13.5 -17.499s2.83301 -9.5 13.5 -15.5l25 -13c12 -6.66699 20.333 -9.66699 25 -9
s12 5 22 13z" />
    <glyph glyph-name="underscore" unicode="_" horiz-adv-x="1120" 
d="M478 -20c-10.667 0 -18 -1.83203 -22 -5.49902s-6 -11.167 -6 -22.5v-52c0 -12.667 1.16699 -20.834 3.5 -24.501s9.83301 -5.5 22.5 -5.5h626c13.333 0 21.333 2.5 24 7.5s4 13.5 4 25.5v49c0 12 -1.5 19.667 -4.5 23s-10.167 5 -21.5 5h-626zM18 -19.999
c-10.667 0 -18 -1.83203 -22 -5.49902s-6 -11.167 -6 -22.5v-52c0 -12.667 1.16699 -20.834 3.5 -24.501s9.83301 -5.5 22.5 -5.5h626c13.333 0 21.333 2.5 24 7.5s4 13.5 4 25.5v49c0 12 -1.5 19.667 -4.5 23s-10.167 5 -21.5 5h-626z" />
    <glyph glyph-name="grave" unicode="`" horiz-adv-x="790" 
d="M180 1440l460.997 -18.999c12.667 -0.666992 21.334 0 26.001 2s7.33398 7.66699 8.00098 17c1.33301 10 -1.5 16.833 -8.5 20.5s-16.833 6.83398 -29.5 9.50098l-437 106c-18.667 4.66699 -34.667 3.83398 -48 -2.49902s-23.666 -15.333 -30.999 -27
s-11 -23.834 -11 -36.501c0 -18.667 7 -34.834 21 -48.501s30.333 -20.834 49 -21.501z" />
    <glyph glyph-name="a" unicode="a" horiz-adv-x="1112" 
d="M100 246c0 -84 29.5039 -149.336 88.5039 -196.003s132.833 -70 221.5 -70c70.667 0 126.667 8.83301 168 26.5s72.666 37.834 93.999 60.501s37.333 41.334 48 56.001c9.33301 12.667 15.833 19 19.5 19s6.5 -6 8.5 -18c2.66699 -16 8.16699 -35.333 16.5 -58
s24.666 -42.667 48.999 -60s61.5 -26 111.5 -26h1c27.333 0 53.833 4.66699 79.5 14s49.667 23.666 72 42.999s41.166 43.666 56.499 72.999c4.66699 10.667 2.66699 18.667 -6 24l-36 22c-8.66699 6.66699 -16.334 4.33398 -23.001 -6.99902
c-17.333 -27.333 -34 -45 -50 -53s-31 -12 -45 -12s-26.167 4.66699 -36.5 14s-15.5 24 -15.5 44v602c0 54 -8.5 105.167 -25.5 153.5s-49.667 87.5 -98 117.5s-119.166 45 -212.499 45c-50.667 0 -101.167 -6.16699 -151.5 -18.5s-96.166 -30.166 -137.499 -53.499
s-74.5 -52 -99.5 -86s-37.5 -72.667 -37.5 -116c0 -44 12 -74.333 36 -91s51.333 -25 82 -25c34 0 60.833 10.833 80.5 32.5s29.5 49.5 29.5 83.5c0 26 -4.66699 44 -14 54s-18.666 17.833 -27.999 23.5s-14 14.5 -14 26.5c0 13.333 10.333 26 31 38
s47.334 21.667 80.001 29s67 11 103 11c53.333 0 94.166 -10.167 122.499 -30.5s47.666 -48.166 57.999 -83.499s15.5 -75.333 15.5 -120v-110c0 -12 -1.5 -19.333 -4.5 -22s-10.167 -4 -21.5 -4h-98c-114.667 0 -210.334 -16.333 -287.001 -49
s-134.334 -75.667 -173.001 -129s-58 -111.333 -58 -174zM304.004 275.997c0 51.333 10 95.332 30 131.999s53 64.834 99 84.501s107.667 29.5 185 29.5h104c13.333 0 20 -6.66699 20 -20v-120c0 -90.667 -23.333 -161.667 -70 -213s-104 -77 -172 -77
c-50 0 -95.167 14 -135.5 42s-60.5 75.333 -60.5 142z" />
    <glyph glyph-name="b" unicode="b" horiz-adv-x="1281" 
d="M410 520c0 76 12 147.167 36 213.5s58.167 120 102.5 161s96.833 61.5 157.5 61.5c56 0 105 -20.5 147 -61.5s74.667 -94.667 98 -161s35 -137.5 35 -213.5s-11.667 -147.167 -35 -213.5s-56 -120 -98 -161s-91 -61.5 -147 -61.5c-60.667 0 -113.167 20.5 -157.5 61.5
s-78.5 94.667 -102.5 161s-36 137.5 -36 213.5zM67 1450l147 -0.000976562c10.667 0 16 -6.66699 16 -20v-1302c0 -7.33301 -1 -12.166 -3 -14.499s-6.66699 -3.5 -14 -3.5h-144c-6.66699 0 -11.5 -1 -14.5 -3s-4.5 -6.33301 -4.5 -13v-77c0 -8 1.16699 -12.833 3.5 -14.5
s7.5 -2.5 15.5 -2.5h316c10.667 0 17.5 3.5 20.5 10.5s4.5 15.5 4.5 25.5v116c0 24 1 37.167 3 39.5s6.33301 -2.5 13 -14.5c33.333 -62.667 76.833 -111.167 130.5 -145.5s115.5 -51.5 185.5 -51.5c79.333 0 152.666 21.333 219.999 64s121.5 104.334 162.5 185.001
s61.5 177.667 61.5 291s-20.5 210.166 -61.5 290.499s-95.167 141.666 -162.5 183.999s-140.666 63.5 -219.999 63.5c-72 0 -135.333 -18.333 -190 -55s-98.667 -87.667 -132 -153c-4 -8 -6.66699 -10.833 -8 -8.5s-2 10.833 -2 25.5v680
c0 5.33301 -1.33301 8.83301 -4 10.5s-6.66699 2.5 -12 2.5h-333c-4.66699 0 -7.66699 -1.16699 -9 -3.5s-2 -6.16602 -2 -11.499v-75c0 -6.66699 1.16699 -11.667 3.5 -15s6.83301 -5 13.5 -5z" />
    <glyph glyph-name="c" unicode="c" horiz-adv-x="1086" 
d="M90 520c0 -100 17.4961 -190.83 52.4961 -272.497s88.833 -146.667 161.5 -195s166 -72.5 280 -72.5c78.667 0 145.834 14.833 201.501 44.5s101.834 70.667 138.501 123s65.667 112.5 87 180.5c2.66699 7.33301 2.83398 12.166 0.500977 14.499s-8.83301 3.5 -19.5 3.5
h-62c-9.33301 0 -15.666 -1.5 -18.999 -4.5s-6.33301 -7.83301 -9 -14.5c-26 -74.667 -65 -134.834 -117 -180.501s-117.667 -68.5 -197 -68.5c-72.667 0 -130.667 21 -174 63s-74.5 96.667 -93.5 164s-28.5 139 -28.5 215s11.167 148 33.5 216s56.833 123.333 103.5 166
s106.334 64 179.001 64c54 0 99.833 -8.5 137.5 -25.5s56.5 -39.167 56.5 -66.5c0 -15.333 -5.33301 -28 -16 -38s-21.334 -21.5 -32.001 -34.5s-16 -31.5 -16 -55.5c0 -36.667 12.333 -65.167 37 -85.5s50.334 -30.5 77.001 -30.5c29.333 0 58 10 86 30s42 54 42 102
c0 54.667 -15.667 104.5 -47 149.5s-76.333 81 -135 108s-128.667 40.5 -210 40.5c-80.667 0 -151.834 -13.833 -213.501 -41.5s-113.667 -66.334 -156 -116.001s-74.333 -107 -96 -172s-32.5 -135.167 -32.5 -210.5z" />
    <glyph glyph-name="d" unicode="d" horiz-adv-x="1281" 
d="M300 520c0 76 11.667 147.167 35 213.5s56 120 98 161s91 61.5 147 61.5c60.667 0 113.167 -20.5 157.5 -61.5s78.5 -94.667 102.5 -161s36 -137.5 36 -213.5s-12 -147.167 -36 -213.5s-58.167 -120 -102.5 -161s-96.833 -61.5 -157.5 -61.5c-56 0 -105 20.5 -147 61.5
s-74.667 94.667 -98 161s-35 137.5 -35 213.5zM100 520c0 -113.333 20.498 -210.334 61.498 -291.001s95.167 -142.334 162.5 -185.001s140.666 -64 219.999 -64c69.333 0 128 16.833 176 50.5s91.333 81.167 130 142.5c9.33301 14 16 19.167 20 15.5s6 -14.167 6 -31.5
v-121c0 -14.667 2 -24.334 6 -29.001s13.333 -7 28 -7h300c12 0 19.333 1.66699 22 5s4 11.333 4 24v55c0 12.667 -2.16699 20.167 -6.5 22.5s-12.833 3.5 -25.5 3.5h-113c-14.667 0 -24.167 1.66699 -28.5 5s-6.5 12.333 -6.5 27v1388c0 13.333 -3.33301 21.666 -10 24.999
s-16.334 5 -29.001 5h-298c-7.33301 0 -13 -1.16699 -17 -3.5s-6 -7.5 -6 -15.5v-66c0 -8.66699 1 -15 3 -19s7 -6 15 -6h130c13.333 0 22 -1.16699 26 -3.5s6 -10.166 6 -23.499v-530c0 -26.667 -1.16699 -41.167 -3.5 -43.5s-7.16602 2.83398 -14.499 15.501
c-33.333 61.333 -76.666 108.833 -129.999 142.5s-114.666 50.5 -183.999 50.5c-79.333 0 -152.666 -21.167 -219.999 -63.5s-121.5 -103.666 -162.5 -183.999s-61.5 -177.166 -61.5 -290.499z" />
    <glyph glyph-name="e" unicode="e" horiz-adv-x="1096" 
d="M90 500c0 -93.333 17.832 -179.497 53.499 -258.497s88.167 -142.333 157.5 -190s154.333 -71.5 255 -71.5c84.667 0 156.667 14.667 216 44s107.666 69.833 144.999 121.5s65.333 111.5 84 179.5c2 7.33301 1.66699 12.666 -1 15.999s-9 5 -19 5h-58
c-10 0 -16.333 -2.16699 -19 -6.5s-5.33398 -10.166 -8.00098 -17.499c-26.667 -73.333 -66.167 -132.333 -118.5 -177s-118.166 -67 -197.499 -67c-68.667 0 -124.167 19.167 -166.5 57.5s-73.166 89.166 -92.499 152.499s-29 131.666 -29 204.999
c0 11.333 2.83301 19 8.5 23s13.834 6 24.501 6h643c14 0 23.5 1.5 28.5 4.5s7.5 11.167 7.5 24.5c0 47.333 -4.66699 95.166 -14 143.499s-24.333 94.333 -45 138s-47.834 82.667 -81.501 117s-74.667 61.333 -123 81s-105.166 29.5 -170.499 29.5
c-107.333 0 -196.5 -24.5 -267.5 -73.5s-124.167 -115.667 -159.5 -200s-53 -179.833 -53 -286.5zM323.999 608.003c-12 0 -19.665 1.66602 -22.998 4.99902s-5 10 -5 20c0 52.667 10 105 30 157s50.333 95.333 91 130s91.667 52 153 52c40.667 0 75.667 -11.667 105 -35
s53.666 -53.166 72.999 -89.499s33.666 -74.333 42.999 -114s14 -76.167 14 -109.5c0 -6.66699 -1.5 -11 -4.5 -13s-11.167 -3 -24.5 -3h-452z" />
    <glyph glyph-name="f" unicode="f" horiz-adv-x="782" 
d="M402 900c0 11.333 1.49707 19.165 4.49707 23.498s9.83301 6.5 20.5 6.5h224c14 0 22.667 1.33301 26 4s5 11 5 25v51c0 14.667 -2.66699 23.334 -8 26.001s-14.666 4 -27.999 4h-219c-10.667 0 -17.5 2.16699 -20.5 6.5s-4.5 11.5 -4.5 21.5v32c0 84.667 7 156 21 214
s37 101.833 69 131.5s74.667 44.5 128 44.5c52 0 88.333 -6 109 -18s31 -24 31 -36c0 -13.333 -3.5 -24.833 -10.5 -34.5s-14 -20.334 -21 -32.001s-10.5 -27.5 -10.5 -47.5c0 -28 10.667 -51 32 -69s49.333 -27 84 -27c35.333 0 63.833 11.333 85.5 34
s32.5 55.334 32.5 98.001c0 38 -14 74 -42 108s-67.167 61.5 -117.5 82.5s-109.166 31.5 -176.499 31.5c-86.667 0 -159.167 -18.167 -217.5 -54.5s-102.333 -87.166 -132 -152.499s-44.5 -141.666 -44.5 -228.999v-76c0 -12.667 -1.33301 -20.5 -4 -23.5s-10 -4.5 -22 -4.5
h-127c-10 0 -17 -1.33301 -21 -4s-6 -9.33398 -6 -20.001v-62c0 -10.667 1.66699 -17.334 5 -20.001s10 -4 20 -4h129c12.667 0 20.167 -2.5 22.5 -7.5s3.5 -13.833 3.5 -26.5v-759c0 -10 -1 -17 -3 -21s-8.33301 -6 -19 -6h-130c-8.66699 0 -15.5 -1.16699 -20.5 -3.5
s-7.5 -8.5 -7.5 -18.5v-62c0 -10.667 1.16699 -17.667 3.5 -21s8.83301 -5 19.5 -5h545c12 0 20.333 1.83301 25 5.5s7 11.834 7 24.501v58c0 10.667 -4.16699 17 -12.5 19s-17.166 3 -26.499 3h-168c-16 0 -25.5 2 -28.5 6s-4.5 14 -4.5 30v754z" />
    <glyph glyph-name="g" unicode="g" horiz-adv-x="1199" 
d="M295 690c0 49.333 6.33301 96.166 19 140.499s34.167 80.333 64.5 108s71.833 41.5 124.5 41.5s94.167 -13.833 124.5 -41.5s51.833 -63.667 64.5 -108s19 -91.166 19 -140.499s-6.33301 -96.166 -19 -140.499s-34.167 -80.333 -64.5 -108s-71.833 -41.5 -124.5 -41.5
s-94.167 13.833 -124.5 41.5s-51.833 63.667 -64.5 108s-19 91.166 -19 140.499zM105 690c0 -68 14.165 -128.832 42.498 -182.499s68.5 -96.167 120.5 -127.5c14.667 -8.66699 23.167 -14 25.5 -16s-5.5 -6.66699 -23.5 -14c-46.667 -20.667 -83.5 -46.667 -110.5 -78
s-40.5 -66 -40.5 -104c0 -42 8.5 -75.167 25.5 -99.5s39.833 -42.833 68.5 -55.5c13.333 -6 21 -9.5 23 -10.5s-3.66699 -5.16699 -17 -12.5c-40.667 -22.667 -78.167 -56.334 -112.5 -101.001s-51.5 -97.667 -51.5 -159c0 -84.667 42.667 -147.5 128 -188.5
s199.333 -61.5 342 -61.5c106.667 0 198.834 14.333 276.501 43s137.667 69.5 180 122.5s63.5 116.5 63.5 190.5c0 68 -10.5 122.333 -31.5 163s-49.167 71 -84.5 91s-75.333 33.333 -120 40s-90.667 10 -138 10c-14 0 -31 -0.166992 -51 -0.5s-40.833 -0.5 -62.5 -0.5
s-42 -0.166992 -61 -0.5s-34.833 -0.5 -47.5 -0.5c-54.667 0 -100.667 3.16699 -138 9.5s-56 27.833 -56 64.5c0 19.333 11.5 38.666 34.5 57.999s49.833 36 80.5 50c10 4.66699 18.667 7.33398 26 8.00098s17.333 0 30 -2s25.334 -3.5 38.001 -4.5s25.667 -1.5 39 -1.5
c80.667 0 150.834 15.5 210.501 46.5s105.834 74.333 138.501 130s49 120.167 49 193.5c0 70 -15.667 133.333 -47 190c-3.33301 6 -4.33301 10.5 -3 13.5s3.66602 7.16699 6.99902 12.5c20.667 30 43.167 50.833 67.5 62.5s48.166 17.5 71.499 17.5c25.333 0 38 -10 38 -30
c0 -10.667 -3.16699 -19.5 -9.5 -26.5s-12.666 -15.667 -18.999 -26s-9.5 -26.166 -9.5 -47.499c0 -24.667 9 -45.5 27 -62.5s41 -25.5 69 -25.5c30 0 55.167 9.83301 75.5 29.5s30.5 46.5 30.5 80.5c0 34.667 -7.5 65.667 -22.5 93s-37.833 49 -68.5 65s-69.667 24 -117 24
c-24.667 0 -53.667 -7.5 -87 -22.5s-64.666 -39.167 -93.999 -72.5c-5.33301 -6 -8.83301 -9.33301 -10.5 -10s-5.5 1.66602 -11.5 6.99902c-34.667 31.333 -76 55.5 -124 72.5s-101.667 25.5 -161 25.5c-80.667 0 -150.834 -15.5 -210.501 -46.5
s-105.834 -74.333 -138.501 -130s-49 -120.167 -49 -193.5zM902.998 -213.999c0 -48 -17.1641 -87.668 -51.4971 -119.001s-78 -54.666 -131 -69.999s-107.5 -23 -163.5 -23c-106 0 -184.5 20 -235.5 60s-76.5 94 -76.5 162c0 22 2.66699 50 8 84s22.666 66.333 51.999 97
c4 4.66699 7.5 7.66699 10.5 9s8.5 1.33301 16.5 0c23.333 -2 47.166 -3.16699 71.499 -3.5s48.833 -0.5 73.5 -0.5h68.5h92.5h67c65.333 0 114.666 -19.167 147.999 -57.5s50 -84.5 50 -138.5z" />
    <glyph glyph-name="h" unicode="h" horiz-adv-x="1315" 
d="M208 1450c9.33301 0 15.3311 -2.17188 17.998 -6.50488s4 -11.166 4 -20.499v-1289c0 -10.667 -2 -17.334 -6 -20.001s-11.667 -4 -23 -4h-132c-10.667 0 -16.5 -1.33301 -17.5 -4s-1.5 -9 -1.5 -19v-68c0 -10 1 -15.667 3 -17s7.66699 -2 17 -2h499
c9.33301 0 15.166 2.5 17.499 7.5s3.5 11.833 3.5 20.5v50c0 13.333 -2 22 -6 26s-12.333 6 -25 6h-121c-10.667 0 -18 1.5 -22 4.5s-6 9.83301 -6 20.5v431c0 68.667 13 131.834 39 189.501s63 103.834 111 138.501s104.667 52 170 52c66 0 114.167 -19.833 144.5 -59.5
s45.5 -96.5 45.5 -170.5v-577c0 -12.667 -1.16699 -20.667 -3.5 -24s-9.5 -5 -21.5 -5h-137c-7.33301 0 -11.833 -2.16699 -13.5 -6.5s-2.5 -10.166 -2.5 -17.499v-63c0 -8.66699 1.33301 -14.667 4 -18s8.33398 -5 17.001 -5h494c9.33301 0 15.5 1 18.5 3
s4.5 7.66699 4.5 17v68c0 9.33301 -1.16699 15.333 -3.5 18s-8.16602 4 -17.499 4h-128c-13.333 0 -21.833 1.66699 -25.5 5s-5.5 11.333 -5.5 24v599c0 107.333 -27.167 187.833 -81.5 241.5s-135.166 80.5 -242.499 80.5c-74 0 -141 -17 -201 -51
s-106.333 -76.667 -139 -128c-6 -10 -11 -19.333 -15 -28s-6.83301 -11.667 -8.5 -9s-2.5 15.334 -2.5 38.001v646c0 12.667 -1.5 21.167 -4.5 25.5s-10.5 6.5 -22.5 6.5h-308c-10 0 -16.667 -1.16699 -20 -3.5s-5 -8.16602 -5 -17.499v-67c0 -10.667 1 -17 3 -19
s8.33301 -3 19 -3h136z" />
    <glyph glyph-name="i" unicode="i" horiz-adv-x="665" 
d="M225 1400c0 -32.667 11.833 -60.834 35.5 -84.501s51.834 -35.5 84.501 -35.5c33.333 0 61.666 11.833 84.999 35.5s35 51.834 35 84.501c0 33.333 -11.667 61.666 -35 84.999s-51.666 35 -84.999 35c-32.667 0 -60.834 -11.667 -84.501 -35s-35.5 -51.666 -35.5 -84.999
zM241 930c16 0 23.999 -8.00098 23.999 -24.001v-768c0 -10.667 -1 -18 -3 -22s-8.66699 -6 -20 -6h-124c-12 0 -20.5 -1.66699 -25.5 -5s-7.5 -11.666 -7.5 -24.999v-56c0 -10.667 2.33301 -17.334 7 -20.001s12.667 -4 24 -4h490c9.33301 0 14.833 1.66699 16.5 5
s2.5 9.66602 2.5 18.999v66c0 9.33301 -1.66699 15 -5 17s-9.66602 3 -18.999 3h-135c-8 0 -13.5 1.83301 -16.5 5.5s-4.5 9.83398 -4.5 18.501v885c0 8.66699 -1.16699 14.334 -3.5 17.001s-7.5 4 -15.5 4h-317c-16 0 -24 -8.66699 -24 -26v-60c0 -10 1 -16.5 3 -19.5
s8 -4.5 18 -4.5h135z" />
    <glyph glyph-name="j" unicode="j" horiz-adv-x="584" 
d="M184 1400c0 -32.667 11.833 -60.834 35.5 -84.501s51.834 -35.5 84.501 -35.5c33.333 0 61.666 11.833 84.999 35.5s35 51.834 35 84.501c0 33.333 -11.667 61.666 -35 84.999s-51.666 35 -84.999 35c-32.667 0 -60.834 -11.667 -84.501 -35s-35.5 -51.666 -35.5 -84.999
zM210 930c7.33301 0 12.5 -1.33105 15.5 -3.99805s4.5 -7.66699 4.5 -15v-703c0 -45.333 2 -96.333 6 -153s6.5 -113.5 7.5 -170.5s-2.5 -109.333 -10.5 -157s-23.333 -86.167 -46 -115.5s-56.334 -44 -101.001 -44c-36.667 0 -60.167 9.16699 -70.5 27.5
s-15.5 33.833 -15.5 46.5c0 13.333 3.16699 23.666 9.5 30.999s12.666 16.166 18.999 26.499s9.5 27.166 9.5 50.499c0 33.333 -10.833 60.333 -32.5 81s-49.5 31 -83.5 31c-34.667 0 -63 -14.167 -85 -42.5s-33 -61.5 -33 -99.5c0 -41.333 11.167 -80.333 33.5 -117
s54.5 -66.334 96.5 -89.001s92.667 -34 152 -34c70.667 0 127.334 14 170.001 42s75.167 66.833 97.5 116.5s37.333 107.334 45 173.001s11.5 135.834 11.5 210.501v996c0 9.33301 -1.66699 15.333 -5 18s-9.66602 4 -18.999 4h-313c-10 0 -16.333 -1.33301 -19 -4
s-4 -9 -4 -19v-67c0 -9.33301 1.5 -15 4.5 -17s9.16699 -3 18.5 -3h137z" />
    <glyph glyph-name="k" unicode="k" horiz-adv-x="1222" 
d="M191 1450c13.333 0 23.1699 -1.66602 29.5029 -4.99902s9.5 -12.333 9.5 -27v-1280c0 -12.667 -2.5 -20.5 -7.5 -23.5s-14.167 -4.5 -27.5 -4.5h-118c-8.66699 0 -15.334 -0.833008 -20.001 -2.5s-7 -6.83398 -7 -15.501v-62c0 -9.33301 1.5 -16.666 4.5 -21.999
s9.83301 -8 20.5 -8h466c10.667 0 18.167 1.16699 22.5 3.5s6.5 8.5 6.5 18.5v62c0 11.333 -3.5 18.5 -10.5 21.5s-15.833 4.5 -26.5 4.5h-90c-14.667 0 -23.834 2.66699 -27.501 8s-5.5 14.666 -5.5 27.999v372c0 18 1.33301 29 4 33s7.66699 2.33301 15 -5l399 -410
c8.66699 -8.66699 13 -15.167 13 -19.5s-11 -6.5 -33 -6.5h-49c-14 0 -22.667 -2.16699 -26 -6.5s-5 -13.833 -5 -28.5v-37c0 -14.667 1.33301 -24.667 4 -30s11 -8 25 -8h406c15.333 -0 25.666 2.33301 30.999 7s8 15 8 31v47c0 9.33301 -1.5 15.833 -4.5 19.5
s-9.16699 5.5 -18.5 5.5h-62c-18.667 0 -31 1.83301 -37 5.5s-13.333 9.83398 -22 18.501l-435 456c-10.667 11.333 -15.5 18.666 -14.5 21.999s7.16699 9.66602 18.5 18.999l342 279c7.33301 6.66699 15.5 11.667 24.5 15s20.833 5 35.5 5h108c14.667 0 24.5 1.5 29.5 4.5
s7.5 11.5 7.5 25.5v50c0 12 -2 20 -6 24s-11.667 6 -23 6h-492c-10.667 0 -17.5 -2.16699 -20.5 -6.5s-4.5 -12.166 -4.5 -23.499v-38c0 -16.667 1.5 -27.834 4.5 -33.501s12.5 -8.5 28.5 -8.5h118c34 0 50.333 -1.66699 49 -5s-11 -12 -29 -26l-370 -289
c-12 -9.33301 -18.167 -9.83301 -18.5 -1.5s-0.5 21.5 -0.5 39.5v873c0 16.667 -4 27.334 -12 32.001s-19.667 7 -35 7h-284c-13.333 0 -21.5 -2.5 -24.5 -7.5s-4.5 -14.5 -4.5 -28.5v-48c0 -11.333 1.33301 -18.5 4 -21.5s10 -4.5 22 -4.5h115z" />
    <glyph glyph-name="l" unicode="l" horiz-adv-x="624" 
d="M182 1450c15.333 0 25.3311 -1.99902 29.998 -5.99902s7 -13.333 7 -28v-1272c0 -16 -1.16699 -25.667 -3.5 -29s-11.5 -5 -27.5 -5h-124c-12 0 -19.167 -2.66699 -21.5 -8s-3.5 -14 -3.5 -26v-40c0 -16 2.83301 -26 8.5 -30s15.834 -6 30.501 -6h454
c17.333 0 29.5 2 36.5 6s10.5 15.333 10.5 34v44c0 10.667 -2.16699 17.667 -6.5 21s-11.166 5 -20.499 5h-122c-18.667 0 -28.5 3 -29.5 9s-1.5 17.667 -1.5 35v1370c0 17.333 -3.16699 27.666 -9.5 30.999s-18.166 5 -35.499 5h-274c-12.667 0 -22.667 -1.5 -30 -4.5
s-11 -11.5 -11 -25.5v-38c0 -14 1.66699 -24.5 5 -31.5s12.666 -10.5 27.999 -10.5h110z" />
    <glyph glyph-name="m" unicode="m" horiz-adv-x="1841" 
d="M80 30c0 -12 1.99805 -20.0059 5.99805 -24.0059s11.333 -6 22 -6h474c10.667 0 17.334 3.66699 20.001 11s4 15.666 4 24.999v40c0 15.333 -2.5 24.833 -7.5 28.5s-14.5 5.5 -28.5 5.5h-108c-20.667 0 -32.834 1.83301 -36.501 5.5s-5.5 15.834 -5.5 36.501v414
c0 68.667 9.83301 131.834 29.5 189.501s50.334 103.834 92.001 138.501s95.167 52 160.5 52c56 0 95 -19.833 117 -59.5s33 -96.5 33 -170.5v-566c0 -18 -2.66699 -29.167 -8 -33.5s-17.333 -6.5 -36 -6.5h-74c-18.667 0 -30.334 -2.83301 -35.001 -8.5
s-7 -18.167 -7 -37.5v-30c0 -14.667 2.83301 -24 8.5 -28s15.5 -6 29.5 -6h426c17.333 0 28 2.66699 32 8s6 16 6 32v36c0 16 -3.66699 25.667 -11 29s-18.333 5 -33 5h-70c-16.667 0 -28.834 1.66699 -36.501 5s-11.5 14.333 -11.5 33v418
c0 68.667 8.5 131.834 25.5 189.501s46 103.834 87 138.501s97.5 52 169.5 52c56 0 95 -19.833 117 -59.5s33 -96.5 33 -170.5v-566c0 -18.667 -2.83301 -30 -8.5 -34s-18.167 -6 -37.5 -6h-104c-15.333 0 -25.166 -2.33301 -29.499 -7s-6.5 -15 -6.5 -31v-28
c0 -20.667 3.5 -33.167 10.5 -37.5s20.167 -6.5 39.5 -6.5h432c19.333 0 31.833 2.33301 37.5 7s8.5 17 8.5 37v38c0 10 -1.33301 17.167 -4 21.5s-8.66699 6.5 -18 6.5h-98c-18.667 0 -30.334 2.83301 -35.001 8.5s-7 17.5 -7 35.5v584
c0 107.333 -20.5 187.833 -61.5 241.5s-115.167 80.5 -222.5 80.5c-70 0 -129.167 -15.333 -177.5 -46s-91.166 -67.667 -128.499 -111c-8.66699 -10 -16.167 -15.5 -22.5 -16.5s-14.166 6.83301 -23.499 23.5c-24.667 46.667 -56 83.334 -94 110.001s-93.333 40 -166 40
c-66.667 0 -123.667 -13.333 -171 -40s-86.333 -61.667 -117 -105c-8 -12 -15 -21.5 -21 -28.5s-10.667 -6.66699 -14 1s-5 27.167 -5 58.5v60c0 15.333 -3 24.833 -9 28.5s-16.333 5.5 -31 5.5h-262c-16.667 0 -27.167 -2.66699 -31.5 -8s-6.5 -16.666 -6.5 -33.999v-32
c0 -16 2.5 -26 7.5 -30s15.833 -6 32.5 -6h82c13.333 0 23 -1.66699 29 -5s9 -12.333 9 -27v-750c0 -16.667 -2.66699 -27.167 -8 -31.5s-16.666 -6.5 -33.999 -6.5h-92c-9.33301 0 -16 -1.33301 -20 -4s-6 -8.66699 -6 -18v-58z" />
    <glyph glyph-name="n" unicode="n" horiz-adv-x="1345" 
d="M236 930c8 0 13.998 -1.00195 17.998 -3.00195s6 -6.66699 6 -14v-775c0 -12.667 -2.33301 -20.5 -7 -23.5s-13.667 -4.5 -27 -4.5h-110c-12.667 0 -21.834 -1.83301 -27.501 -5.5s-8.5 -12.5 -8.5 -26.5v-46c0 -12.667 1.66699 -21.167 5 -25.5s11 -6.5 23 -6.5h484
c11.333 0 18.833 2 22.5 6s5.5 12 5.5 24v46c0 14.667 -2.5 24 -7.5 28s-14.167 6 -27.5 6h-103c-15.333 0 -26.166 3 -32.499 9s-9.5 16.667 -9.5 32v415c0 68.667 13 131.834 39 189.501s63 103.834 111 138.501s104.667 52 170 52c66 0 114.167 -19.833 144.5 -59.5
s45.5 -96.5 45.5 -170.5v-567c0 -17.333 -2.66699 -28.166 -8 -32.499s-16 -6.5 -32 -6.5h-115c-10.667 0 -17.5 -2 -20.5 -6s-4.5 -11.667 -4.5 -23v-50c0 -10.667 1 -18.5 3 -23.5s8.33301 -7.5 19 -7.5h487c11.333 0 19.333 1 24 3s7 8.33301 7 19v58
c0 11.333 -1.5 19.166 -4.5 23.499s-10.167 6.5 -21.5 6.5h-118c-17.333 0 -27.666 3.16699 -30.999 9.5s-5 18.166 -5 35.499v583c0 71.333 -9.33301 130.833 -28 178.5s-51.5 83.5 -98.5 107.5s-112.833 36 -197.5 36c-86.667 0 -158 -18.167 -214 -54.5
s-100 -81.166 -132 -134.499c-6.66699 -10.667 -11.667 -17 -15 -19s-5 10 -5 36v117c0 9.33301 -2.33301 17.5 -7 24.5s-12.667 10.5 -24 10.5h-310c-7.33301 0 -12.333 -1.83301 -15 -5.5s-4 -9.5 -4 -17.5v-62c0 -8.66699 1.33301 -15 4 -19s8.33398 -6 17.001 -6h135z
" />
    <glyph glyph-name="o" unicode="o" horiz-adv-x="1136" 
d="M300 540c0 52 3.83301 103.5 11.5 154.5s21.167 97.167 40.5 138.5s46.5 74.5 81.5 99.5s79.833 37.5 134.5 37.5c72.667 0 128.334 -22 167.001 -66s65.167 -101.667 79.5 -173s21.5 -148.333 21.5 -231c0 -52 -3.83301 -103.5 -11.5 -154.5
s-21.167 -97.167 -40.5 -138.5s-46.5 -74.5 -81.5 -99.5s-79.833 -37.5 -134.5 -37.5c-72.667 0 -128.334 22 -167.001 66s-65.167 101.667 -79.5 173s-21.5 148.333 -21.5 231zM90 500c0 -93.333 17.5 -179.5 52.5 -258.5s87.833 -142.333 158.5 -190
s159.667 -71.5 267 -71.5s196.333 24.5 267 73.5s123.5 115.667 158.5 200s52.5 179.833 52.5 286.5c0 93.333 -17.5 179.5 -52.5 258.5s-87.833 142.333 -158.5 190s-159.667 71.5 -267 71.5s-196.333 -24.5 -267 -73.5s-123.5 -115.667 -158.5 -200
s-52.5 -179.833 -52.5 -286.5z" />
    <glyph glyph-name="p" unicode="p" horiz-adv-x="1276" 
d="M410 520c0 76 12 147.167 36 213.5s58.167 120 102.5 161s96.833 61.5 157.5 61.5c56 0 105 -20.5 147 -61.5s74.667 -94.667 98 -161s35 -137.5 35 -213.5s-11.667 -147.167 -35 -213.5s-56 -120 -98 -161s-91 -61.5 -147 -61.5c-60.667 0 -113.167 20.5 -157.5 61.5
s-78.5 94.667 -102.5 161s-36 137.5 -36 213.5zM50 970c0 -14.667 1.83496 -24.999 5.50195 -30.999s13.5 -9 29.5 -9h100c16.667 0 28.334 -2 35.001 -6s10 -14.667 10 -32v-1236c0 -18.667 -1.83301 -31 -5.5 -37s-14.834 -9 -33.501 -9h-114
c-12.667 0 -20.334 -2.33301 -23.001 -7s-4 -13.667 -4 -27v-40c0 -12.667 1.83301 -21.834 5.5 -27.501s12.167 -8.5 25.5 -8.5h478c14 0 22.667 1.5 26 4.5s5 11.833 5 26.5v41c0 16 -2 26.333 -6 31s-13.667 7 -29 7h-98c-20 0 -32.833 2.5 -38.5 7.5
s-8.5 17.833 -8.5 38.5v422c0 53.333 3 82.166 9 86.499s16.333 -4.5 31 -26.5c33.333 -49.333 74.833 -87.666 124.5 -114.999s105.5 -41 167.5 -41c79.333 0 152.666 21.167 219.999 63.5s121.5 103.666 162.5 183.999s61.5 177.166 61.5 290.499s-20.5 210.333 -61.5 291
s-95.167 142.334 -162.5 185.001s-140.666 64 -219.999 64c-67.333 0 -128.333 -17.5 -183 -52.5s-98.334 -82.167 -131.001 -141.5c-6 -10.667 -10.5 -15.167 -13.5 -13.5s-4.5 14.834 -4.5 39.501v114c0 15.333 -2.33301 24.833 -7 28.5s-14.667 5.5 -30 5.5h-286
c-12.667 0 -22 -1.66699 -28 -5s-9 -12.333 -9 -27v-38z" />
    <glyph glyph-name="q" unicode="q" horiz-adv-x="1256" 
d="M866 520c0 -76 -12 -147.167 -36 -213.5s-58.167 -120 -102.5 -161s-96.833 -61.5 -157.5 -61.5c-56 0 -105 20.5 -147 61.5s-74.667 94.667 -98 161s-35 137.5 -35 213.5s11.667 147.167 35 213.5s56 120 98 161s91 61.5 147 61.5c60.667 0 113.167 -20.5 157.5 -61.5
s78.5 -94.667 102.5 -161s36 -137.5 36 -213.5zM1102 -390c-20.667 0 -35.1689 1.83008 -43.502 5.49707s-12.5 15.834 -12.5 36.501v1240c0 16 3.16699 26.333 9.5 31s17.833 7 34.5 7h95c16.667 0 27.667 2.83301 33 8.5s8 16.167 8 31.5v38
c0 15.333 -3.5 24.5 -10.5 27.5s-17.167 4.5 -30.5 4.5h-262c-20 0 -34.5 -2.16699 -43.5 -6.5s-13.5 -16.166 -13.5 -35.499v-70c0 -38 -2.5 -58.167 -7.5 -60.5s-12.167 3.83398 -21.5 18.501c-33.333 55.333 -75.833 98.166 -127.5 128.499s-110.167 45.5 -175.5 45.5
c-79.333 0 -152.666 -21.333 -219.999 -64s-121.5 -104.334 -162.5 -185.001s-61.5 -177.667 -61.5 -291s20.5 -210.166 61.5 -290.499s95.167 -141.666 162.5 -183.999s140.666 -63.5 219.999 -63.5c66.667 0 125.834 15.5 177.501 46.5s94.167 74.5 127.5 130.5
c8.66699 14.667 15.334 21.5 20.001 20.5s7 -19.5 7 -55.5v-460c0 -22.667 -2.33301 -37.334 -7 -44.001s-18 -10 -40 -10h-98c-16 0 -25.833 -2.5 -29.5 -7.5s-5.5 -15.833 -5.5 -32.5v-32c0 -16 2.33301 -26.333 7 -31s14.667 -7 30 -7h460
c17.333 0 28.833 1.83301 34.5 5.5s8.5 13.834 8.5 30.501v48c0 10 -2.5 16.833 -7.5 20.5s-12.833 5.5 -23.5 5.5h-93z" />
    <glyph glyph-name="r" unicode="r" horiz-adv-x="961" 
d="M260 892l0.000976562 -746.997c0 -14.667 -3 -24.167 -9 -28.5s-16.667 -6.5 -32 -6.5h-111c-10 0 -17.167 -1.83301 -21.5 -5.5s-6.5 -11.167 -6.5 -22.5v-63c0 -8.66699 2.5 -14 7.5 -16s11.833 -3 20.5 -3h486c11.333 0 18.5 2.16699 21.5 6.5s4.5 12.5 4.5 24.5v45
c0 12.667 -1.16699 21.5 -3.5 26.5s-9.83301 7.5 -22.5 7.5h-122c-15.333 0 -24.5 3 -27.5 9s-4.5 16.667 -4.5 32v415c0 68.667 10.167 133.167 30.5 193.5s48.333 109.166 84 146.499s76.167 56 121.5 56c24 0 40 -2.5 48 -7.5s12 -12.5 12 -22.5
c0 -8 -3.83301 -15.833 -11.5 -23.5s-15.334 -18 -23.001 -31s-11.5 -31.5 -11.5 -55.5c0 -30.667 11.833 -55.334 35.5 -74.001s52.5 -28 86.5 -28c23.333 0 44.333 6.83301 63 20.5s33.5 32 44.5 55s16.5 48.5 16.5 76.5c0 58 -22 103.833 -66 137.5s-94 50.5 -150 50.5
c-65.333 0 -118.833 -14.833 -160.5 -44.5s-74.5 -67.167 -98.5 -112.5c-8.66699 -16.667 -14.334 -24.334 -17.001 -23.001s-4 10.333 -4 27v105c0 12.667 -3.16699 20.5 -9.5 23.5s-15.166 4.5 -26.499 4.5h-292c-14 0 -22.833 -2.33301 -26.5 -7s-5.5 -14 -5.5 -28v-37
c0 -14.667 1.33301 -24.667 4 -30s11.334 -8 26.001 -8h114c15.333 0 25.166 -2.33301 29.499 -7s6.5 -15 6.5 -31z" />
    <glyph glyph-name="s" unicode="s" horiz-adv-x="1005" 
d="M766 729c3.33301 -10 6.16504 -17.3281 8.49805 -21.9951s10.5 -7 24.5 -7h56c11.333 0 19 1.5 23 4.5s6 9.83301 6 20.5v307c0 18.667 -8.66699 28 -26 28h-45c-12.667 0 -21 -1.33301 -25 -4s-7.66699 -8.66699 -11 -18l-26 -79
c-5.33301 -18 -9.16602 -25.667 -11.499 -23s-8.83301 9.33398 -19.5 20.001c-26.667 27.333 -63 52.166 -109 74.499s-101.667 33.5 -167 33.5c-56.667 0 -108.5 -11.5 -155.5 -34.5s-84.5 -56.333 -112.5 -100s-42 -96.834 -42 -159.501c0 -70 15 -125.667 45 -167
s68.5 -73.333 115.5 -96s96.833 -40.834 149.5 -54.501s102.5 -27.667 149.5 -42s85.5 -33.833 115.5 -58.5s45 -60 45 -106c0 -50.667 -18.833 -91 -56.5 -121s-91.5 -45 -161.5 -45c-55.333 0 -103.333 8.66699 -144 26s-75 43.666 -103 78.999s-50.667 80 -68 134
c-2.66699 8 -5.83398 14.5 -9.50098 19.5s-11.167 7.5 -22.5 7.5h-61c-11.333 0 -18.833 -2.16699 -22.5 -6.5s-5.5 -12.5 -5.5 -24.5v-308c0 -10 1.66699 -17 5 -21s10 -6 20 -6h46c10.667 0 18.834 2.16699 24.501 6.5s9.83398 10.166 12.501 17.499l23 72
c4.66699 13.333 10 19.833 16 19.5s14.333 -5.16602 25 -14.499c30.667 -26.667 71.167 -50.834 121.5 -72.501s107.833 -32.5 172.5 -32.5s123.834 12.833 177.501 38.5s96.5 63 128.5 112s48 108.167 48 177.5c0 66 -15.167 118.5 -45.5 157.5s-69.333 69.333 -117 91
s-98.334 39.667 -152.001 54s-104.5 29.166 -152.5 44.499s-87.167 36 -117.5 62s-45.5 62.333 -45.5 109c0 42 14.5 75.833 43.5 101.5s69.833 38.5 122.5 38.5c67.333 0 129.833 -20.333 187.5 -61s98.5 -98 122.5 -172z" />
    <glyph glyph-name="t" unicode="t" horiz-adv-x="710" 
d="M689 195c3.33301 8.66699 3.50293 14.667 0.50293 18s-8.5 6.33301 -16.5 9l-32 11c-10.667 4 -17.834 5 -21.501 3s-7.83398 -8 -12.501 -18c-17.333 -38 -37.5 -67.167 -60.5 -87.5s-48.833 -30.5 -77.5 -30.5c-26.667 0 -48 9 -64 27s-24 47 -24 87v683
c0 15.333 3.33301 24.666 10 27.999s17 5 31 5h220c12 0 20.5 1.16699 25.5 3.5s7.5 9.5 7.5 21.5v52c0 14 -2.16699 23 -6.5 27s-13.166 6 -26.499 6h-222c-12.667 0 -22.334 1.66699 -29.001 5s-10 12 -10 26v220c0 19.333 -8.66699 29 -26 29h-54
c-14.667 0 -23.667 -2 -27 -6s-6.33301 -11.667 -9 -23c-13.333 -58 -25.666 -104 -36.999 -138s-24.333 -59 -39 -75s-33.334 -26.333 -56.001 -31s-52 -7 -88 -7c-12.667 0 -20.834 -1.16699 -24.501 -3.5s-5.5 -9.83301 -5.5 -22.5v-54
c0 -13.333 2.33301 -21.666 7 -24.999s14 -5 28 -5h119c12 0 20.333 -2.66699 25 -8s7 -14 7 -26v-724c0 -54.667 15.667 -101 47 -139s83 -57 155 -57c52 0 96.833 9.83301 134.5 29.5s69 46.167 94 79.5s44.167 70 57.5 110z" />
    <glyph glyph-name="u" unicode="u" horiz-adv-x="1315" 
d="M220 302c0 -71.333 9.33691 -130.832 28.0039 -178.499s51.5 -83.5 98.5 -107.5s112.833 -36 197.5 -36c87.333 0 158.166 17.167 212.499 51.5s97.5 78.166 129.5 131.499c7.33301 12 13.166 16 17.499 12s6.5 -9.33301 6.5 -16v-121c0 -15.333 2 -25.5 6 -30.5
s13.333 -7.5 28 -7.5h298c13.333 -0 21.333 2.33301 24 7s4 13.667 4 27v52c0 10.667 -3.33301 17.334 -10 20.001s-14.667 4 -24 4h-112c-15.333 0 -24.833 2 -28.5 6s-5.5 13.333 -5.5 28v866c0 11.333 -1.33301 19.166 -4 23.499s-9.33398 6.5 -20.001 6.5h-312
c-10 0 -16.5 -2 -19.5 -6s-4.5 -11.333 -4.5 -22v-63c0 -8.66699 2.5 -14 7.5 -16s11.833 -3 20.5 -3h110c14.667 0 25.334 -1.66699 32.001 -5s10 -13 10 -29v-422c0 -68.667 -13 -133.5 -39 -194.5s-63 -110.5 -111 -148.5s-104.667 -57 -170 -57
c-66 0 -114.167 23.167 -144.5 69.5s-45.5 106.5 -45.5 180.5v685c0 14.667 -2.5 23.5 -7.5 26.5s-15.167 4.5 -30.5 4.5h-286c-14.667 0 -24.334 -2.16699 -29.001 -6.5s-7 -14.166 -7 -29.499v-46c0 -13.333 2.66699 -21.333 8 -24s14.666 -4 27.999 -4h118
c12 0 19.333 -2.33301 22 -7s4 -13.334 4 -26.001v-595z" />
    <glyph glyph-name="v" unicode="v" horiz-adv-x="1158" 
d="M648 285c-7.33301 -20.667 -13.1709 -36.001 -17.5039 -46.001s-8.16602 -15 -11.499 -15s-7 5.5 -11 16.5l-17 47.5l-211 612c-3.33301 10.667 -3.83301 18.334 -1.5 23.001s10.833 7 25.5 7h96c16 0 27 1.33301 33 4s9 12 9 28v50c0 11.333 -2 18.833 -6 22.5
s-11.333 5.5 -22 5.5h-472c-13.333 0 -23.666 -2 -30.999 -6s-11 -13.667 -11 -29v-51c0 -8 1.83301 -14 5.5 -18s9.83398 -6 18.501 -6h110c14 0 24.333 -1 31 -3s11.667 -8 15 -18l349 -910c3.33301 -8 7.83301 -13.167 13.5 -15.5s14.167 -3.5 25.5 -3.5h45
c11.333 0 19.833 1.16699 25.5 3.5s9.83398 7.5 12.501 15.5l338 904c4 10 7.16699 17 9.5 21s10.833 6 25.5 6h104c11.333 0 19.166 1.16699 23.499 3.5s6.5 8.83301 6.5 19.5v53c0 15.333 -2.5 24.833 -7.5 28.5s-14.5 5.5 -28.5 5.5h-389
c-8.66699 0 -14.667 -2.33301 -18 -7s-5 -11.334 -5 -20.001v-54c0 -19.333 8.66699 -29 26 -29h112c17.333 0 27.833 -2.16699 31.5 -6.5s2.83398 -13.166 -2.49902 -26.499z" />
    <glyph glyph-name="w" unicode="w" horiz-adv-x="1720" 
d="M587 263c-2.66699 -8 -4.66699 -14.667 -6 -20s-4.33301 -8 -9 -8c-4 0 -6.83301 2.66699 -8.5 8l-6.5 20l-195 648c-2 7.33301 -1.66699 12.333 1 15s9.33398 4 20.001 4h175c14 0 22.333 2.83301 25 8.5s4 15.5 4 29.5v40c0 12.667 -1.66699 21.167 -5 25.5
s-11 6.5 -23 6.5h-537c-8 0 -12.833 -2.16699 -14.5 -6.5s-2.5 -10.5 -2.5 -18.5v-61c0 -8 0.833008 -14 2.5 -18s6.16699 -6 13.5 -6h126c9.33301 0 16.333 -1.5 21 -4.5s8 -8.16699 10 -15.5l295 -907c3.33301 -11.333 8.83301 -18 16.5 -20s18.834 -3 33.501 -3h63
c15.333 0 25.333 2.16699 30 6.5s8.66699 11.833 12 22.5l221 717c3.33301 10.667 6 18.5 8 23.5s4.66699 7.5 8 7.5s6.16602 -2.83301 8.49902 -8.5s4.83301 -13.167 7.5 -22.5l224 -721c3.33301 -10 7.5 -16.667 12.5 -20s14.167 -5 27.5 -5h72c15.333 0 25.5 2 30.5 6
s8.83301 11.333 11.5 22l259 896c3.33301 12.667 6.83301 20.167 10.5 22.5s13.5 3.5 29.5 3.5h129c11.333 0 18.833 1.66699 22.5 5s5.5 10 5.5 20v54c0 11.333 -1 19.333 -3 24s-8.66699 7 -20 7h-463c-9.33301 0 -15.333 -2.16699 -18 -6.5s-4 -11.5 -4 -21.5v-57
c0 -11.333 2.33301 -18.333 7 -21s13 -4 25 -4h134c14 0 22.167 -2 24.5 -6s1.83301 -11.667 -1.5 -23l-181 -632c-2.66699 -8.66699 -4.83398 -16.5 -6.50098 -23.5s-4.16699 -10.5 -7.5 -10.5s-6.16602 3.5 -8.49902 10.5l-7.5 23.5l-233 748
c-2.66699 10.667 -7.16699 17.167 -13.5 19.5s-16.5 3.5 -30.5 3.5h-53c-12.667 0 -21.834 -1.33301 -27.501 -4s-10.167 -9 -13.5 -19z" />
    <glyph glyph-name="x" unicode="x" horiz-adv-x="1163" 
d="M688 729l-39.0029 -42.501c-10 -11 -18.667 -16.5 -26 -16.5c-6.66699 0 -13.667 5 -21 15l-31 42l-129 170c-5.33301 7.33301 -9.5 14.666 -12.5 21.999s3.5 11 19.5 11h45c10.667 0 18 1.83301 22 5.5s6 11.167 6 22.5v50c0 11.333 -1.16699 19.5 -3.5 24.5
s-9.16602 7.5 -20.499 7.5h-434c-10.667 0 -19 -1.66699 -25 -5s-9 -11 -9 -23v-46c0 -15.333 2.33301 -25.166 7 -29.499s14.334 -6.5 29.001 -6.5h92c23.333 0 38 -2.33301 44 -7s13.667 -13.334 23 -26.001l213 -287l37.5 -49c9.66699 -12 14.5 -23.333 14.5 -34
c0 -9.33301 -4.66699 -19.666 -14 -30.999l-37 -43l-291 -322c-6.66699 -6.66699 -12 -11.834 -16 -15.501s-13.333 -5.5 -28 -5.5h-50c-10 0 -16.5 -2.83301 -19.5 -8.5s-4.5 -13.167 -4.5 -22.5v-52c0 -12 2.16699 -19.5 6.5 -22.5s12.833 -4.5 25.5 -4.5h346
c9.33301 0 15 2.16699 17 6.5s3 11.166 3 20.499v54c0 11.333 -1.33301 19 -4 23s-9.33398 6 -20.001 6h-74c-20.667 0 -32.5 2 -35.5 6s-0.5 10.333 7.5 19l209 233l35 41c9.33301 11.333 17.333 17 24 17s13.334 -5.83301 20.001 -17.5s16.334 -26.167 29.001 -43.5
l162 -216c7.33301 -9.33301 13.333 -18.166 18 -26.499s-2.66602 -12.5 -21.999 -12.5h-71c-10.667 0 -18.334 -1.83301 -23.001 -5.5s-7 -10.834 -7 -21.501v-54c0 -10.667 1.16699 -18.167 3.5 -22.5s8.5 -6.5 18.5 -6.5h408c11.333 0 19.5 1 24.5 3s7.5 8.33301 7.5 19
v66c0 9.33301 -2.16699 15.333 -6.5 18s-11.5 4 -21.5 4h-50c-16.667 0 -27.334 1.5 -32.001 4.5s-10.667 9.16699 -18 18.5l-266 360c-12.667 18 -23.667 32.333 -33 43s-14 20.334 -14 29.001c0 9.33301 5.33301 18.833 16 28.5s23.334 22.834 38.001 39.501l251 278
c6.66699 7.33301 13 12.333 19 15s16.333 4 31 4h61c9.33301 0 15.833 1.5 19.5 4.5s5.5 8.83301 5.5 17.5v62c0 9.33301 -1.33301 16 -4 20s-8.66699 6 -18 6h-344c-8.66699 0 -14.5 -2 -17.5 -6s-4.5 -10.667 -4.5 -20v-67c0 -8 2.16699 -12.833 6.5 -14.5
s10.5 -2.5 18.5 -2.5h61c9.33301 0 15.333 -1.66699 18 -5s0 -9.66602 -8 -18.999z" />
    <glyph glyph-name="y" unicode="y" horiz-adv-x="1236" 
d="M16 -262c0 -44.667 9.83398 -86.666 29.501 -125.999s47.834 -71.166 84.501 -95.499s80.667 -36.5 132 -36.5c38.667 0 80.167 8.16699 124.5 24.5s88 47.333 131 93s81.833 111.834 116.5 198.501l433 1092c6.66699 16 12 27 16 33s17.333 9 40 9h82
c15.333 0 24.333 3 27 9s4 16.333 4 31v46c0 11.333 -2.33301 18.166 -7 20.499s-12.667 3.5 -24 3.5h-358c-16.667 0 -27.667 -2.33301 -33 -7s-8 -15.667 -8 -33v-34c0 -13.333 1.83301 -22.666 5.5 -27.999s12.834 -8 27.501 -8h72c21.333 0 33.5 -2 36.5 -6
s1.83301 -13.333 -3.5 -28l-232 -590l-20 -53c-4.66699 -12 -9.66699 -18 -15 -18c-4 0 -8.5 4.83301 -13.5 14.5s-12.167 24.5 -21.5 44.5l-272 606c-6.66699 14 -7.66699 22.5 -3 25.5s17.334 4.5 38.001 4.5h94c19.333 0 31.333 2.5 36 7.5s7 17.5 7 37.5v25
c0 17.333 -2.16699 28.333 -6.5 33s-14.5 7 -30.5 7h-478c-9.33301 0 -16.166 -1 -20.499 -3s-6.5 -7.66699 -6.5 -17v-56c0 -14 2.16699 -23.167 6.5 -27.5s13.833 -6.5 28.5 -6.5h86c20 0 32.167 -2 36.5 -6s9.5 -12.667 15.5 -26l393 -868
c9.33301 -20 14.166 -35.167 14.499 -45.5s-3.5 -25.833 -11.5 -46.5l-23 -58c-31.333 -80 -64 -141.667 -98 -185s-67 -73.333 -99 -90s-61 -25 -87 -25c-32.667 0 -58.834 9 -78.501 27s-29.5 38.333 -29.5 61c0 10.667 2.83301 19.167 8.5 25.5s12.667 12 21 17
s16.666 10.333 24.999 16s15.333 13.167 21 22.5s8.5 21.666 8.5 36.999c0 31.333 -9.16699 55.5 -27.5 72.5s-42.5 25.5 -72.5 25.5c-20.667 0 -40.334 -5.83301 -59.001 -17.5s-33.834 -28.334 -45.501 -50.001s-17.5 -47.834 -17.5 -78.501z" />
    <glyph glyph-name="z" unicode="z" horiz-adv-x="1080" 
d="M482 940h179.996c42 0 68.833 -2 80.5 -6s7.83398 -17.667 -11.499 -41l-613 -747c-8.66699 -10.667 -17.167 -20.334 -25.5 -29.001s-12.5 -23.334 -12.5 -44.001v-37c0 -14 2.33301 -23.5 7 -28.5s14.334 -7.5 29.001 -7.5h838c26 0 41.833 3.33301 47.5 10
s8.5 23.334 8.5 50.001v340c0 12.667 -2.33301 20.5 -7 23.5s-13.667 4.5 -27 4.5h-37c-10 0 -17.333 -0.833008 -22 -2.5s-7 -7.5 -7 -17.5c0 -58 -2.66699 -106.667 -8 -146s-17.5 -71 -36.5 -95s-48.833 -41.167 -89.5 -51.5s-96.667 -15.5 -168 -15.5h-250
c-36.667 0 -54.167 2.33301 -52.5 7s10.167 16.334 25.5 35.001l628 763c8.66699 10.667 15.667 20 21 28s8 22.333 8 43v33c0 13.333 -2.5 21.833 -7.5 25.5s-13.833 5.5 -26.5 5.5h-774c-23.333 0 -38.166 -2.5 -44.499 -7.5s-9.5 -19.167 -9.5 -42.5v-323
c0 -14 2.33301 -22.667 7 -26s14.334 -5 29.001 -5h39c13.333 0 20.833 3 22.5 9s2.5 14.667 2.5 26c0.666992 60 6.16699 109.833 16.5 149.5s33.5 69.5 69.5 89.5s92.667 30 170 30z" />
    <glyph glyph-name="braceleft" unicode="{" horiz-adv-x="544" 
d="M442 -299c16.667 -0.666992 27.832 1.00293 33.499 5.00293s8.5 15 8.5 33v28c0 16.667 -4 25.334 -12 26.001s-18.667 1.66699 -32 3c-47.333 5.33301 -83.166 21.666 -107.499 48.999s-36.5 68.333 -36.5 123c0 38 3.5 72.667 10.5 104s14.833 62.666 23.5 93.999
s16.5 65.666 23.5 102.999s10.5 81 10.5 131c0 46.667 -7.83301 86.334 -23.5 119.001s-37.167 60.334 -64.5 83.001c-10 8 -17.667 13.333 -23 16s-8 6.66699 -8 12c0 6 2.5 10.167 7.5 12.5s12.5 7.5 22.5 15.5c28 23.333 49.833 51.5 65.5 84.5s23.5 72.833 23.5 119.5
c0 50 -3.5 93.667 -10.5 131s-14.833 71.666 -23.5 102.999s-16.5 62.666 -23.5 93.999s-10.5 66 -10.5 104c0 57.333 13.333 99.333 40 126s66 41.667 118 45c15.333 1.33301 24.166 3.16602 26.499 5.49902s3.5 11.5 3.5 27.5v22c0 17.333 -1.83301 28.5 -5.5 33.5
s-13.167 7.16699 -28.5 6.5c-87.333 -2.66699 -155.833 -15.167 -205.5 -37.5s-84.5 -53.666 -104.5 -93.999s-30 -89.166 -30 -146.499c0 -68.667 6 -127 18 -175s26 -89.833 42 -125.5s30 -68.334 42 -98.001s18 -60.167 18 -91.5c0 -32.667 -8.16699 -55.667 -24.5 -69
s-36.166 -23.666 -59.499 -30.999c-10 -3.33301 -18.5 -7.33301 -25.5 -12s-10.5 -14.334 -10.5 -29.001v-34c0 -18.667 2 -30 6 -34s12.667 -8.33301 26 -13c24 -7.33301 44.667 -17.5 62 -30.5s26 -36.167 26 -69.5c0 -31.333 -6 -61.833 -18 -91.5
s-26 -62.334 -42 -98.001s-30 -77.5 -42 -125.5s-18 -106.333 -18 -175c0 -84.667 23.333 -151 70 -199s134 -74.667 262 -80z" />
    <glyph glyph-name="bar" unicode="|" horiz-adv-x="600" 
d="M257 1560c-22.667 0 -36.166 -3.33105 -40.499 -9.99805s-6.5 -21.334 -6.5 -44.001v-1962c0 -19.333 2.66699 -31.5 8 -36.5s18.333 -7.5 39 -7.5h96c17.333 0 27.833 3.66699 31.5 11s5.5 19 5.5 35v1966c0 21.333 -2.83301 34.666 -8.5 39.999s-19.834 8 -42.501 8
h-82z" />
    <glyph glyph-name="braceright" unicode="}" horiz-adv-x="544" 
d="M102 1559c-16.667 0.666992 -27.832 -1.00293 -33.499 -5.00293s-8.5 -15 -8.5 -33v-28c0 -16.667 4 -25.334 12 -26.001s18.667 -1.66699 32 -3c47.333 -5.33301 83.166 -21.5 107.499 -48.5s36.5 -68.167 36.5 -123.5c0 -38 -3.5 -72.667 -10.5 -104
s-14.833 -62.666 -23.5 -93.999s-16.5 -65.666 -23.5 -102.999s-10.5 -81 -10.5 -131c0 -46.667 7.83301 -86.334 23.5 -119.001s37.167 -60.334 64.5 -83.001c10 -8 17.667 -13.333 23 -16s8 -6.66699 8 -12c0 -6 -2.5 -10.167 -7.5 -12.5s-12.5 -7.5 -22.5 -15.5
c-28 -22.667 -49.833 -50.667 -65.5 -84s-23.5 -73.333 -23.5 -120c0 -50 3.5 -93.667 10.5 -131s14.833 -71.666 23.5 -102.999s16.5 -62.666 23.5 -93.999s10.5 -66 10.5 -104c0 -57.333 -13.333 -99.333 -40 -126s-66 -41.667 -118 -45
c-15.333 -0.666992 -24.166 -2.33398 -26.499 -5.00098s-3.5 -12 -3.5 -28v-22c0 -17.333 1.83301 -28.5 5.5 -33.5s13.167 -7.16699 28.5 -6.5c87.333 2.66699 155.833 15.167 205.5 37.5s84.5 53.833 104.5 94.5s30 89.334 30 146.001c0 68.667 -6 127 -18 175
s-26 89.833 -42 125.5s-30 68.334 -42 98.001s-18 60.167 -18 91.5c0 32.667 8.16699 55.667 24.5 69s36.166 23.666 59.499 30.999c10 3.33301 18.5 7.33301 25.5 12s10.5 14.334 10.5 29.001v34c0 18.667 -2 30 -6 34s-12.667 8.33301 -26 13
c-24 7.33301 -44.667 17.5 -62 30.5s-26 36.167 -26 69.5c0 31.333 6 61.833 18 91.5s26 62.334 42 98.001s30 77.5 42 125.5s18 106.333 18 175c0 84.667 -23.333 151.167 -70 199.5s-134 74.833 -262 79.5z" />
    <glyph glyph-name="asciitilde" unicode="~" horiz-adv-x="1376" 
d="M456 874c31.333 0 57.5029 -6.33301 78.5029 -19s40.667 -28.334 59 -47.001s39.166 -37.334 62.499 -56.001s52.5 -34.334 87.5 -47.001s79.833 -19 134.5 -19c51.333 0 99 10.5 143 31.5s80.167 54.167 108.5 99.5s43.833 103.666 46.5 174.999
c0.666992 13.333 -1.66602 21.333 -6.99902 24s-14.333 4 -27 4h-46c-14 0 -23 -2 -27 -6s-6.66699 -12.333 -8 -25c-4 -52 -17.833 -91.167 -41.5 -117.5s-56.834 -39.5 -99.501 -39.5c-36.667 0 -67.167 6.33301 -91.5 19s-46.5 28.334 -66.5 47.001
s-41.333 37.334 -64 56.001s-49.667 34.334 -81 47.001s-71 19 -119 19c-50 0 -97 -10.833 -141 -32.5s-80 -55.167 -108 -100.5s-44 -103 -48 -173c-0.666992 -12.667 1.5 -20.5 6.5 -23.5s13.833 -4.5 26.5 -4.5h50c11.333 0 19.166 1.16699 23.499 3.5
s6.83301 8.83301 7.5 19.5c3.33301 54.667 16.666 95.834 39.999 123.501s57 41.5 101 41.5z" />
    <glyph glyph-name="uni00A0" unicode="&#xa0;" horiz-adv-x="600" 
 />
    <glyph glyph-name="exclamdown" unicode="&#xa1;" horiz-adv-x="638" 
d="M438 942c0 22 -5.16699 42 -15.5 60s-24.5 32.167 -42.5 42.5s-38 15.5 -60 15.5s-41.833 -5.16699 -59.5 -15.5s-31.834 -24.5 -42.501 -42.5s-16 -38 -16 -60s5.33301 -41.833 16 -59.5s24.834 -31.834 42.501 -42.501s37.5 -16 59.5 -16s42 5.33301 60 16
s32.167 24.834 42.5 42.501s15.5 37.5 15.5 59.5zM202 -278c0 -6.66699 -0.335938 -13.168 -1.00293 -19.501s-1 -12.5 -1 -18.5c0 -30.667 3.5 -58 10.5 -82s19.167 -43 36.5 -57s41.666 -21 72.999 -21s55.5 7 72.5 21s28.833 33 35.5 57s10 51.333 10 82v18.5v19.5
c-5.33301 86 -12.333 166.667 -21 242l-26 217.5c-8.66699 69.667 -16.167 138.834 -22.5 207.501s-9.83301 139 -10.5 211c0 9.33301 -1.16699 15.666 -3.5 18.999s-8.16602 5 -17.499 5h-31c-12 0 -19 -2 -21 -6s-3 -11.667 -3 -23
c-0.666992 -57.333 -3.16699 -113.5 -7.5 -168.5s-9.66602 -109.833 -15.999 -164.5s-13.166 -110.667 -20.499 -168s-14.166 -116.666 -20.499 -177.999s-11.5 -126 -15.5 -194z" />
    <glyph glyph-name="cent" unicode="&#xa2;" horiz-adv-x="1096" 
d="M627 1230c-7.33301 0 -11.668 -0.667969 -13.001 -2.00098s-2.66602 -5.33301 -3.99902 -12l-195 -1363c-0.666992 -8.66699 0.5 -14.667 3.5 -18s9.83301 -5 20.5 -5h54c9.33301 0 16.333 1.83301 21 5.5s7.66699 9.83398 9 18.501l195 1351
c1.33301 10 0.833008 16.667 -1.5 20s-8.83301 5 -19.5 5h-70zM89.998 519.999c0 -100 17.4961 -190.83 52.4961 -272.497s88.833 -146.667 161.5 -195s166 -72.5 280 -72.5c78.667 0 145.834 14.833 201.501 44.5s101.834 70.667 138.501 123s65.667 112.5 87 180.5
c2.66699 7.33301 2.83398 12.166 0.500977 14.499s-8.83301 3.5 -19.5 3.5h-62c-9.33301 0 -15.666 -1.5 -18.999 -4.5s-6.33301 -7.83301 -9 -14.5c-26 -74.667 -65 -134.834 -117 -180.501s-117.667 -68.5 -197 -68.5c-72.667 0 -130.667 21 -174 63
s-74.5 96.667 -93.5 164s-28.5 139 -28.5 215s11.167 148 33.5 216s56.833 123.333 103.5 166s106.334 64 179.001 64c54 0 99.833 -8.5 137.5 -25.5s56.5 -39.167 56.5 -66.5c0 -15.333 -5.33301 -28 -16 -38s-21.334 -21.5 -32.001 -34.5s-16 -31.5 -16 -55.5
c0 -36.667 12.333 -65.167 37 -85.5s50.334 -30.5 77.001 -30.5c29.333 0 58 10 86 30s42 54 42 102c0 54.667 -15.667 104.5 -47 149.5s-76.333 81 -135 108s-128.667 40.5 -210 40.5c-80.667 0 -151.834 -13.833 -213.501 -41.5s-113.667 -66.334 -156 -116.001
s-74.333 -107 -96 -172s-32.5 -135.167 -32.5 -210.5z" />
    <glyph glyph-name="sterling" unicode="&#xa3;" horiz-adv-x="1270" 
d="M111 -7c0.666992 -10 1.3291 -17.998 1.99609 -23.998s7 -9 19 -9h66c10 0 15.833 2.5 17.5 7.5s3.83398 10.833 6.50098 17.5c6.66699 15.333 15 28.666 25 39.999s22.833 20 38.5 26s35.167 9 58.5 9c31.333 0 61.833 -6 91.5 -18s62.334 -26 98.001 -42
s77.5 -30 125.5 -42s106.333 -18 175 -18c57.333 0 111 10 161 30s91.167 54.833 123.5 104.5s50.5 118.167 54.5 205.5c0.666992 10 0.333984 18.167 -0.999023 24.5s-8 9.5 -20 9.5h-51c-7.33301 0 -12.333 -0.333008 -15 -1s-4.33398 -2.33398 -5.00098 -5.00098
s-1.33398 -7.33398 -2.00098 -14.001c-5.33301 -55.333 -30.666 -97.166 -75.999 -125.499s-97.666 -42.5 -156.999 -42.5c-50.667 0 -96 5.66699 -136 17s-82.667 22.666 -128 33.999s-101.333 17 -168 17c-16.667 0 -32.334 -0.833008 -47.001 -2.5
s-28.334 -4.16699 -41.001 -7.5c-16 -4 -28.667 -9.66699 -38 -17s-16.5 -13.5 -21.5 -18.5s-8.83301 -6.83301 -11.5 -5.5c-9.33301 6 -6 17.333 10 34s30 32 42 46c25.333 29.333 51.5 56.666 78.5 81.999s52.167 52.166 75.5 80.499s42.333 61.833 57 100.5
s22 86.334 22 143.001c0 12.667 1.83301 21 5.5 25s12.167 6 25.5 6h305c9.33301 0 15.666 1.66699 18.999 5s5 9 5 17v61c0 13.333 -1.16699 21.166 -3.5 23.499s-10.166 3.5 -23.499 3.5h-306c-16.667 0 -28.667 0.666992 -36 2s-12.666 4.83301 -15.999 10.5
s-7.33301 14.5 -12 26.5l-50 144.5c-16.667 50.333 -25 105.833 -25 166.5c0 49.333 9.33301 98.333 28 147s50.5 89 95.5 121s107.167 48 186.5 48c49.333 0 94.833 -5.5 136.5 -16.5s75 -25.167 100 -42.5s37.5 -35 37.5 -53c0 -15.333 -5.33301 -28 -16 -38
s-21.334 -21.5 -32.001 -34.5s-16 -31.5 -16 -55.5c0 -24.667 5.83301 -45.667 17.5 -63s26.167 -30.5 43.5 -39.5s35 -13.5 53 -13.5c19.333 0 38.833 4.33301 58.5 13s36.167 22.667 49.5 42s20 45 20 77c0 54.667 -16.5 105.334 -49.5 152.001s-83 84.334 -150 113.001
s-151.167 43 -252.5 43c-107.333 0 -200.833 -15.5 -280.5 -46.5s-141.5 -77.667 -185.5 -140s-66 -140.166 -66 -233.499c0 -56.667 8.33301 -107.834 25 -153.501s35 -90.167 55 -133.5c4.66699 -9.33301 8.83398 -17.333 12.501 -24s3.83398 -11.5 0.500977 -14.5
s-13.333 -4.5 -30 -4.5h-237c-12 0 -20.333 -1.83301 -25 -5.5s-7 -11.834 -7 -24.501v-44c0 -13.333 1.33301 -22.666 4 -27.999s10.334 -8 23.001 -8h276c23.333 0 40 -13.5 50 -40.5s15 -59.5 15 -97.5c0 -24.667 -9 -50.5 -27 -77.5s-40.167 -56.167 -66.5 -87.5
s-52.5 -65.333 -78.5 -102s-47.333 -76.667 -64 -120s-23.667 -90.666 -21 -141.999z" />
    <glyph glyph-name="currency" unicode="&#xa4;" horiz-adv-x="1140" 
d="M121 248l156.998 157.001c36 -30.667 77.667 -54.167 125 -70.5s103.333 -24.5 168 -24.5s120.334 8.16699 167.001 24.5s88 39.833 124 70.5l157 -157l73 73l-157 157c34.667 42.667 58.834 87.5 72.501 134.5s20.5 99.5 20.5 157.5c0 58.667 -7 111.334 -21 158.001
s-38.333 91 -73 133l158 158l-73 73l-157 -157c-36.667 30.667 -78 54 -124 70s-101.667 24 -167 24c-64.667 0 -120.5 -8 -167.5 -24s-88.5 -39.667 -124.5 -71l-158 158l-73 -73l158 -158c-34.667 -42 -59 -86.333 -73 -133s-21 -99.334 -21 -158.001
s7 -111.334 21 -158.001s38.333 -91 73 -133l-158 -158zM570.998 433.001c-100.667 0 -180.667 31.333 -240 94s-89 143.667 -89 243s29.5 180.333 88.5 243s139.167 94 240.5 94s181.166 -31.333 239.499 -94s87.5 -143.667 87.5 -243s-29.167 -180.333 -87.5 -243
s-138.166 -94 -239.499 -94z" />
    <glyph glyph-name="yen" unicode="&#xa5;" horiz-adv-x="1570" 
d="M404 460c-13.333 0 -22.667 -1.83203 -28 -5.49902s-8 -11.167 -8 -22.5v-52c0 -12.667 1.5 -20.834 4.5 -24.501s12.5 -5.5 28.5 -5.5h812c17.333 0 27.833 2.5 31.5 7.5s5.5 13.5 5.5 25.5v49c0 12 -2 19.667 -6 23s-13.333 5 -28 5h-812zM403.999 740.001
c-13.333 0 -22.667 -1.83203 -28 -5.49902s-8 -11.167 -8 -22.5v-52c0 -12.667 1.5 -20.834 4.5 -24.501s12.5 -5.5 28.5 -5.5h812c17.333 0 27.833 2.5 31.5 7.5s5.5 13.5 5.5 25.5v49c0 12 -2 19.667 -6 23s-13.333 5 -28 5h-812zM489.998 34.002
c0 -16.667 4.00098 -26.5029 12.001 -29.5029s19.333 -4.5 34 -4.5h554c18 0 30.833 1.83301 38.5 5.5s11.5 15.167 11.5 34.5v46c0 10.667 -2.16699 17.334 -6.5 20.001s-12.166 4 -23.499 4h-170c-20 0 -31.667 1.66699 -35 5s-5 15 -5 35v452
c0 30.667 2.66699 52.834 8 66.501s13.333 28.834 24 45.501l403 618c12.667 19.333 22.834 33.833 30.501 43.5s28.5 14.5 62.5 14.5h96c19.333 0 31.833 2.33301 37.5 7s8.5 16.334 8.5 35.001v28c0 15.333 -1.5 25.833 -4.5 31.5s-12.167 8.5 -27.5 8.5h-532
c-16.667 0 -26.834 -2.66699 -30.501 -8s-5.5 -16.666 -5.5 -33.999v-34c0 -13.333 2 -22.333 6 -27s13.333 -7 28 -7h156c34 0 53.5 -1.83301 58.5 -5.5s0.833008 -15.834 -12.5 -36.501l-342 -526c-11.333 -18 -19.833 -30.167 -25.5 -36.5s-11.167 -6.5 -16.5 -0.5
s-14 17.667 -26 35l-357 532c-8.66699 13.333 -10 23 -4 29s22.333 9 49 9h138c17.333 0 28 2.66699 32 8s6 16.666 6 33.999v32c0 15.333 -2 25.166 -6 29.499s-13.333 6.5 -28 6.5h-592c-14.667 0 -24 -2.5 -28 -7.5s-6 -15.167 -6 -30.5v-46
c0 -12.667 2.5 -20.167 7.5 -22.5s13.833 -3.5 26.5 -3.5h106c27.333 0 44.666 -2.16699 51.999 -6.5s16 -14.166 26 -29.499l465 -696c11.333 -16.667 18.666 -33 21.999 -49s5 -39 5 -69v-392c0 -16.667 -2.33301 -27.167 -7 -31.5s-15.667 -6.5 -33 -6.5h-136
c-16.667 0 -28.167 -2 -34.5 -6s-9.5 -15.333 -9.5 -34v-36z" />
    <glyph glyph-name="brokenbar" unicode="&#xa6;" horiz-adv-x="479" 
d="M200 818h113v742h-113v-742zM200 -500h113v832h-113v-832z" />
    <glyph glyph-name="section" unicode="&#xa7;" horiz-adv-x="1068" 
d="M714 1316c0 -15.333 -5.33398 -27.9971 -16.001 -37.9971s-21.334 -21.5 -32.001 -34.5s-16 -31.5 -16 -55.5c0 -24.667 5.83301 -45.667 17.5 -63s26.167 -30.5 43.5 -39.5s35 -13.5 53 -13.5c19.333 0 38.833 6 58.5 18s36.167 29.333 49.5 52s20 50 20 82
c0 53.333 -12 98.666 -36 135.999s-56.333 67.833 -97 91.5s-86.5 41 -137.5 52s-103.5 16.5 -157.5 16.5c-47.333 0 -93.166 -6.16699 -137.499 -18.5s-84 -30.833 -119 -55.5s-62.667 -56.167 -83 -94.5s-30.5 -83.5 -30.5 -135.5c0 -48.667 11 -90 33 -124
s50.667 -62.667 86 -86c-48 -32.667 -85.833 -66.667 -113.5 -102s-41.5 -86.666 -41.5 -153.999c0 -54 17 -99.333 51 -136s77.833 -67.334 131.5 -92.001s110.5 -46.667 170.5 -66s116.833 -38.833 170.5 -58.5s97.5 -42.5 131.5 -68.5s51 -58.333 51 -97
c0 -31.333 -14.167 -58.166 -42.5 -80.499s-63.833 -39.5 -106.5 -51.5s-85 -18 -127 -18c-34.667 0 -72.834 5.66699 -114.501 17s-77.667 26.166 -108 44.499s-45.5 38.5 -45.5 60.5c0 15.333 5.33301 28 16 38s21.334 21.5 32.001 34.5s16 31.5 16 55.5
c0 24.667 -5.66699 45.667 -17 63s-25.833 30.5 -43.5 39.5s-35.5 13.5 -53.5 13.5c-19.333 0 -38.833 -6 -58.5 -18s-36.167 -29.333 -49.5 -52s-20 -50 -20 -82c0 -58 13 -107.167 39 -147.5s60.667 -72.833 104 -97.5s91.5 -42.667 144.5 -54s106.5 -17 160.5 -17
c52.667 0 104.5 6.16699 155.5 18.5s97.167 30.833 138.5 55.5s74.333 56.167 99 94.5s37 83.5 37 135.5c0 49.333 -11.167 90.833 -33.5 124.5s-51.166 62.167 -86.499 85.5c47.333 35.333 81.833 74.666 103.5 117.999s32.5 89.333 32.5 138
c0 54.667 -16.5 100.167 -49.5 136.5s-75.5 66.833 -127.5 91.5s-107.333 46.667 -166 66s-114 38.833 -166 58.5s-94.5 42.5 -127.5 68.5s-49.5 58.333 -49.5 97c0 47.333 23.667 84.166 71 110.499s102.333 39.5 165 39.5c34.667 0 69.5 -3.83301 104.5 -11.5
s64.333 -19.167 88 -34.5s35.5 -34 35.5 -56zM293.999 963.003c49.333 -22 101.168 -41.1689 155.501 -57.502s105.333 -33.5 153 -51.5s86.5 -40 116.5 -66s45 -60 45 -102c0 -55.333 -17.333 -103.666 -52 -144.999c-49.333 21.333 -100.833 40 -154.5 56
s-103.834 32.833 -150.501 50.5s-84.5 39.5 -113.5 65.5s-43.5 59.667 -43.5 101c0 32.667 5.5 61.834 16.5 87.501s20.167 46.167 27.5 61.5z" />
    <glyph glyph-name="dieresis" unicode="&#xa8;" horiz-adv-x="1000" 
d="M660 1690c26.667 0 49.334 9.33301 68.001 28s28 41.334 28 68.001s-9.33301 49.5 -28 68.5s-41.334 28.5 -68.001 28.5s-49.334 -9.5 -68.001 -28.5s-28 -41.833 -28 -68.5s9.33301 -49.334 28 -68.001s41.334 -28 68.001 -28zM340 1690
c26.667 0 49.334 9.33301 68.001 28s28 41.334 28 68.001s-9.33301 49.5 -28 68.5s-41.334 28.5 -68.001 28.5s-49.334 -9.5 -68.001 -28.5s-28 -41.833 -28 -68.5s9.33301 -49.334 28 -68.001s41.334 -28 68.001 -28z" />
    <glyph glyph-name="copyright" unicode="&#xa9;" horiz-adv-x="1739" 
d="M870 1520c-110.667 0 -212.837 -19.167 -306.504 -57.5s-175.167 -92.166 -244.5 -161.499s-123.166 -150.833 -161.499 -244.5s-57.5 -195.834 -57.5 -306.501s19.167 -212.834 57.5 -306.501s92 -175.167 161 -244.5s150.5 -123.166 244.5 -161.499
s196.333 -57.5 307 -57.5s212.834 19.167 306.501 57.5s175.334 92 245.001 161s123.667 150.5 162 244.5s57.5 196.333 57.5 307s-19.167 212.834 -57.5 306.501s-92.166 175.167 -161.499 244.5s-150.833 123.166 -244.5 161.499s-196.167 57.5 -307.5 57.5zM869.997 73
c-126.667 0 -241.164 28.5 -343.497 85.5s-183.333 136.333 -243 238s-89.5 219.5 -89.5 353.5s29.667 251.833 89 353.5s140.166 181 242.499 238s217.166 85.5 344.499 85.5c95.333 0 184 -16.333 266 -49s153.667 -79 215 -139s109.166 -131.5 143.499 -214.5
s51.5 -174.5 51.5 -274.5c0 -133.333 -29.667 -251 -89 -353s-140 -181.5 -242 -238.5s-217 -85.5 -345 -85.5zM420 740c0 -66.667 10.665 -128.164 31.998 -184.497s51.666 -105.333 90.999 -147s85.666 -73.834 138.999 -96.501s112 -34 176 -34
c80 0 149.167 15.667 207.5 47s104 74 137 128s51.833 115 56.5 183c0.666992 3.33301 -0.166016 5.5 -2.49902 6.5s-5.5 1.5 -9.5 1.5h-42c-4 0 -7 -0.666992 -9 -2s-3 -4 -3 -8c-5.33301 -47.333 -21.333 -92.833 -48 -136.5s-63.167 -79.334 -109.5 -107.001
s-101.5 -41.5 -165.5 -41.5c-69.333 0 -127.166 17.333 -173.499 52s-81 81.667 -104 141s-34.5 125.333 -34.5 198s12.5 138.667 37.5 198s61.667 106.5 110 141.5s107.166 52.5 176.499 52.5c54.667 0 103.167 -11.167 145.5 -33.5s76.5 -51 102.5 -86
s42.667 -72.167 50 -111.5c0.666992 -6 1.16699 -10.333 1.5 -13s4.5 -4 12.5 -4h37c6.66699 0 11.167 1 13.5 3s3.5 6.33301 3.5 13v285c0 4.66699 -0.666992 7.66699 -2 9s-4.66602 2 -9.99902 2h-32c-6 0 -9.33301 -0.666992 -10 -2s-1.66699 -4.33301 -3 -9l-25 -86
c-3.33301 -10.667 -6.66602 -16.5 -9.99902 -17.5s-8 1.83301 -14 8.5c-30 32 -67.333 58.667 -112 80s-96 32 -154 32c-60.667 0 -118.5 -11.333 -173.5 -34s-103.667 -54.834 -146 -96.501s-75.666 -90.667 -99.999 -147s-36.5 -117.833 -36.5 -184.5z" />
    <glyph glyph-name="ordfeminine" unicode="&#xaa;" horiz-adv-x="703" 
d="M40 1112c0 -50.667 17.6738 -89.9971 53.0068 -117.997s79.666 -42 132.999 -42c42 0 75.5 5.33301 100.5 16s43.833 22.667 56.5 36s22.334 24.666 29.001 33.999c5.33301 7.33301 9.16602 11 11.499 11s4.16602 -3.66699 5.49902 -11
c1.33301 -9.33301 4.5 -20.833 9.5 -34.5s14.833 -25.667 29.5 -36s37 -15.5 67 -15.5h1c16 0 31.667 2.83301 47 8.5s29.666 14.167 42.999 25.5s24.666 26 33.999 44c3.33301 6 2.33301 10.667 -3 14l-22 14c-5.33301 4 -10 2.33301 -14 -5
c-10 -16 -19.833 -26.5 -29.5 -31.5s-18.834 -7.5 -27.501 -7.5c-8 0 -15.167 2.83301 -21.5 8.5s-9.5 14.5 -9.5 26.5v361c0 32.667 -5.16699 63.5 -15.5 92.5s-29.833 52.5 -58.5 70.5s-71 27 -127 27c-30.667 0 -61 -3.66699 -91 -11s-57.5 -18 -82.5 -32
s-45 -31.167 -60 -51.5s-22.5 -43.5 -22.5 -69.5c0 -26.667 7.16699 -45 21.5 -55s30.833 -15 49.5 -15c20 0 36 6.5 48 19.5s18 29.833 18 50.5c0 15.333 -2.83301 26 -8.5 32s-11.334 10.667 -17.001 14s-8.5 8.66602 -8.5 15.999c0 8 6.16699 15.5 18.5 22.5
s28.333 12.833 48 17.5s40.5 7 62.5 7c32 0 56.333 -6.16699 73 -18.5s28.167 -29 34.5 -50s9.5 -45.167 9.5 -72.5v-66c0 -6.66699 -0.833008 -10.834 -2.5 -12.501s-5.83398 -2.5 -12.501 -2.5h-59c-68.667 0 -126.167 -9.83301 -172.5 -29.5s-81 -45.5 -104 -77.5
s-34.5 -66.667 -34.5 -104zM162.007 1130c0 30.667 6.16797 57 18.501 79s32.166 38.833 59.499 50.5s64.333 17.5 111 17.5h62c8 0 12 -4 12 -12v-72c0 -54.667 -14 -97.334 -42 -128.001s-62.333 -46 -103 -46c-30 0 -57.167 8.33301 -81.5 25s-36.5 45.334 -36.5 86.001z
" />
    <glyph glyph-name="guillemotleft" unicode="&#xab;" horiz-adv-x="1390" 
d="M862 775l468 395l-60 90l-660 -460v-50l660 -460l60 90zM302 775l468 395l-60 90l-660 -460v-50l660 -460l60 90z" />
    <glyph glyph-name="logicalnot" unicode="&#xac;" horiz-adv-x="971" 
d="M739 406h113v424h-732v-114h619v-310z" />
    <glyph glyph-name="uni00AD" unicode="&#xad;" horiz-adv-x="920" 
d="M148 830c-10.667 0 -18 -1.83203 -22 -5.49902s-6 -11.167 -6 -22.5v-52c0 -12.667 1.16699 -20.834 3.5 -24.501s9.83301 -5.5 22.5 -5.5h626c13.333 0 21.333 2.5 24 7.5s4 13.5 4 25.5v49c0 12 -1.5 19.667 -4.5 23s-10.167 5 -21.5 5h-626z" />
    <glyph glyph-name="registered" unicode="&#xae;" horiz-adv-x="1739" 
d="M870 1520c-110.667 0 -212.837 -19.167 -306.504 -57.5s-175.167 -92.166 -244.5 -161.499s-123.166 -150.833 -161.499 -244.5s-57.5 -195.834 -57.5 -306.501s19.167 -212.834 57.5 -306.501s92 -175.167 161 -244.5s150.5 -123.166 244.5 -161.499
s196.333 -57.5 307 -57.5s212.834 19.167 306.501 57.5s175.334 92 245.001 161s123.667 150.5 162 244.5s57.5 196.333 57.5 307s-19.167 212.834 -57.5 306.501s-92.166 175.167 -161.499 244.5s-150.833 123.166 -244.5 161.499s-196.167 57.5 -307.5 57.5zM869.997 73
c-126.667 0 -241.164 28.5 -343.497 85.5s-183.333 136.333 -243 238s-89.5 219.5 -89.5 353.5s29.667 251.833 89 353.5s140.166 181 242.499 238s217.166 85.5 344.499 85.5c95.333 0 184 -16.333 266 -49s153.667 -79 215 -139s109.166 -131.5 143.499 -214.5
s51.5 -174.5 51.5 -274.5c0 -133.333 -29.667 -251 -89 -353s-140 -181.5 -242 -238.5s-217 -85.5 -345 -85.5zM1357 420c1.33301 5.33301 0.666016 8.99805 -2.00098 10.998s-7 4 -13 6l-30 9c-6 2.66699 -10 2.33398 -12 -0.999023l-7 -12
c-8.66699 -20.667 -18.667 -36 -30 -46s-22.666 -15 -33.999 -15c-22 0 -37.333 6.5 -46 19.5s-13.667 30.5 -15 52.5s-1.83301 46.167 -1.5 72.5s-1.5 53.166 -5.5 80.499s-12.833 52.666 -26.5 75.999s-35.167 43 -64.5 59c-13.333 6.66699 -19.833 12 -19.5 16
s6.16602 8 17.499 12c56.667 17.333 96.5 43.666 119.5 78.999s34.5 77.666 34.5 126.999c0 44 -9.83301 84.167 -29.5 120.5s-51.5 65.333 -95.5 87s-102.333 32.5 -175 32.5h-457c-7.33301 0 -12 -1.5 -14 -4.5s-3 -8.16699 -3 -15.5v-19c0 -10.667 1 -17.834 3 -21.501
s8.33301 -5.5 19 -5.5h81c12.667 0 20.667 -1.5 24 -4.5s5 -11.167 5 -24.5v-713c0 -12 -1.66699 -19.333 -5 -22s-11.333 -4 -24 -4h-81c-8.66699 0 -14.5 -1.16699 -17.5 -3.5s-4.5 -8.16602 -4.5 -17.499v-26c0 -7.33301 1.16699 -12.333 3.5 -15s7.5 -4 15.5 -4h339
c8 0 13.333 1 16 3s4 6.66699 4 14v27c0 8.66699 -1 14.5 -3 17.5s-7.33301 4.5 -16 4.5h-89c-9.33301 0 -15.666 1 -18.999 3s-5 7.66699 -5 17v297c0 13.333 1.33301 21.833 4 25.5s10.667 5.5 24 5.5h152c44 0 77.333 -7.66699 100 -23s38.5 -35.666 47.5 -60.999
s14.5 -53.166 16.5 -83.499s3.5 -60.666 4.5 -90.999s5.16699 -58.166 12.5 -83.499s21 -45.666 41 -60.999s50 -23 90 -23c49.333 0 87.5 12 114.5 36s45.833 54 56.5 90zM722 791.998c-12.667 0 -20.5 1.66797 -23.5 5.00098s-4.5 11.333 -4.5 24v291
c0 14 1.16699 22.167 3.5 24.5s10.5 3.5 24.5 3.5h200c30.667 0 59.667 -6.16699 87 -18.5s49.666 -31.5 66.999 -57.5s26 -58.667 26 -98s-8.66699 -71.833 -26 -97.5s-39.666 -44.834 -66.999 -57.501s-56.333 -19 -87 -19h-200z" />
    <glyph glyph-name="macron" unicode="&#xaf;" horiz-adv-x="1000" 
d="M260 1712c0 -14 2.66699 -22.835 8 -26.502s14.333 -5.5 27 -5.5h423c10.667 0 17 2.33301 19 7s3 12.334 3 23.001v31c0 13.333 -2.5 21.833 -7.5 25.5s-13.833 5.5 -26.5 5.5h-426c-8.66699 0 -14.167 -2.16699 -16.5 -6.5s-3.5 -11.166 -3.5 -20.499v-33z" />
    <glyph glyph-name="degree" unicode="&#xb0;" horiz-adv-x="639" 
d="M320 1120c68 0 125.167 22.833 171.5 68.5s69.5 102.5 69.5 170.5c0 68.667 -23 126 -69 172s-103.333 69 -172 69c-68 0 -125 -23.167 -171 -69.5s-69 -103.5 -69 -171.5s23 -124.833 69 -170.5s103 -68.5 171 -68.5zM320 1230c-36.667 0 -67.667 12.333 -93 37
s-38 55.334 -38 92.001c0 37.333 12.667 68.5 38 93.5s56.333 37.5 93 37.5c37.333 0 68.333 -12.5 93 -37.5s37 -56.167 37 -93.5c0 -36.667 -12.333 -67.334 -37 -92.001s-55.667 -37 -93 -37z" />
    <glyph glyph-name="plusminus" unicode="&#xb1;" horiz-adv-x="1059" 
d="M473 361h113v355h353v112h-353v352h-113v-352h-353v-112h353v-355zM121 -15h819v112h-819v-112z" />
    <glyph glyph-name="uni00B2" unicode="&#xb2;" horiz-adv-x="675" 
d="M634 1109c0 7.33301 -0.832031 11.9932 -2.49902 13.9932s-6.16699 3 -13.5 3h-24c-8 0 -12.667 -0.833008 -14 -2.5s-2.33301 -6.16699 -3 -13.5c-2 -27.333 -11 -48.666 -27 -63.999s-41.667 -23 -77 -23c-30 0 -56.667 4.33301 -80 13l-69.5 26
c-23 8.66699 -49.5 13 -79.5 13c-24 0 -45.5 -4.16699 -64.5 -12.5s-35.5 -19.5 -49.5 -33.5c-8 -8.66699 -13 -16.667 -15 -24s-5.66699 -11 -11 -11c-3.33301 0 -4.5 2 -3.5 6s3.16699 9.16699 6.5 15.5s6.33301 13.166 9 20.499c16 40.667 41.333 80.334 76 119.001
s80.667 74.334 138 107.001c42.667 24 82 48.333 118 73s67.333 50.334 94 77.001s47.334 55.334 62.001 86.001s22 64 22 100c0 78 -26.167 135.5 -78.5 172.5s-120.833 55.5 -205.5 55.5c-58.667 0 -109.167 -10.167 -151.5 -30.5s-74.833 -47 -97.5 -80
s-34 -67.833 -34 -104.5c0 -19.333 4.33301 -34.666 13 -45.999s19.167 -19.666 31.5 -24.999s24.166 -8 35.499 -8c16 0 31.833 6 47.5 18s23.5 29.333 23.5 52c0 13.333 -2.83301 24.333 -8.5 33s-12.167 15.834 -19.5 21.501s-13.833 11 -19.5 16s-8.5 10.833 -8.5 17.5
c0 11.333 7.66699 23.666 23 36.999s35.833 24.833 61.5 34.5s54.167 14.5 85.5 14.5c54 0 95.5 -13.333 124.5 -40s43.5 -66.667 43.5 -120c0 -34 -5.66699 -65 -17 -93s-26.5 -53.5 -45.5 -76.5s-39.667 -43.833 -62 -62.5s-44.833 -35.667 -67.5 -51
c-83.333 -58.667 -146.833 -119.334 -190.5 -182.001s-66.834 -136 -69.501 -220c0 -5.33301 0.666992 -9.5 2 -12.5s5.33301 -4.5 12 -4.5h29c8 0 13.333 1.66699 16 5s5 7.66602 7 12.999c6 12.667 14 22.834 24 30.501s24 11.5 42 11.5c22 0 43.667 -3.66699 65 -11
s43.5 -15.666 66.5 -24.999s47.833 -17.666 74.5 -24.999s56 -11 88 -11c34.667 0 65.167 6.33301 91.5 19s46.5 34 60.5 64s19.333 71.333 16 124z" />
    <glyph glyph-name="uni00B3" unicode="&#xb3;" horiz-adv-x="638" 
d="M40 1093c0 -32.667 10.001 -63.6738 30.001 -93.0068s50 -53 90 -71s90.333 -27 151 -27c45.333 0 85.833 6.16699 121.5 18.5s65.667 29.666 90 51.999s43 48 56 77s19.5 59.833 19.5 92.5c0 46 -10.5 88.5 -31.5 127.5s-61.167 69.167 -120.5 90.5
c-12.667 4.66699 -23.834 7.33398 -33.501 8.00098s-14.5 3.33398 -14.5 8.00098c0 6.66699 2.83301 10.167 8.5 10.5s19.834 5.5 42.501 15.5c34.667 16.667 61 37 79 61s30.167 49.833 36.5 77.5s9.5 55.167 9.5 82.5c0 48 -12.5 87 -37.5 117s-56.667 51.833 -95 65.5
s-77.833 20.5 -118.5 20.5c-56.667 0 -103.167 -9 -139.5 -27s-63.333 -41.333 -81 -70s-26.5 -59.667 -26.5 -93c0 -18.667 4 -33.834 12 -45.501s17.833 -20.167 29.5 -25.5s23.5 -8 35.5 -8c16 0 31.333 6.16699 46 18.5s22 29.5 22 51.5
c0 10.667 -1.83301 19.5 -5.5 26.5s-8.16699 13 -13.5 18s-9.83301 9.83301 -13.5 14.5s-5.5 10.667 -5.5 18c0 16 9.83301 32 29.5 48s48.5 24 86.5 24c53.333 0 92.333 -14.333 117 -43s37 -65.334 37 -110.001c0 -17.333 -1.33301 -37 -4 -59s-9 -43.667 -19 -65
s-25.667 -40.166 -47 -56.499s-51 -27.166 -89 -32.499c-8.66699 -1.33301 -17.167 -1.83301 -25.5 -1.5s-15.166 -1 -20.499 -4s-8 -10.5 -8 -22.5v-11c0 -11.333 2.66699 -18.666 8 -21.999s12.166 -4.66602 20.499 -3.99902s16.833 0.333984 25.5 -0.999023
c52 -6 91 -20 117 -42s43.5 -47.5 52.5 -76.5s13.5 -56.833 13.5 -83.5c0 -29.333 -5.83301 -58.666 -17.5 -87.999s-30.334 -53.666 -56.001 -72.999s-60.5 -29 -104.5 -29c-33.333 0 -61.333 4 -84 12s-39.667 17.5 -51 28.5s-17 22.167 -17 33.5
c0 6.66699 1.83301 12.5 5.5 17.5s8.16699 10 13.5 15s9.83301 10.833 13.5 17.5s5.5 15.334 5.5 26.001c0 22.667 -7.33301 40 -22 52s-30 18 -46 18c-17.333 0 -34.5 -6 -51.5 -18s-25.5 -32.333 -25.5 -61z" />
    <glyph glyph-name="acute" unicode="&#xb4;" horiz-adv-x="790" 
d="M605 1440c19.333 0.666992 35.833 7.83301 49.5 21.5s20.5 29.834 20.5 48.501c0 12.667 -3.66699 24.834 -11 36.501s-17.666 20.667 -30.999 27s-29.333 7.16602 -48 2.49902l-437 -106c-12.667 -2.66699 -22.5 -5.83398 -29.5 -9.50098s-9.83301 -10.5 -8.5 -20.5
c1.33301 -9.33301 4.16602 -15 8.49902 -17s12.833 -2.66699 25.5 -2z" />
    <glyph glyph-name="mu" unicode="&#xb5;" horiz-adv-x="1233" 
d="M332 847l-111.998 0.000976562v-1089c0 -83.333 26.5 -150.5 79.5 -201.5s119.833 -76.5 200.5 -76.5c33.333 0 62.5 5.33301 87.5 16s44.5 26.5 58.5 47.5s21 46.5 21 76.5c0 36 -11.667 67.333 -35 94s-52.666 40 -87.999 40c-32.667 0 -61.334 -10.833 -86.001 -32.5
s-37 -46.167 -37 -73.5c0 -18 1.5 -31 4.5 -39s5.83301 -13.333 8.5 -16s2.66699 -5.33398 0 -8.00098c-2 -2 -8.33301 -2 -19 0s-22.334 8.5 -35.001 19.5s-23.834 28.667 -33.501 53s-14.5 57.833 -14.5 100.5v1089zM220.002 302.001
c0 -71.333 9.33691 -130.832 28.0039 -178.499s51.5 -83.5 98.5 -107.5s112.833 -36 197.5 -36c87.333 0 158.166 17.167 212.499 51.5s97.5 78.166 129.5 131.499c7.33301 12 13.166 16 17.499 12s6.5 -9.33301 6.5 -16v-121c0 -15.333 2 -25.5 6 -30.5
s13.333 -7.5 28 -7.5h298c13.333 0 21.333 2.33301 24 7s4 13.667 4 27v52c0 10.667 -3.33301 17.334 -10 20.001s-14.667 4 -24 4h-112c-15.333 0 -24.833 2 -28.5 6s-5.5 13.333 -5.5 28v866c0 11.333 -1.33301 19.166 -4 23.499s-9.33398 6.5 -20.001 6.5h-312
c-10 0 -16.5 -2 -19.5 -6s-4.5 -11.333 -4.5 -22v-63c0 -8.66699 2.5 -14 7.5 -16s11.833 -3 20.5 -3h110c14.667 0 25.334 -1.66699 32.001 -5s10 -13 10 -29v-422c0 -68.667 -13 -133.5 -39 -194.5s-63 -110.5 -111 -148.5s-104.667 -57 -170 -57
c-66 0 -114.167 23.167 -144.5 69.5s-45.5 106.5 -45.5 180.5v685c0 14.667 -2.5 23.5 -7.5 26.5s-15.167 4.5 -30.5 4.5h-286c-14.667 0 -24.334 -2.16699 -29.001 -6.5s-7 -14.166 -7 -29.499v-46c0 -13.333 2.66699 -21.333 8 -24s14.666 -4 27.999 -4h118
c12 0 19.333 -2.33301 22 -7s4 -13.334 4 -26.001v-595z" />
    <glyph glyph-name="paragraph" unicode="&#xb6;" horiz-adv-x="1332" 
d="M535 -270c0 -14.667 4.49805 -23.332 13.498 -25.999s19.833 -4 32.5 -4h626c16.667 0 27.334 2.66699 32.001 8s7 16.333 7 33v45c0 13.333 -2.5 21.166 -7.5 23.499s-14.167 3.5 -27.5 3.5h-104c-18.667 0 -30.167 5 -34.5 15s-6.5 23.333 -6.5 40v1468
c0 21.333 2 35.166 6 41.499s16.333 9.5 37 9.5h90c19.333 0 32 2.16699 38 6.5s9 15.833 9 34.5v38c0 15.333 -2.66699 24.833 -8 28.5s-15 5.5 -29 5.5h-613c-64.667 0 -125.334 -7.16699 -182.001 -21.5s-106.667 -36.333 -150 -66s-77.166 -67.167 -101.499 -112.5
s-36.5 -99 -36.5 -161s12.333 -115.5 37 -160.5s58.667 -82.333 102 -112s93.333 -51.667 150 -66s117 -21.5 181 -21.5h77c16.667 0 27.834 -2.16699 33.501 -6.5s8.5 -15.166 8.5 -32.499v-894c0 -16 -3 -25.5 -9 -28.5s-17 -4.5 -33 -4.5h-88
c-24.667 0 -39.167 -3.66699 -43.5 -11s-6.5 -23.333 -6.5 -48v-24zM952.998 -143.998c0 -20.667 -3.33301 -33 -10 -37s-20.667 -6 -42 -6h-36c-18.667 0 -29.5 4.33301 -32.5 13s-4.5 21.334 -4.5 38.001v1478c0 19.333 2.5 31.666 7.5 36.999s16.833 8 35.5 8h44
c14.667 0 24.667 -1.33301 30 -4s8 -11 8 -25v-1502z" />
    <glyph glyph-name="periodcentered" unicode="&#xb7;" horiz-adv-x="395" 
d="M115 800c0 -22 5.5 -42.167 16.5 -60.5s25.5 -32.833 43.5 -43.5s38 -16 60 -16s42.167 5.33301 60.5 16s32.833 25.167 43.5 43.5s16 38.5 16 60.5s-5.33301 42 -16 60s-25.167 32.5 -43.5 43.5s-38.5 16.5 -60.5 16.5s-42 -5.5 -60 -16.5s-32.5 -25.5 -43.5 -43.5
s-16.5 -38 -16.5 -60z" />
    <glyph glyph-name="cedilla" unicode="&#xb8;" horiz-adv-x="1000" 
d="M345 -480c0 -20 8.33398 -29.665 25.001 -28.998c39.333 1.33301 77.5 5.66602 114.5 12.999s70.5 18.666 100.5 33.999s53.833 35.5 71.5 60.5s26.5 55.5 26.5 91.5c0 56 -16.667 95.5 -50 118.5s-77.333 36.833 -132 41.5c-18 1.33301 -27.833 2.83301 -29.5 4.5
s1.83301 8.16699 10.5 19.5l89 118l11.5 15.5c2.33301 3 -4.16699 4.5 -19.5 4.5h-51c-8 0 -13 -0.5 -15 -1.5s-4.66699 -3.83301 -8 -8.5l-151 -202c-6.66699 -8.66699 -8.66699 -15.167 -6 -19.5s13.667 -7.5 33 -9.5c30 -2.66699 58.5 -7.16699 85.5 -13.5
s48.833 -16.833 65.5 -31.5s25 -35.334 25 -62.001c0 -32.667 -17.333 -56.667 -52 -72s-72.334 -24.666 -113.001 -27.999c-10 -0.666992 -17.667 -2.5 -23 -5.5s-8 -10.167 -8 -21.5v-17z" />
    <glyph glyph-name="uni00B9" unicode="&#xb9;" horiz-adv-x="630" 
d="M60 935c0 -9.33301 1.16699 -15.4971 3.5 -18.4971s7.83301 -4.5 16.5 -4.5h470c9.33301 0 15 1.66699 17 5s3 9.66602 3 18.999v24c0 8.66699 -2.5 13.834 -7.5 15.501s-11.167 2.5 -18.5 2.5h-134c-14 0 -22.833 1.66699 -26.5 5s-5.5 12 -5.5 26v835
c0 8 -2 12.667 -6 14s-9.66699 2 -17 2h-17c-10 0 -15.833 -2.66699 -17.5 -8s-4.16699 -11 -7.5 -17c-17.333 -38.667 -34.5 -66.834 -51.5 -84.501s-37.5 -28.834 -61.5 -33.501s-55.333 -7 -94 -7c-11.333 0 -18.5 -1.83301 -21.5 -5.5s-4.5 -11.167 -4.5 -22.5v-18
c0 -9.33301 2.33301 -15 7 -17s11.334 -3 20.001 -3h134c10.667 0 17.167 -2 19.5 -6s3.5 -11.333 3.5 -22v-613c0 -10 -1.5 -16.667 -4.5 -20s-9.83301 -5 -20.5 -5h-155c-8.66699 0 -14.834 -0.833008 -18.501 -2.5s-5.5 -6.83398 -5.5 -15.501v-25z" />
    <glyph glyph-name="ordmasculine" unicode="&#xba;" horiz-adv-x="654" 
d="M166 1286c0 31.333 2.33398 62.166 7.00098 92.499s12.834 58 24.501 83s28 45 49 60s47.833 22.5 80.5 22.5c43.333 0 76.666 -13.167 99.999 -39.5s39.333 -61 48 -104s13 -89.167 13 -138.5c0 -31.333 -2.33301 -62.166 -7 -92.499s-12.834 -58 -24.501 -83
s-28 -45 -49 -60s-47.833 -22.5 -80.5 -22.5c-44 0 -77.5 13.167 -100.5 39.5s-38.833 61 -47.5 104s-13 89.167 -13 138.5zM40.001 1262c0 -56 10.5 -107.667 31.5 -155s52.667 -85.333 95 -114s95.833 -43 160.5 -43c64 0 117.333 14.667 160 44s74.5 69.333 95.5 120
s31.5 108 31.5 172c0 56 -10.5 107.667 -31.5 155s-52.833 85.333 -95.5 114s-96 43 -160 43c-64.667 0 -118.167 -14.667 -160.5 -44s-74 -69.333 -95 -120s-31.5 -108 -31.5 -172z" />
    <glyph glyph-name="guillemotright" unicode="&#xbb;" horiz-adv-x="1390" 
d="M528 775l-468 -395l60 -90l660 460v50l-660 460l-60 -90zM1088 775l-468 -395l60 -90l660 460v50l-660 460l-60 -90z" />
    <glyph glyph-name="onequarter" unicode="&#xbc;" horiz-adv-x="2000" 
d="M1402 1440l-932 -1500h138l922 1500h-128zM1688 54c0 8 -1.66797 12.668 -5.00098 14.001s-8.66602 2 -15.999 2h-46c-10 0 -16.333 1.33301 -19 4s-4 8.66699 -4 18v165c0 8.66699 1.16699 14.667 3.5 18s8.16602 5 17.499 5h65c8.66699 0 14.5 1 17.5 3s4.5 7 4.5 15
v27c0 8.66699 -1 14.334 -3 17.001s-7.33301 4 -16 4h-64c-10.667 0 -17.5 1.5 -20.5 4.5s-4.5 10.167 -4.5 21.5v195c0 7.33301 -0.666992 12.333 -2 15s-6 4 -14 4h-3c-7.33301 0 -11.5 -2 -12.5 -6s-2.5 -8.33301 -4.5 -13
c-8.66699 -27.333 -17.834 -48.833 -27.501 -64.5s-21.5 -28.834 -35.5 -39.501c-5.33301 -4 -9.16602 -7 -11.499 -9s-3.5 -8 -3.5 -18v-75c0 -6 -0.166992 -10 -0.5 -12s-3.83301 -3 -10.5 -3h-235c-11.333 0 -19.666 1.16699 -24.999 3.5s-8 5.66602 -8 9.99902
s1.66699 9.5 5 15.5c19.333 30.667 44.666 60 75.999 88s65 56.333 101 85s70.667 59.167 104 91.5s62 68 86 107s39.333 83.167 46 132.5c1.33301 11.333 0.333008 18.333 -3 21s-11 4 -23 4h-66c-12 0 -18.5 -3 -19.5 -9s-2.5 -13.667 -4.5 -23
c-12.667 -47.333 -31.334 -90 -56.001 -128s-52.834 -73.333 -84.501 -106l-95.5 -95.5c-32 -31 -61.833 -63 -89.5 -96s-50.167 -69.5 -67.5 -109.5c-3.33301 -8 -5.16602 -13.833 -5.49902 -17.5s2.16699 -8.16699 7.5 -13.5l16 -16c4 -4 7.83301 -6.66699 11.5 -8
s9.83398 -2 18.501 -2h302c9.33301 0 15 -1.5 17 -4.5s3 -9.16699 3 -18.5v-172c0 -6 -1.16699 -10 -3.5 -12s-6.83301 -3 -13.5 -3h-79c-7.33301 0 -12.166 -1.33301 -14.499 -4s-3.5 -8 -3.5 -16v-27c0 -8 1.33301 -13.167 4 -15.5s7.66699 -3.5 15 -3.5h280
c7.33301 0 12.333 0.833008 15 2.5s4 6.16699 4 13.5v34zM273.999 655.001c0 -9.33301 1.16699 -15.4971 3.5 -18.4971s7.83301 -4.5 16.5 -4.5h470c9.33301 0 15 1.66699 17 5s3 9.66602 3 18.999v24c0 8.66699 -2.5 13.834 -7.5 15.501s-11.167 2.5 -18.5 2.5h-134
c-14 0 -22.833 1.66699 -26.5 5s-5.5 12 -5.5 26v835c0 8 -2 12.667 -6 14s-9.66699 2 -17 2h-17c-10 0 -15.833 -2.66699 -17.5 -8s-4.16699 -11 -7.5 -17c-17.333 -38.667 -34.5 -66.834 -51.5 -84.501s-37.5 -28.834 -61.5 -33.501s-55.333 -7 -94 -7
c-11.333 0 -18.5 -1.83301 -21.5 -5.5s-4.5 -11.167 -4.5 -22.5v-18c0 -9.33301 2.33301 -15 7 -17s11.334 -3 20.001 -3h134c10.667 0 17.167 -2 19.5 -6s3.5 -11.333 3.5 -22v-613c0 -10 -1.5 -16.667 -4.5 -20s-9.83301 -5 -20.5 -5h-155
c-8.66699 0 -14.834 -0.833008 -18.501 -2.5s-5.5 -6.83398 -5.5 -15.501v-25z" />
    <glyph glyph-name="onehalf" unicode="&#xbd;" horiz-adv-x="2000" 
d="M1402 1450l-932 -1500h138l922 1500h-128zM1794 179c0 7.33301 -0.832031 11.9932 -2.49902 13.9932s-6.16699 3 -13.5 3h-24c-8 0 -12.667 -0.833008 -14 -2.5s-2.33301 -6.16699 -3 -13.5c-2 -27.333 -11 -48.666 -27 -63.999s-41.667 -23 -77 -23
c-30 0 -56.667 4.33301 -80 13l-69.5 26c-23 8.66699 -49.5 13 -79.5 13c-24 0 -45.5 -4.16699 -64.5 -12.5s-35.5 -19.5 -49.5 -33.5c-8 -8.66699 -13 -16.667 -15 -24s-5.66699 -11 -11 -11c-3.33301 0 -4.5 2 -3.5 6s3.16699 9.16699 6.5 15.5s6.33301 13.166 9 20.499
c16 40.667 41.333 80.334 76 119.001s80.667 74.334 138 107.001c42.667 24 82 48.333 118 73s67.333 50.334 94 77.001s47.334 55.334 62.001 86.001s22 64 22 100c0 78 -26.167 135.5 -78.5 172.5s-120.833 55.5 -205.5 55.5c-58.667 0 -109.167 -10.167 -151.5 -30.5
s-74.833 -47 -97.5 -80s-34 -67.833 -34 -104.5c0 -19.333 4.33301 -34.666 13 -45.999s19.167 -19.666 31.5 -24.999s24.166 -8 35.499 -8c16 0 31.833 6 47.5 18s23.5 29.333 23.5 52c0 13.333 -2.83301 24.333 -8.5 33s-12.167 15.834 -19.5 21.501s-13.833 11 -19.5 16
s-8.5 10.833 -8.5 17.5c0 11.333 7.66699 23.666 23 36.999s35.833 24.833 61.5 34.5s54.167 14.5 85.5 14.5c54 0 95.5 -13.333 124.5 -40s43.5 -66.667 43.5 -120c0 -34 -5.66699 -65 -17 -93s-26.5 -53.5 -45.5 -76.5s-39.667 -43.833 -62 -62.5
s-44.833 -35.667 -67.5 -51c-83.333 -58.667 -146.833 -119.334 -190.5 -182.001s-66.834 -136 -69.501 -220c0 -5.33301 0.666992 -9.5 2 -12.5s5.33301 -4.5 12 -4.5h29c8 0 13.333 1.66699 16 5s5 7.66602 7 12.999c6 12.667 14 22.834 24 30.501s24 11.5 42 11.5
c22 0 43.667 -3.66699 65 -11s43.5 -15.666 66.5 -24.999s47.833 -17.666 74.5 -24.999s56 -11 88 -11c34.667 0 65.167 6.33301 91.5 19s46.5 34 60.5 64s19.333 71.333 16 124zM274.001 644.993c0 -9.33301 1.16699 -15.4971 3.5 -18.4971s7.83301 -4.5 16.5 -4.5h470
c9.33301 0 15 1.66699 17 5s3 9.66602 3 18.999v24c0 8.66699 -2.5 13.834 -7.5 15.501s-11.167 2.5 -18.5 2.5h-134c-14 0 -22.833 1.66699 -26.5 5s-5.5 12 -5.5 26v835c0 8 -2 12.667 -6 14s-9.66699 2 -17 2h-17c-10 0 -15.833 -2.66699 -17.5 -8s-4.16699 -11 -7.5 -17
c-17.333 -38.667 -34.5 -66.834 -51.5 -84.501s-37.5 -28.834 -61.5 -33.501s-55.333 -7 -94 -7c-11.333 0 -18.5 -1.83301 -21.5 -5.5s-4.5 -11.167 -4.5 -22.5v-18c0 -9.33301 2.33301 -15 7 -17s11.334 -3 20.001 -3h134c10.667 0 17.167 -2 19.5 -6s3.5 -11.333 3.5 -22
v-613c0 -10 -1.5 -16.667 -4.5 -20s-9.83301 -5 -20.5 -5h-155c-8.66699 0 -14.834 -0.833008 -18.501 -2.5s-5.5 -6.83398 -5.5 -15.501v-25z" />
    <glyph glyph-name="threequarters" unicode="&#xbe;" horiz-adv-x="2000" 
d="M1402 1400l-932 -1500h138l922 1500h-128zM1688 14c0 8 -1.66797 12.668 -5.00098 14.001s-8.66602 2 -15.999 2h-46c-10 0 -16.333 1.33301 -19 4s-4 8.66699 -4 18v165c0 8.66699 1.16699 14.667 3.5 18s8.16602 5 17.499 5h65c8.66699 0 14.5 1 17.5 3s4.5 7 4.5 15
v27c0 8.66699 -1 14.334 -3 17.001s-7.33301 4 -16 4h-64c-10.667 0 -17.5 1.5 -20.5 4.5s-4.5 10.167 -4.5 21.5v195c0 7.33301 -0.666992 12.333 -2 15s-6 4 -14 4h-3c-7.33301 0 -11.5 -2 -12.5 -6s-2.5 -8.33301 -4.5 -13
c-8.66699 -27.333 -17.834 -48.833 -27.501 -64.5s-21.5 -28.834 -35.5 -39.501c-5.33301 -4 -9.16602 -7 -11.499 -9s-3.5 -8 -3.5 -18v-75c0 -6 -0.166992 -10 -0.5 -12s-3.83301 -3 -10.5 -3h-235c-11.333 0 -19.666 1.16699 -24.999 3.5s-8 5.66602 -8 9.99902
s1.66699 9.5 5 15.5c19.333 30.667 44.666 60 75.999 88s65 56.333 101 85s70.667 59.167 104 91.5s62 68 86 107s39.333 83.167 46 132.5c1.33301 11.333 0.333008 18.333 -3 21s-11 4 -23 4h-66c-12 0 -18.5 -3 -19.5 -9s-2.5 -13.667 -4.5 -23
c-12.667 -47.333 -31.334 -90 -56.001 -128s-52.834 -73.333 -84.501 -106l-95.5 -95.5c-32 -31 -61.833 -63 -89.5 -96s-50.167 -69.5 -67.5 -109.5c-3.33301 -8 -5.16602 -13.833 -5.49902 -17.5s2.16699 -8.16699 7.5 -13.5l16 -16c4 -4 7.83301 -6.66699 11.5 -8
s9.83398 -2 18.501 -2h302c9.33301 0 15 -1.5 17 -4.5s3 -9.16699 3 -18.5v-172c0 -6 -1.16699 -10 -3.5 -12s-6.83301 -3 -13.5 -3h-79c-7.33301 0 -12.166 -1.33301 -14.499 -4s-3.5 -8 -3.5 -16v-27c0 -8 1.33301 -13.167 4 -15.5s7.66699 -3.5 15 -3.5h280
c7.33301 0 12.333 0.833008 15 2.5s4 6.16699 4 13.5v34zM159.999 793.001c0 -32.667 10 -63.6738 30 -93.0068s50 -53 90 -71s90.333 -27 151 -27c45.333 0 85.833 6.16699 121.5 18.5s65.667 29.666 90 51.999s43 48 56 77s19.5 59.833 19.5 92.5
c0 46 -10.5 88.5 -31.5 127.5s-61.167 69.167 -120.5 90.5c-12.667 4.66699 -23.834 7.33398 -33.501 8.00098s-14.5 3.33398 -14.5 8.00098c0 6.66699 2.83301 10.167 8.5 10.5s19.834 5.5 42.501 15.5c34.667 16.667 61 37 79 61s30.167 49.833 36.5 77.5
s9.5 55.167 9.5 82.5c0 48 -12.5 87 -37.5 117s-56.667 51.833 -95 65.5s-77.833 20.5 -118.5 20.5c-56.667 0 -103.167 -9 -139.5 -27s-63.333 -41.333 -81 -70s-26.5 -59.667 -26.5 -93c0 -18.667 4 -33.834 12 -45.501s17.833 -20.167 29.5 -25.5s23.5 -8 35.5 -8
c16 0 31.333 6.16699 46 18.5s22 29.5 22 51.5c0 10.667 -1.83301 19.5 -5.5 26.5s-8.16699 13 -13.5 18s-9.83301 9.83301 -13.5 14.5s-5.5 10.667 -5.5 18c0 16 9.83301 32 29.5 48s48.5 24 86.5 24c53.333 0 92.333 -14.333 117 -43s37 -65.334 37 -110.001
c0 -17.333 -1.33301 -37 -4 -59s-9 -43.667 -19 -65s-25.667 -40.166 -47 -56.499s-51 -27.166 -89 -32.499c-8.66699 -1.33301 -17.167 -1.83301 -25.5 -1.5s-15.166 -1 -20.499 -4s-8 -10.5 -8 -22.5v-11c0 -11.333 2.66699 -18.666 8 -21.999
s12.166 -4.66602 20.499 -3.99902s16.833 0.333984 25.5 -0.999023c52 -6 91 -20 117 -42s43.5 -47.5 52.5 -76.5s13.5 -56.833 13.5 -83.5c0 -29.333 -5.66699 -58.666 -17 -87.999s-30 -53.666 -56 -72.999s-61 -29 -105 -29c-33.333 0 -61.333 4 -84 12
s-39.667 17.5 -51 28.5s-17 22.167 -17 33.5c0 6.66699 1.83301 12.5 5.5 17.5s8.16699 10 13.5 15s9.83301 10.833 13.5 17.5s5.5 15.334 5.5 26.001c0 22.667 -7.33301 40 -22 52s-30 18 -46 18c-17.333 0 -34.5 -6 -51.5 -18s-25.5 -32.333 -25.5 -61z" />
    <glyph glyph-name="questiondown" unicode="&#xbf;" 
d="M792 -284c0 -22 -16.334 -46.168 -49.001 -72.501s-91 -39.5 -175 -39.5c-66 0 -119.167 14.333 -159.5 43s-69.833 65.667 -88.5 111s-28 92.666 -28 141.999c0 96.667 30 183.334 90 260.001s138.333 133 235 169c15.333 5.33301 25.666 11.333 30.999 18
s8 20.667 8 42v196c0 17.333 -3 27.833 -9 31.5s-17.667 5.5 -35 5.5h-37c-15.333 0 -25.666 -1.66699 -30.999 -5s-8 -12.666 -8 -27.999v-136c0 -21.333 -3.83301 -34.5 -11.5 -39.5s-19.5 -9.5 -35.5 -13.5c-82 -20.667 -152.833 -54.667 -212.5 -102
s-105.667 -102.333 -138 -165s-48.5 -127 -48.5 -193c0 -86.667 17.5 -161.334 52.5 -224.001s87.833 -111 158.5 -145s159.667 -51 267 -51c94.667 0 174 16.833 238 50.5s112.333 76.334 145 128.001s49 104.834 49 159.501c0 32 -6.33301 58.5 -19 79.5
s-29.167 36.667 -49.5 47s-42.166 15.5 -65.499 15.5s-45.333 -4.16699 -66 -12.5s-37.5 -21.333 -50.5 -39s-19.5 -40.5 -19.5 -68.5c0 -25.333 3.16699 -45.5 9.5 -60.5s13.5 -27.333 21.5 -37s15.167 -19.334 21.5 -29.001s9.5 -22.167 9.5 -37.5zM676.999 939.999
c0 22 -5.33301 42.167 -16 60.5s-25.167 32.833 -43.5 43.5s-38.5 16 -60.5 16s-42 -5.33301 -60 -16s-32.5 -25.167 -43.5 -43.5s-16.5 -38.5 -16.5 -60.5s5.5 -42 16.5 -60s25.5 -32.5 43.5 -43.5s38 -16.5 60 -16.5s42.167 5.5 60.5 16.5s32.833 25.5 43.5 43.5
s16 38 16 60z" />
    <glyph glyph-name="Agrave" unicode="&#xc0;" horiz-adv-x="1720" 
d="M888 1669c7.33301 -4.66699 12.833 -6.33398 16.5 -5.00098s8.16699 5 13.5 11l34 36c11.333 12 11 24 -1 36l-194 189c-12 12.667 -26.667 20.334 -44 23.001s-34 0.666992 -50 -6s-28.667 -17.667 -38 -33c-14.667 -24.667 -18 -47.167 -10 -67.5
s20.333 -35.5 37 -45.5zM816 1262c7.33301 17.333 12.668 25.667 16.001 25s8.66602 -11 15.999 -31l248 -660c8 -21.333 11.333 -34.333 10 -39s-17.333 -7 -48 -7h-506c-18 0 -28.333 1.66699 -31 5s-1.66699 11 3 23zM0.00195312 42.001c0 -20 3.66699 -32 11 -36
s20.333 -6 39 -6h478c16 0 25.333 1.33301 28 4s4 12 4 28v48c0 12.667 -2.33301 20.834 -7 24.501s-13 5.5 -25 5.5h-151c-22 0 -34.333 4 -37 12s-0.666992 20 6 36l103 242c6.66699 15.333 13.834 25.833 21.501 31.5s22.834 8.5 45.501 8.5h580c32 0 51 -3.33301 57 -10
s13.333 -21.334 22 -44.001l90 -240c3.33301 -9.33301 5.33301 -17.666 6 -24.999s-7 -11 -23 -11h-152c-12.667 0 -21.834 -1.83301 -27.501 -5.5s-8.5 -12.5 -8.5 -26.5v-46c0 -14.667 3.16699 -23.667 9.5 -27s15.833 -5 28.5 -5h590c15.333 0 24.5 2 27.5 6
s4.5 13.667 4.5 29v44c0 13.333 -1.33301 21.833 -4 25.5s-10.667 5.5 -24 5.5h-158c-22.667 0 -36 3.33301 -40 10s-9.33301 18 -16 34l-543 1364c-2 5.33301 -4.83301 8.66602 -8.5 9.99902s-9.5 2 -17.5 2h-80c-6.66699 0 -11.334 -0.5 -14.001 -1.5s-5 -3.83301 -7 -8.5
l-593 -1370c-6 -14 -12.333 -24.167 -19 -30.5s-20.667 -9.5 -42 -9.5h-126c-10.667 0 -18 -1.83301 -22 -5.5s-6 -10.5 -6 -20.5v-42z" />
    <glyph glyph-name="Aacute" unicode="&#xc1;" horiz-adv-x="1720" 
d="M809 1677c7.33301 -8 13.5 -11.8311 18.5 -11.498s11.833 3.16602 20.5 8.49902l228 133c17.333 10 29.833 25.167 37.5 45.5s4.16699 42.833 -10.5 67.5c-8.66699 15.333 -21.167 26.333 -37.5 33s-33 8.66699 -50 6s-31.833 -10.334 -44.5 -23.001l-196 -191
c-10.667 -10 -10.667 -20.667 0 -32zM816 1262c7.33301 17.333 12.668 25.667 16.001 25s8.66602 -11 15.999 -31l248 -660c8 -21.333 11.333 -34.333 10 -39s-17.333 -7 -48 -7h-506c-18 0 -28.333 1.66699 -31 5s-1.66699 11 3 23zM0.00195312 42.0029
c0 -20 3.66699 -32 11 -36s20.333 -6 39 -6h478c16 0 25.333 1.33301 28 4s4 12 4 28v48c0 12.667 -2.33301 20.834 -7 24.501s-13 5.5 -25 5.5h-151c-22 0 -34.333 4 -37 12s-0.666992 20 6 36l103 242c6.66699 15.333 13.834 25.833 21.501 31.5s22.834 8.5 45.501 8.5
h580c32 0 51 -3.33301 57 -10s13.333 -21.334 22 -44.001l90 -240c3.33301 -9.33301 5.33301 -17.666 6 -24.999s-7 -11 -23 -11h-152c-12.667 0 -21.834 -1.83301 -27.501 -5.5s-8.5 -12.5 -8.5 -26.5v-46c0 -14.667 3.16699 -23.667 9.5 -27s15.833 -5 28.5 -5h590
c15.333 0 24.5 2 27.5 6s4.5 13.667 4.5 29v44c0 13.333 -1.33301 21.833 -4 25.5s-10.667 5.5 -24 5.5h-158c-22.667 0 -36 3.33301 -40 10s-9.33301 18 -16 34l-543 1364c-2 5.33301 -4.83301 8.66602 -8.5 9.99902s-9.5 2 -17.5 2h-80
c-6.66699 0 -11.334 -0.5 -14.001 -1.5s-5 -3.83301 -7 -8.5l-593 -1370c-6 -14 -12.333 -24.167 -19 -30.5s-20.667 -9.5 -42 -9.5h-126c-10.667 0 -18 -1.83301 -22 -5.5s-6 -10.5 -6 -20.5v-42z" />
    <glyph glyph-name="Acircumflex" unicode="&#xc2;" horiz-adv-x="1720" 
d="M607 1690c12.667 -12.667 24.666 -14.667 35.999 -6l197 147c16 12 32.667 11.667 50 -1l195 -145c8.66699 -6 14.334 -9.16699 17.001 -9.5s7.66699 3.16699 15 10.5l33 33c5.33301 5.33301 7.83301 9 7.5 11s-3.16602 5.33301 -8.49902 10l-192 192
c-6 6 -11.833 10.333 -17.5 13s-15.167 4 -28.5 4h-85c-14.667 0 -25.334 -1 -32.001 -3s-13.667 -6.66699 -21 -14l-188 -188c-7.33301 -7.33301 -11 -12.333 -11 -15s3.66699 -7.66699 11 -15zM815.999 1262c7.33301 17.333 12.668 25.667 16.001 25
s8.66602 -11 15.999 -31l248 -660c8 -21.333 11.333 -34.333 10 -39s-17.333 -7 -48 -7h-506c-18 0 -28.333 1.66699 -31 5s-1.66699 11 3 23zM0.000976562 42.001c0 -20 3.66699 -32 11 -36s20.333 -6 39 -6h478c16 0 25.333 1.33301 28 4s4 12 4 28v48
c0 12.667 -2.33301 20.834 -7 24.501s-13 5.5 -25 5.5h-151c-22 0 -34.333 4 -37 12s-0.666992 20 6 36l103 242c6.66699 15.333 13.834 25.833 21.501 31.5s22.834 8.5 45.501 8.5h580c32 0 51 -3.33301 57 -10s13.333 -21.334 22 -44.001l90 -240
c3.33301 -9.33301 5.33301 -17.666 6 -24.999s-7 -11 -23 -11h-152c-12.667 0 -21.834 -1.83301 -27.501 -5.5s-8.5 -12.5 -8.5 -26.5v-46c0 -14.667 3.16699 -23.667 9.5 -27s15.833 -5 28.5 -5h590c15.333 0 24.5 2 27.5 6s4.5 13.667 4.5 29v44
c0 13.333 -1.33301 21.833 -4 25.5s-10.667 5.5 -24 5.5h-158c-22.667 0 -36 3.33301 -40 10s-9.33301 18 -16 34l-543 1364c-2 5.33301 -4.83301 8.66602 -8.5 9.99902s-9.5 2 -17.5 2h-80c-6.66699 0 -11.334 -0.5 -14.001 -1.5s-5 -3.83301 -7 -8.5l-593 -1370
c-6 -14 -12.333 -24.167 -19 -30.5s-20.667 -9.5 -42 -9.5h-126c-10.667 0 -18 -1.83301 -22 -5.5s-6 -10.5 -6 -20.5v-42z" />
    <glyph glyph-name="Atilde" unicode="&#xc3;" horiz-adv-x="1720" 
d="M1014 1680c46 0 83.498 9.00195 112.498 27.002s50.833 44.333 65.5 79s22.667 76.667 24 126c0.666992 8 0 13.667 -2 17s-7.66699 5 -17 5h-33c-9.33301 0 -15.166 -1.66699 -17.499 -5s-3.83301 -9 -4.5 -17c-5.33301 -77.333 -42.333 -116 -111 -116
c-26.667 0 -48.667 9.16699 -66 27.5l-48 51.5c-19.333 21.333 -42.833 39.833 -70.5 55.5s-62.5 23.5 -104.5 23.5c-41.333 0 -77.833 -9.83301 -109.5 -29.5s-57.167 -46.334 -76.5 -80.001s-31 -71.834 -35 -114.501c-0.666992 -10 -0.166992 -17.5 1.5 -22.5
s8.16699 -7.5 19.5 -7.5h32c12.667 0 19.334 4.66699 20.001 14c1.33301 40 10.833 70.667 28.5 92s45.167 32 82.5 32c30 0 55.167 -9 75.5 -27s38.833 -35.333 55.5 -52c21.333 -20.667 45.833 -39 73.5 -55s62.5 -24 104.5 -24zM815.998 1262
c7.33301 17.333 12.668 25.667 16.001 25s8.66602 -11 15.999 -31l248 -660c8 -21.333 11.333 -34.333 10 -39s-17.333 -7 -48 -7h-506c-18 0 -28.333 1.66699 -31 5s-1.66699 11 3 23zM0 42.0029c0 -20 3.66699 -32 11 -36s20.333 -6 39 -6h478c16 0 25.333 1.33301 28 4
s4 12 4 28v48c0 12.667 -2.33301 20.834 -7 24.501s-13 5.5 -25 5.5h-151c-22 0 -34.333 4 -37 12s-0.666992 20 6 36l103 242c6.66699 15.333 13.834 25.833 21.501 31.5s22.834 8.5 45.501 8.5h580c32 0 51 -3.33301 57 -10s13.333 -21.334 22 -44.001l90 -240
c3.33301 -9.33301 5.33301 -17.666 6 -24.999s-7 -11 -23 -11h-152c-12.667 0 -21.834 -1.83301 -27.501 -5.5s-8.5 -12.5 -8.5 -26.5v-46c0 -14.667 3.16699 -23.667 9.5 -27s15.833 -5 28.5 -5h590c15.333 0 24.5 2 27.5 6s4.5 13.667 4.5 29v44
c0 13.333 -1.33301 21.833 -4 25.5s-10.667 5.5 -24 5.5h-158c-22.667 0 -36 3.33301 -40 10s-9.33301 18 -16 34l-543 1364c-2 5.33301 -4.83301 8.66602 -8.5 9.99902s-9.5 2 -17.5 2h-80c-6.66699 0 -11.334 -0.5 -14.001 -1.5s-5 -3.83301 -7 -8.5l-593 -1370
c-6 -14 -12.333 -24.167 -19 -30.5s-20.667 -9.5 -42 -9.5h-126c-10.667 0 -18 -1.83301 -22 -5.5s-6 -10.5 -6 -20.5v-42z" />
    <glyph glyph-name="Adieresis" unicode="&#xc4;" horiz-adv-x="1720" 
d="M1023 1690c26.667 0 49.334 9.33301 68.001 28s28 41.334 28 68.001s-9.33301 49.5 -28 68.5s-41.334 28.5 -68.001 28.5s-49.334 -9.5 -68.001 -28.5s-28 -41.833 -28 -68.5s9.33301 -49.334 28 -68.001s41.334 -28 68.001 -28zM703 1690
c26.667 0 49.334 9.33301 68.001 28s28 41.334 28 68.001s-9.33301 49.5 -28 68.5s-41.334 28.5 -68.001 28.5s-49.334 -9.5 -68.001 -28.5s-28 -41.833 -28 -68.5s9.33301 -49.334 28 -68.001s41.334 -28 68.001 -28zM816 1262c7.33301 17.333 12.668 25.667 16.001 25
s8.66602 -11 15.999 -31l248 -660c8 -21.333 11.333 -34.333 10 -39s-17.333 -7 -48 -7h-506c-18 0 -28.333 1.66699 -31 5s-1.66699 11 3 23zM0.00195312 42.001c0 -20 3.66699 -32 11 -36s20.333 -6 39 -6h478c16 0 25.333 1.33301 28 4s4 12 4 28v48
c0 12.667 -2.33301 20.834 -7 24.501s-13 5.5 -25 5.5h-151c-22 0 -34.333 4 -37 12s-0.666992 20 6 36l103 242c6.66699 15.333 13.834 25.833 21.501 31.5s22.834 8.5 45.501 8.5h580c32 0 51 -3.33301 57 -10s13.333 -21.334 22 -44.001l90 -240
c3.33301 -9.33301 5.33301 -17.666 6 -24.999s-7 -11 -23 -11h-152c-12.667 0 -21.834 -1.83301 -27.501 -5.5s-8.5 -12.5 -8.5 -26.5v-46c0 -14.667 3.16699 -23.667 9.5 -27s15.833 -5 28.5 -5h590c15.333 0 24.5 2 27.5 6s4.5 13.667 4.5 29v44
c0 13.333 -1.33301 21.833 -4 25.5s-10.667 5.5 -24 5.5h-158c-22.667 0 -36 3.33301 -40 10s-9.33301 18 -16 34l-543 1364c-2 5.33301 -4.83301 8.66602 -8.5 9.99902s-9.5 2 -17.5 2h-80c-6.66699 0 -11.334 -0.5 -14.001 -1.5s-5 -3.83301 -7 -8.5l-593 -1370
c-6 -14 -12.333 -24.167 -19 -30.5s-20.667 -9.5 -42 -9.5h-126c-10.667 0 -18 -1.83301 -22 -5.5s-6 -10.5 -6 -20.5v-42z" />
    <glyph glyph-name="Aring" unicode="&#xc5;" horiz-adv-x="1720" 
d="M864 1680c34 0 64.5 7.83301 91.5 23.5s48.5 37.167 64.5 64.5s24 57.666 24 90.999c0 34 -7.83301 64.667 -23.5 92s-37.167 49 -64.5 65s-58 24 -92 24c-33.333 0 -63.666 -8 -90.999 -24s-48.833 -37.667 -64.5 -65s-23.5 -58 -23.5 -92
c0 -33.333 7.83301 -63.666 23.5 -90.999s37.167 -48.833 64.5 -64.5s57.666 -23.5 90.999 -23.5zM864 1754c-30 0 -54.333 9.5 -73 28.5s-28 44.5 -28 76.5c0 31.333 9.33301 57.166 28 77.499s43 30.5 73 30.5s54.5 -10.167 73.5 -30.5s28.5 -46.166 28.5 -77.499
c0 -32 -9.5 -57.5 -28.5 -76.5s-43.5 -28.5 -73.5 -28.5zM816 1262c7.33301 17.333 12.668 25.667 16.001 25s8.66602 -11 15.999 -31l248 -660c8 -21.333 11.333 -34.333 10 -39s-17.333 -7 -48 -7h-506c-18 0 -28.333 1.66699 -31 5s-1.66699 11 3 23zM0.00195312 42.001
c0 -20 3.66699 -32 11 -36s20.333 -6 39 -6h478c16 0 25.333 1.33301 28 4s4 12 4 28v48c0 12.667 -2.33301 20.834 -7 24.501s-13 5.5 -25 5.5h-151c-22 0 -34.333 4 -37 12s-0.666992 20 6 36l103 242c6.66699 15.333 13.834 25.833 21.501 31.5s22.834 8.5 45.501 8.5
h580c32 0 51 -3.33301 57 -10s13.333 -21.334 22 -44.001l90 -240c3.33301 -9.33301 5.33301 -17.666 6 -24.999s-7 -11 -23 -11h-152c-12.667 0 -21.834 -1.83301 -27.501 -5.5s-8.5 -12.5 -8.5 -26.5v-46c0 -14.667 3.16699 -23.667 9.5 -27s15.833 -5 28.5 -5h590
c15.333 0 24.5 2 27.5 6s4.5 13.667 4.5 29v44c0 13.333 -1.33301 21.833 -4 25.5s-10.667 5.5 -24 5.5h-158c-22.667 0 -36 3.33301 -40 10s-9.33301 18 -16 34l-543 1364c-2 5.33301 -4.83301 8.66602 -8.5 9.99902s-9.5 2 -17.5 2h-80
c-6.66699 0 -11.334 -0.5 -14.001 -1.5s-5 -3.83301 -7 -8.5l-593 -1370c-6 -14 -12.333 -24.167 -19 -30.5s-20.667 -9.5 -42 -9.5h-126c-10.667 0 -18 -1.83301 -22 -5.5s-6 -10.5 -6 -20.5v-42z" />
    <glyph glyph-name="AE" unicode="&#xc6;" horiz-adv-x="2505" 
d="M0 42c0 -20 3.66602 -32.001 10.999 -36.001s20.333 -6 39 -6h478c16 0 25.333 1.33301 28 4s4 12 4 28v48c0 12.667 -2.33301 20.834 -7 24.501s-13 5.5 -25 5.5h-151c-22 0 -35.333 3.83301 -40 11.5s-1.66699 19.834 9 36.501l183 242
c9.33301 14 18.333 24.167 27 30.5s22 9.5 40 9.5h758l20 110h-692c-18 0 -28.833 2 -32.5 6s-2.16699 11.333 4.5 22l565 773c7.33301 10 11.833 17.833 13.5 23.5s5.16699 9.66699 10.5 12s17 3.5 35 3.5h244c13.333 0 21.333 2.5 24 7.5s4 13.5 4 25.5v49
c0 12 -1.5 19.667 -4.5 23s-10.167 5 -21.5 5h-626c-10.667 0 -18 -1.83301 -22 -5.5s-6 -11.167 -6 -22.5v-52c0 -12.667 1.16699 -20.834 3.5 -24.501s9.83301 -5.5 22.5 -5.5h128c35.333 0 57.666 -1.5 66.999 -4.5s6.33301 -15.167 -9 -36.5l-867 -1199
c-9.33301 -14.667 -18.166 -25 -26.499 -31s-23.166 -9 -44.499 -9h-116c-18.667 0 -28 -8.66699 -28 -26v-42zM1236 1390c20.667 0 33.999 -1.83008 39.999 -5.49707s9 -15.834 9 -36.501v-1182c0 -24.667 -2.83301 -40.167 -8.5 -46.5s-20.834 -9.5 -45.501 -9.5h-130
c-13.333 0 -22.666 -1.33301 -27.999 -4s-8 -10.667 -8 -24v-46c0 -16 3 -26 9 -30s16.333 -6 31 -6h1238c13.333 0 22 2.16699 26 6.5s6 13.5 6 27.5v446c0 13.333 -3.16699 21.666 -9.5 24.999s-15.833 5 -28.5 5h-38c-8.66699 0 -14.834 -2 -18.5 -6
c-3.66699 -4 -5.5 -12.667 -5.5 -26c-1.33301 -96 -12 -170.667 -32 -224s-54.333 -90.666 -103 -111.999s-117 -32 -205 -32h-416c-19.333 0 -31.5 2.66699 -36.5 8s-7.5 17.333 -7.5 36v538c0 18 2 29.833 6 35.5s14.667 8.5 32 8.5h132c53.333 0 96.833 -9 130.5 -27
s59.167 -42.5 76.5 -73.5s27.666 -66.167 30.999 -105.5c1.33301 -15.333 4.66602 -24.833 9.99902 -28.5s11 -5.5 17 -5.5h33c14.667 0 23.667 2.66699 27 8s5 16 5 32v480c0 11.333 -2.33301 19.166 -7 23.499s-12.667 6.5 -24 6.5h-33c-10 0 -16.667 -2 -20 -6
s-5.66602 -12.667 -6.99902 -26c-4.66699 -58.667 -25.667 -106.334 -63 -143.001s-96 -55 -176 -55h-136c-16 0 -25.667 3.66699 -29 11s-5 18.333 -5 33v486c0 19.333 2.83301 31.5 8.5 36.5s17.5 7.5 35.5 7.5h436c74.667 0 133.334 -9.83301 176.001 -29.5
s73.5 -53 92.5 -100s29.5 -111.167 31.5 -192.5c0.666992 -12.667 2.5 -22.167 5.5 -28.5s11.833 -9.5 26.5 -9.5h40c17.333 0 26.333 2.66699 27 8s1 16 1 32v382c0 23.333 -3.16699 37.166 -9.5 41.499s-21.166 6.5 -44.5 6.5h-1202c-14.667 0 -24 -2.5 -28 -7.5
s-6 -15.167 -6 -30.5v-30c0 -15.333 1.83301 -26.166 5.5 -32.499s13.834 -9.5 30.501 -9.5h135z" />
    <glyph glyph-name="Ccedilla" unicode="&#xc7;" horiz-adv-x="1620" 
d="M655 -495c0 -20 8.33398 -29.665 25.001 -28.998c39.333 1.33301 77.5 5.66602 114.5 12.999s70.5 18.666 100.5 33.999s53.833 35.5 71.5 60.5s26.5 55.5 26.5 91.5c0 56 -16.667 95.5 -50 118.5s-77.333 36.833 -132 41.5c-18 1.33301 -27.833 2.83301 -29.5 4.5
s1.83301 8.16699 10.5 19.5l89 118l11.5 15.5c2.33301 3 -4.16699 4.5 -19.5 4.5h-51c-8 0 -13 -0.5 -15 -1.5s-4.66699 -3.83301 -8 -8.5l-151 -202c-6.66699 -8.66699 -8.66699 -15.167 -6 -19.5s13.667 -7.5 33 -9.5c30 -2.66699 58.5 -7.16699 85.5 -13.5
s48.833 -16.833 65.5 -31.5s25 -35.334 25 -62.001c0 -32.667 -17.333 -56.667 -52 -72s-72.334 -24.666 -113.001 -27.999c-10 -0.666992 -17.667 -2.5 -23 -5.5s-8 -10.167 -8 -21.5v-17zM110.001 750.002c0 -111.333 17.8311 -214.001 53.498 -308.001
s86.167 -175.5 151.5 -244.5s142.5 -122.5 231.5 -160.5s186.833 -57 293.5 -57c134 0 249.333 26 346 78s172.667 123 228 213s87 191.667 95 305c0.666992 6.66699 -0.833008 10.667 -4.5 12s-9.16699 2 -16.5 2h-70c-6.66699 0 -11.5 -1.16699 -14.5 -3.5
s-4.83301 -6.5 -5.5 -12.5c-8.66699 -79.333 -35.167 -155.5 -79.5 -228.5s-105 -132.5 -182 -178.5s-169.167 -69 -276.5 -69c-116 0 -212.5 29 -289.5 87s-134.667 136.333 -173 235s-57.5 208.667 -57.5 330s20.833 231.5 62.5 330.5s102.667 177.667 183 236
s178.5 87.5 294.5 87.5c91.333 0 172.166 -18.667 242.499 -56s127.333 -85.333 171 -144s71.167 -120.334 82.5 -185.001c2 -10.667 3.33301 -18.167 4 -22.5s7.33398 -6.5 20.001 -6.5h61c11.333 0 19 1.66699 23 5s6 10.333 6 21v475c0 8 -1.16699 13.167 -3.5 15.5
s-7.83301 3.5 -16.5 3.5h-54c-9.33301 0 -14.666 -1.16699 -15.999 -3.5s-3 -7.16602 -5 -14.499l-42 -143c-5.33301 -18.667 -10.666 -28.667 -15.999 -30s-13 3.33398 -23 14.001c-50.667 53.333 -113.167 97.833 -187.5 133.5s-159.833 53.5 -256.5 53.5
c-101.333 0 -197.666 -19 -288.999 -57s-172.333 -91.5 -243 -160.5s-126.334 -150.5 -167.001 -244.5s-61 -196.667 -61 -308z" />
    <glyph glyph-name="Egrave" unicode="&#xc8;" horiz-adv-x="1515" 
d="M818 1669c7.33301 -4.66699 12.833 -6.33398 16.5 -5.00098s8.16699 5 13.5 11l34 36c11.333 12 11 24 -1 36l-194 189c-12 12.667 -26.667 20.334 -44 23.001s-34 0.666992 -50 -6s-28.667 -17.667 -38 -33c-14.667 -24.667 -18 -47.167 -10 -67.5
s20.333 -35.5 37 -45.5zM246 1390c20.667 0 33.999 -1.83008 39.999 -5.49707s9 -15.834 9 -36.501v-1182c0 -24.667 -2.83301 -40.167 -8.5 -46.5s-20.834 -9.5 -45.501 -9.5h-130c-13.333 0 -22.666 -1.33301 -27.999 -4s-8 -10.667 -8 -24v-46c0 -16 3 -26 9 -30
s16.333 -6 31 -6h1238c13.333 0 22 2.16699 26 6.5s6 13.5 6 27.5v446c0 13.333 -3.16699 21.666 -9.5 24.999s-15.833 5 -28.5 5h-38c-8.66699 0 -14.834 -2 -18.501 -6s-5.5 -12.667 -5.5 -26c-1.33301 -96 -12 -170.667 -32 -224s-54.333 -90.666 -103 -111.999
s-117 -32 -205 -32h-416c-19.333 0 -31.5 2.66699 -36.5 8s-7.5 17.333 -7.5 36v538c0 18 2 29.833 6 35.5s14.667 8.5 32 8.5h132c53.333 0 96.833 -9 130.5 -27s59.167 -42.5 76.5 -73.5s27.666 -66.167 30.999 -105.5c1.33301 -15.333 4.66602 -24.833 9.99902 -28.5
s11 -5.5 17 -5.5h33c14.667 0 23.667 2.66699 27 8s5 16 5 32v480c0 11.333 -2.33301 19.166 -7 23.499s-12.667 6.5 -24 6.5h-33c-10 0 -16.667 -2 -20 -6s-5.66602 -12.667 -6.99902 -26c-4.66699 -58.667 -25.667 -106.334 -63 -143.001s-96 -55 -176 -55h-136
c-16 0 -25.667 3.66699 -29 11s-5 18.333 -5 33v486c0 19.333 2.83301 31.5 8.5 36.5s17.5 7.5 35.5 7.5h436c74.667 0 133.334 -9.83301 176.001 -29.5s73.5 -53 92.5 -100s29.5 -111.167 31.5 -192.5c0.666992 -12.667 2.5 -22.167 5.5 -28.5s11.833 -9.5 26.5 -9.5h40
c17.333 0 26.333 2.66699 27 8s1 16 1 32v382c0 23.333 -3.16699 37.166 -9.5 41.499s-21.166 6.5 -44.499 6.5h-1202c-14.667 0 -24 -2.5 -28 -7.5s-6 -15.167 -6 -30.5v-30c0 -15.333 1.83301 -26.166 5.5 -32.499s13.834 -9.5 30.501 -9.5h135z" />
    <glyph glyph-name="Eacute" unicode="&#xc9;" horiz-adv-x="1515" 
d="M739 1677c7.33301 -8 13.5 -11.8311 18.5 -11.498s11.833 3.16602 20.5 8.49902l228 133c17.333 10 29.833 25.167 37.5 45.5s4.16699 42.833 -10.5 67.5c-8.66699 15.333 -21.167 26.333 -37.5 33s-33 8.66699 -50 6s-31.833 -10.334 -44.5 -23.001l-196 -191
c-10.667 -10 -10.667 -20.667 0 -32zM246 1390c20.667 0 33.999 -1.83008 39.999 -5.49707s9 -15.834 9 -36.501v-1182c0 -24.667 -2.83301 -40.167 -8.5 -46.5s-20.834 -9.5 -45.501 -9.5h-130c-13.333 0 -22.666 -1.33301 -27.999 -4s-8 -10.667 -8 -24v-46
c0 -16 3 -26 9 -30s16.333 -6 31 -6h1238c13.333 0 22 2.16699 26 6.5s6 13.5 6 27.5v446c0 13.333 -3.16699 21.666 -9.5 24.999s-15.833 5 -28.5 5h-38c-8.66699 0 -14.834 -2 -18.501 -6s-5.5 -12.667 -5.5 -26c-1.33301 -96 -12 -170.667 -32 -224
s-54.333 -90.666 -103 -111.999s-117 -32 -205 -32h-416c-19.333 0 -31.5 2.66699 -36.5 8s-7.5 17.333 -7.5 36v538c0 18 2 29.833 6 35.5s14.667 8.5 32 8.5h132c53.333 0 96.833 -9 130.5 -27s59.167 -42.5 76.5 -73.5s27.666 -66.167 30.999 -105.5
c1.33301 -15.333 4.66602 -24.833 9.99902 -28.5s11 -5.5 17 -5.5h33c14.667 0 23.667 2.66699 27 8s5 16 5 32v480c0 11.333 -2.33301 19.166 -7 23.499s-12.667 6.5 -24 6.5h-33c-10 0 -16.667 -2 -20 -6s-5.66602 -12.667 -6.99902 -26
c-4.66699 -58.667 -25.667 -106.334 -63 -143.001s-96 -55 -176 -55h-136c-16 0 -25.667 3.66699 -29 11s-5 18.333 -5 33v486c0 19.333 2.83301 31.5 8.5 36.5s17.5 7.5 35.5 7.5h436c74.667 0 133.334 -9.83301 176.001 -29.5s73.5 -53 92.5 -100
s29.5 -111.167 31.5 -192.5c0.666992 -12.667 2.5 -22.167 5.5 -28.5s11.833 -9.5 26.5 -9.5h40c17.333 0 26.333 2.66699 27 8s1 16 1 32v382c0 23.333 -3.16699 37.166 -9.5 41.499s-21.166 6.5 -44.499 6.5h-1202c-14.667 0 -24 -2.5 -28 -7.5s-6 -15.167 -6 -30.5v-30
c0 -15.333 1.83301 -26.166 5.5 -32.499s13.834 -9.5 30.501 -9.5h135z" />
    <glyph glyph-name="Ecircumflex" unicode="&#xca;" horiz-adv-x="1515" 
d="M537 1690c12.667 -12.667 24.666 -14.667 35.999 -6l197 147c16 12 32.667 11.667 50 -1l195 -145c8.66699 -6 14.334 -9.16699 17.001 -9.5s7.66699 3.16699 15 10.5l33 33c5.33301 5.33301 7.83301 9 7.5 11s-3.16602 5.33301 -8.49902 10l-192 192
c-6 6 -11.833 10.333 -17.5 13s-15.167 4 -28.5 4h-85c-14.667 0 -25.334 -1 -32.001 -3s-13.667 -6.66699 -21 -14l-188 -188c-7.33301 -7.33301 -11 -12.333 -11 -15s3.66699 -7.66699 11 -15zM245.999 1390c20.667 0 33.999 -1.83008 39.999 -5.49707
s9 -15.834 9 -36.501v-1182c0 -24.667 -2.83301 -40.167 -8.5 -46.5s-20.834 -9.5 -45.501 -9.5h-130c-13.333 0 -22.666 -1.33301 -27.999 -4s-8 -10.667 -8 -24v-46c0 -16 3 -26 9 -30s16.333 -6 31 -6h1238c13.333 0 22 2.16699 26 6.5s6 13.5 6 27.5v446
c0 13.333 -3.16699 21.666 -9.5 24.999s-15.833 5 -28.5 5h-38c-8.66699 0 -14.834 -2 -18.501 -6s-5.5 -12.667 -5.5 -26c-1.33301 -96 -12 -170.667 -32 -224s-54.333 -90.666 -103 -111.999s-117 -32 -205 -32h-416c-19.333 0 -31.5 2.66699 -36.5 8s-7.5 17.333 -7.5 36
v538c0 18 2 29.833 6 35.5s14.667 8.5 32 8.5h132c53.333 0 96.833 -9 130.5 -27s59.167 -42.5 76.5 -73.5s27.666 -66.167 30.999 -105.5c1.33301 -15.333 4.66602 -24.833 9.99902 -28.5s11 -5.5 17 -5.5h33c14.667 0 23.667 2.66699 27 8s5 16 5 32v480
c0 11.333 -2.33301 19.166 -7 23.499s-12.667 6.5 -24 6.5h-33c-10 0 -16.667 -2 -20 -6s-5.66602 -12.667 -6.99902 -26c-4.66699 -58.667 -25.667 -106.334 -63 -143.001s-96 -55 -176 -55h-136c-16 0 -25.667 3.66699 -29 11s-5 18.333 -5 33v486
c0 19.333 2.83301 31.5 8.5 36.5s17.5 7.5 35.5 7.5h436c74.667 0 133.334 -9.83301 176.001 -29.5s73.5 -53 92.5 -100s29.5 -111.167 31.5 -192.5c0.666992 -12.667 2.5 -22.167 5.5 -28.5s11.833 -9.5 26.5 -9.5h40c17.333 0 26.333 2.66699 27 8s1 16 1 32v382
c0 23.333 -3.16699 37.166 -9.5 41.499s-21.166 6.5 -44.499 6.5h-1202c-14.667 0 -24 -2.5 -28 -7.5s-6 -15.167 -6 -30.5v-30c0 -15.333 1.83301 -26.166 5.5 -32.499s13.834 -9.5 30.501 -9.5h135z" />
    <glyph glyph-name="Edieresis" unicode="&#xcb;" horiz-adv-x="1515" 
d="M953 1690c26.667 0 49.334 9.33301 68.001 28s28 41.334 28 68.001s-9.33301 49.5 -28 68.5s-41.334 28.5 -68.001 28.5s-49.334 -9.5 -68.001 -28.5s-28 -41.833 -28 -68.5s9.33301 -49.334 28 -68.001s41.334 -28 68.001 -28zM633 1690
c26.667 0 49.334 9.33301 68.001 28s28 41.334 28 68.001s-9.33301 49.5 -28 68.5s-41.334 28.5 -68.001 28.5s-49.334 -9.5 -68.001 -28.5s-28 -41.833 -28 -68.5s9.33301 -49.334 28 -68.001s41.334 -28 68.001 -28zM246 1390c20.667 0 33.999 -1.83008 39.999 -5.49707
s9 -15.834 9 -36.501v-1182c0 -24.667 -2.83301 -40.167 -8.5 -46.5s-20.834 -9.5 -45.501 -9.5h-130c-13.333 0 -22.666 -1.33301 -27.999 -4s-8 -10.667 -8 -24v-46c0 -16 3 -26 9 -30s16.333 -6 31 -6h1238c13.333 0 22 2.16699 26 6.5s6 13.5 6 27.5v446
c0 13.333 -3.16699 21.666 -9.5 24.999s-15.833 5 -28.5 5h-38c-8.66699 0 -14.834 -2 -18.501 -6s-5.5 -12.667 -5.5 -26c-1.33301 -96 -12 -170.667 -32 -224s-54.333 -90.666 -103 -111.999s-117 -32 -205 -32h-416c-19.333 0 -31.5 2.66699 -36.5 8s-7.5 17.333 -7.5 36
v538c0 18 2 29.833 6 35.5s14.667 8.5 32 8.5h132c53.333 0 96.833 -9 130.5 -27s59.167 -42.5 76.5 -73.5s27.666 -66.167 30.999 -105.5c1.33301 -15.333 4.66602 -24.833 9.99902 -28.5s11 -5.5 17 -5.5h33c14.667 0 23.667 2.66699 27 8s5 16 5 32v480
c0 11.333 -2.33301 19.166 -7 23.499s-12.667 6.5 -24 6.5h-33c-10 0 -16.667 -2 -20 -6s-5.66602 -12.667 -6.99902 -26c-4.66699 -58.667 -25.667 -106.334 -63 -143.001s-96 -55 -176 -55h-136c-16 0 -25.667 3.66699 -29 11s-5 18.333 -5 33v486
c0 19.333 2.83301 31.5 8.5 36.5s17.5 7.5 35.5 7.5h436c74.667 0 133.334 -9.83301 176.001 -29.5s73.5 -53 92.5 -100s29.5 -111.167 31.5 -192.5c0.666992 -12.667 2.5 -22.167 5.5 -28.5s11.833 -9.5 26.5 -9.5h40c17.333 0 26.333 2.66699 27 8s1 16 1 32v382
c0 23.333 -3.16699 37.166 -9.5 41.499s-21.166 6.5 -44.499 6.5h-1202c-14.667 0 -24 -2.5 -28 -7.5s-6 -15.167 -6 -30.5v-30c0 -15.333 1.83301 -26.166 5.5 -32.499s13.834 -9.5 30.501 -9.5h135z" />
    <glyph glyph-name="Igrave" unicode="&#xcc;" horiz-adv-x="830" 
d="M430 1669c7.33301 -4.66699 12.833 -6.33398 16.5 -5.00098s8.16699 5 13.5 11l34 36c11.333 12 11 24 -1 36l-194 189c-12 12.667 -26.667 20.334 -44 23.001s-34 0.666992 -50 -6s-28.667 -17.667 -38 -33c-14.667 -24.667 -18 -47.167 -10 -67.5
s20.333 -35.5 37 -45.5zM500 1354c0 16.667 2.33105 26.835 6.99805 30.502s15 5.5 31 5.5h160c12.667 0 22.834 2.66699 30.501 8s11.5 16.666 11.5 33.999v34c0 15.333 -2.16699 24.833 -6.5 28.5s-14.166 5.5 -29.499 5.5h-584c-11.333 0 -19.166 -1 -23.499 -3
s-6.5 -9.66699 -6.5 -23v-54c0 -10.667 2.5 -18.334 7.5 -23.001s13.833 -7 26.5 -7h156c15.333 0 24.166 -2.33301 26.499 -7s3.5 -13.667 3.5 -27v-1196c0 -22.667 -7 -36.667 -21 -42s-29.667 -8 -47 -8h-106c-18.667 0 -31 -2 -37 -6s-9 -11.333 -9 -22v-50
c0 -12.667 3.16699 -21.167 9.5 -25.5s16.5 -6.5 30.5 -6.5h570c14 -0 24.167 2.33301 30.5 7s9.5 13 9.5 25v46c0 9.33301 -1.33301 17 -4 23s-8.66699 9 -18 9h-180c-14.667 0 -24.667 3.16699 -30 9.5s-8 17.833 -8 34.5v1200z" />
    <glyph glyph-name="Iacute" unicode="&#xcd;" horiz-adv-x="830" 
d="M351 1677c7.33301 -8 13.5 -11.8311 18.5 -11.498s11.833 3.16602 20.5 8.49902l228 133c17.333 10 29.833 25.167 37.5 45.5s4.16699 42.833 -10.5 67.5c-8.66699 15.333 -21.167 26.333 -37.5 33s-33 8.66699 -50 6s-31.833 -10.334 -44.5 -23.001l-196 -191
c-10.667 -10 -10.667 -20.667 0 -32zM500 1354c0 16.667 2.33105 26.835 6.99805 30.502s15 5.5 31 5.5h160c12.667 0 22.834 2.66699 30.501 8s11.5 16.666 11.5 33.999v34c0 15.333 -2.16699 24.833 -6.5 28.5s-14.166 5.5 -29.499 5.5h-584
c-11.333 0 -19.166 -1 -23.499 -3s-6.5 -9.66699 -6.5 -23v-54c0 -10.667 2.5 -18.334 7.5 -23.001s13.833 -7 26.5 -7h156c15.333 0 24.166 -2.33301 26.499 -7s3.5 -13.667 3.5 -27v-1196c0 -22.667 -7 -36.667 -21 -42s-29.667 -8 -47 -8h-106c-18.667 0 -31 -2 -37 -6
s-9 -11.333 -9 -22v-50c0 -12.667 3.16699 -21.167 9.5 -25.5s16.5 -6.5 30.5 -6.5h570c14 0 24.167 2.33301 30.5 7s9.5 13 9.5 25v46c0 9.33301 -1.33301 17 -4 23s-8.66699 9 -18 9h-180c-14.667 0 -24.667 3.16699 -30 9.5s-8 17.833 -8 34.5v1200z" />
    <glyph glyph-name="Icircumflex" unicode="&#xce;" horiz-adv-x="830" 
d="M149 1690c12.667 -12.667 24.666 -14.667 35.999 -6l197 147c16 12 32.667 11.667 50 -1l195 -145c8.66699 -6 14.334 -9.16699 17.001 -9.5s7.66699 3.16699 15 10.5l33 33c5.33301 5.33301 7.83301 9 7.5 11s-3.16602 5.33301 -8.49902 10l-192 192
c-6 6 -11.833 10.333 -17.5 13s-15.167 4 -28.5 4h-85c-14.667 0 -25.334 -1 -32.001 -3s-13.667 -6.66699 -21 -14l-188 -188c-7.33301 -7.33301 -11 -12.333 -11 -15s3.66699 -7.66699 11 -15zM499.999 1354c0 16.667 2.33105 26.835 6.99805 30.502s15 5.5 31 5.5h160
c12.667 0 22.834 2.66699 30.501 8s11.5 16.666 11.5 33.999v34c0 15.333 -2.16699 24.833 -6.5 28.5s-14.166 5.5 -29.499 5.5h-584c-11.333 0 -19.166 -1 -23.499 -3s-6.5 -9.66699 -6.5 -23v-54c0 -10.667 2.5 -18.334 7.5 -23.001s13.833 -7 26.5 -7h156
c15.333 0 24.166 -2.33301 26.499 -7s3.5 -13.667 3.5 -27v-1196c0 -22.667 -7 -36.667 -21 -42s-29.667 -8 -47 -8h-106c-18.667 0 -31 -2 -37 -6s-9 -11.333 -9 -22v-50c0 -12.667 3.16699 -21.167 9.5 -25.5s16.5 -6.5 30.5 -6.5h570c14 -0 24.167 2.33301 30.5 7
s9.5 13 9.5 25v46c0 9.33301 -1.33301 17 -4 23s-8.66699 9 -18 9h-180c-14.667 0 -24.667 3.16699 -30 9.5s-8 17.833 -8 34.5v1200z" />
    <glyph glyph-name="Idieresis" unicode="&#xcf;" horiz-adv-x="830" 
d="M565 1690c26.667 0 49.334 9.33301 68.001 28s28 41.334 28 68.001s-9.33301 49.5 -28 68.5s-41.334 28.5 -68.001 28.5s-49.334 -9.5 -68.001 -28.5s-28 -41.833 -28 -68.5s9.33301 -49.334 28 -68.001s41.334 -28 68.001 -28zM245 1690
c26.667 0 49.334 9.33301 68.001 28s28 41.334 28 68.001s-9.33301 49.5 -28 68.5s-41.334 28.5 -68.001 28.5s-49.334 -9.5 -68.001 -28.5s-28 -41.833 -28 -68.5s9.33301 -49.334 28 -68.001s41.334 -28 68.001 -28zM500 1354c0 16.667 2.33105 26.835 6.99805 30.502
s15 5.5 31 5.5h160c12.667 0 22.834 2.66699 30.501 8s11.5 16.666 11.5 33.999v34c0 15.333 -2.16699 24.833 -6.5 28.5s-14.166 5.5 -29.499 5.5h-584c-11.333 0 -19.166 -1 -23.499 -3s-6.5 -9.66699 -6.5 -23v-54c0 -10.667 2.5 -18.334 7.5 -23.001s13.833 -7 26.5 -7
h156c15.333 0 24.166 -2.33301 26.499 -7s3.5 -13.667 3.5 -27v-1196c0 -22.667 -7 -36.667 -21 -42s-29.667 -8 -47 -8h-106c-18.667 0 -31 -2 -37 -6s-9 -11.333 -9 -22v-50c0 -12.667 3.16699 -21.167 9.5 -25.5s16.5 -6.5 30.5 -6.5h570c14 -0 24.167 2.33301 30.5 7
s9.5 13 9.5 25v46c0 9.33301 -1.33301 17 -4 23s-8.66699 9 -18 9h-180c-14.667 0 -24.667 3.16699 -30 9.5s-8 17.833 -8 34.5v1200z" />
    <glyph glyph-name="Eth" unicode="&#xd0;" horiz-adv-x="1645" 
d="M110 840c-12.667 0 -21.5 -1.83203 -26.5 -5.49902s-7.5 -11.167 -7.5 -22.5v-52c0 -12.667 1.5 -20.834 4.5 -24.501s12.167 -5.5 27.5 -5.5h761c16 0 25.667 2.5 29 7.5s5 13.5 5 25.5v49c0 12 -1.66699 19.667 -5 23s-12 5 -26 5h-762zM75 34.001
c0 -14 2.16602 -23.168 6.49902 -27.501s13.833 -6.5 28.5 -6.5h705c106.667 -0 204 18.833 292 56.5s164 90.5 228 158.5s113.333 147.5 148 238.5s52 189.833 52 296.5s-16.5 205.5 -49.5 296.5s-80.667 170.5 -143 238.5s-138 120.833 -227 158.5
s-189.167 56.5 -300.5 56.5h-685c-15.333 0 -28.333 -1.66699 -39 -5s-16 -11.333 -16 -24v-45c0 -17.333 4.33301 -27.666 13 -30.999s23.334 -5 44.001 -5h128c17.333 0 27.5 -3 30.5 -9s4.5 -17.667 4.5 -35v-1196c0 -15.333 -1.33301 -25.833 -4 -31.5
s-11.667 -8.5 -27 -8.5h-154c-15.333 0 -25 -2.33301 -29 -7s-6 -15 -6 -31v-38zM525.999 110c-16.667 0 -27.667 1.66699 -33 5s-8 13 -8 29v1202c0 19.333 2.5 31.5 7.5 36.5s16.833 7.5 35.5 7.5h287c116 0 210 -28 282 -84s124.667 -132.333 158 -229
s50 -205.667 50 -327s-15.333 -230.333 -46 -327s-81.667 -173 -153 -229s-168.333 -84 -291 -84h-289z" />
    <glyph glyph-name="Ntilde" unicode="&#xd1;" horiz-adv-x="1750" 
d="M1046 1680c46 0 83.498 9.00195 112.498 27.002s50.833 44.333 65.5 79s22.667 76.667 24 126c0.666992 8 0 13.667 -2 17s-7.66699 5 -17 5h-33c-9.33301 0 -15.166 -1.66699 -17.499 -5s-3.83301 -9 -4.5 -17c-5.33301 -77.333 -42.333 -116 -111 -116
c-26.667 0 -48.667 9.16699 -66 27.5l-48 51.5c-19.333 21.333 -42.833 39.833 -70.5 55.5s-62.5 23.5 -104.5 23.5c-41.333 0 -77.833 -9.83301 -109.5 -29.5s-57.167 -46.334 -76.5 -80.001s-31 -71.834 -35 -114.501c-0.666992 -10 -0.166992 -17.5 1.5 -22.5
s8.16699 -7.5 19.5 -7.5h32c12.667 0 19.334 4.66699 20.001 14c1.33301 40 10.833 70.667 28.5 92s45.167 32 82.5 32c30 0 55.167 -9 75.5 -27s38.833 -35.333 55.5 -52c21.333 -20.667 45.833 -39 73.5 -55s62.5 -24 104.5 -24zM233.998 1390
c23.333 0 38.499 -2.33105 45.499 -6.99805s10.5 -18.667 10.5 -42v-1180c0 -22.667 -3.33301 -36.834 -10 -42.501s-21.667 -8.5 -45 -8.5h-109c-15.333 0 -26.833 -1.83301 -34.5 -5.5s-11.5 -14.167 -11.5 -31.5v-36c0 -16.667 2.66699 -27 8 -31s16.666 -6 33.999 -6
h486c16.667 0 27.834 2.16699 33.501 6.5s8.5 15.166 8.5 32.499v30c0 14.667 -1.83301 25.167 -5.5 31.5s-13.167 9.5 -28.5 9.5h-152c-19.333 0 -31.5 2.5 -36.5 7.5s-7.5 16.833 -7.5 35.5v1014c0 49.333 5 76.166 15 80.499s22.333 -3.16699 37 -22.5l939 -1220
c6.66699 -8.66699 13.667 -15 21 -19s18.666 -6 33.999 -6h6c13.333 0 21.333 4.5 24 13.5s4 19.5 4 31.5v1314c0 22 2.83301 36 8.5 42s18.834 9 39.501 9h126c17.333 0 27.666 3.16699 30.999 9.5s5 17.833 5 34.5v37c0 14.667 -5.16699 23.167 -15.5 25.5
s-21.833 3.5 -34.5 3.5h-462c-20.667 0 -33.834 -4.5 -39.501 -13.5s-8.5 -23.5 -8.5 -43.5v-22c0 -16.667 8 -26 24 -28s31.333 -3 46 -3h98c21.333 0 35.333 -2.33301 42 -7s10 -18 10 -40v-886c0 -40 -4.66699 -62.5 -14 -67.5s-20.666 1.16699 -33.999 18.5l-790 1037
c-15.333 20.667 -28.166 35 -38.499 43s-34.833 12 -73.5 12h-304c-17.333 0 -27.666 -3.16699 -30.999 -9.5s-5 -18.166 -5 -35.499v-30c0 -13.333 2 -22.5 6 -27.5s13.333 -7.5 28 -7.5h120z" />
    <glyph glyph-name="Ograve" unicode="&#xd2;" horiz-adv-x="1660" 
d="M850 1669c7.33301 -4.66699 12.833 -6.33398 16.5 -5.00098s8.16699 5 13.5 11l34 36c11.333 12 11 24 -1 36l-194 189c-12 12.667 -26.667 20.334 -44 23.001s-34 0.666992 -50 -6s-28.667 -17.667 -38 -33c-14.667 -24.667 -18 -47.167 -10 -67.5
s20.333 -35.5 37 -45.5zM110 750c0 -106.667 16.5 -206.5 49.5 -299.5s80.667 -174.833 143 -245.5s138 -125.834 227 -165.501s189.167 -59.5 300.5 -59.5c106.667 0 204 19.833 292 59.5s164 94.834 228 165.501s113.333 152.5 148 245.5s52 192.833 52 299.5
s-16.5 206.5 -49.5 299.5s-80.667 174.833 -143 245.5s-138 125.834 -227 165.501s-189.167 59.5 -300.5 59.5s-211.5 -19.833 -300.5 -59.5s-164.667 -94.834 -227 -165.501s-110 -152.5 -143 -245.5s-49.5 -192.833 -49.5 -299.5zM340 750
c0 91.333 9.33301 177.333 28 258s47.5 151.834 86.5 213.501s89.667 110.167 152 145.5s136.833 53 223.5 53c87.333 0 162 -17.667 224 -53s112.5 -83.833 151.5 -145.5s67.833 -132.834 86.5 -213.501s28 -166.667 28 -258c0 -90.667 -8.33301 -176.5 -25 -257.5
s-44 -152.333 -82 -214s-88.333 -110.167 -151 -145.5s-140 -53 -232 -53c-86.667 0 -161.167 17.667 -223.5 53s-113 83.833 -152 145.5s-67.833 133 -86.5 214s-28 166.833 -28 257.5z" />
    <glyph glyph-name="Oacute" unicode="&#xd3;" horiz-adv-x="1660" 
d="M771 1677c7.33301 -8 13.5 -11.8311 18.5 -11.498s11.833 3.16602 20.5 8.49902l228 133c17.333 10 29.833 25.167 37.5 45.5s4.16699 42.833 -10.5 67.5c-8.66699 15.333 -21.167 26.333 -37.5 33s-33 8.66699 -50 6s-31.833 -10.334 -44.5 -23.001l-196 -191
c-10.667 -10 -10.667 -20.667 0 -32zM110 750.002c0 -106.667 16.5 -206.5 49.5 -299.5s80.667 -174.833 143 -245.5s138 -125.834 227 -165.501s189.167 -59.5 300.5 -59.5c106.667 0 204 19.833 292 59.5s164 94.834 228 165.501s113.333 152.5 148 245.5
s52 192.833 52 299.5s-16.5 206.5 -49.5 299.5s-80.667 174.833 -143 245.5s-138 125.834 -227 165.501s-189.167 59.5 -300.5 59.5s-211.5 -19.833 -300.5 -59.5s-164.667 -94.834 -227 -165.501s-110 -152.5 -143 -245.5s-49.5 -192.833 -49.5 -299.5zM340 750.002
c0 91.333 9.33301 177.333 28 258s47.5 151.834 86.5 213.501s89.667 110.167 152 145.5s136.833 53 223.5 53c87.333 0 162 -17.667 224 -53s112.5 -83.833 151.5 -145.5s67.833 -132.834 86.5 -213.501s28 -166.667 28 -258c0 -90.667 -8.33301 -176.5 -25 -257.5
s-44 -152.333 -82 -214s-88.333 -110.167 -151 -145.5s-140 -53 -232 -53c-86.667 0 -161.167 17.667 -223.5 53s-113 83.833 -152 145.5s-67.833 133 -86.5 214s-28 166.833 -28 257.5z" />
    <glyph glyph-name="Ocircumflex" unicode="&#xd4;" horiz-adv-x="1660" 
d="M569 1690c12.667 -12.667 24.666 -14.667 35.999 -6l197 147c16 12 32.667 11.667 50 -1l195 -145c8.66699 -6 14.334 -9.16699 17.001 -9.5s7.66699 3.16699 15 10.5l33 33c5.33301 5.33301 7.83301 9 7.5 11s-3.16602 5.33301 -8.49902 10l-192 192
c-6 6 -11.833 10.333 -17.5 13s-15.167 4 -28.5 4h-85c-14.667 0 -25.334 -1 -32.001 -3s-13.667 -6.66699 -21 -14l-188 -188c-7.33301 -7.33301 -11 -12.333 -11 -15s3.66699 -7.66699 11 -15zM109.999 750c0 -106.667 16.5 -206.5 49.5 -299.5
s80.667 -174.833 143 -245.5s138 -125.834 227 -165.501s189.167 -59.5 300.5 -59.5c106.667 0 204 19.833 292 59.5s164 94.834 228 165.501s113.333 152.5 148 245.5s52 192.833 52 299.5s-16.5 206.5 -49.5 299.5s-80.667 174.833 -143 245.5s-138 125.834 -227 165.501
s-189.167 59.5 -300.5 59.5s-211.5 -19.833 -300.5 -59.5s-164.667 -94.834 -227 -165.501s-110 -152.5 -143 -245.5s-49.5 -192.833 -49.5 -299.5zM339.999 750c0 91.333 9.33301 177.333 28 258s47.5 151.834 86.5 213.501s89.667 110.167 152 145.5s136.833 53 223.5 53
c87.333 0 162 -17.667 224 -53s112.5 -83.833 151.5 -145.5s67.833 -132.834 86.5 -213.501s28 -166.667 28 -258c0 -90.667 -8.33301 -176.5 -25 -257.5s-44 -152.333 -82 -214s-88.333 -110.167 -151 -145.5s-140 -53 -232 -53c-86.667 0 -161.167 17.667 -223.5 53
s-113 83.833 -152 145.5s-67.833 133 -86.5 214s-28 166.833 -28 257.5z" />
    <glyph glyph-name="Otilde" unicode="&#xd5;" horiz-adv-x="1660" 
d="M976 1680c46 0 83.498 9.00195 112.498 27.002s50.833 44.333 65.5 79s22.667 76.667 24 126c0.666992 8 0 13.667 -2 17s-7.66699 5 -17 5h-33c-9.33301 0 -15.166 -1.66699 -17.499 -5s-3.83301 -9 -4.5 -17c-5.33301 -77.333 -42.333 -116 -111 -116
c-26.667 0 -48.667 9.16699 -66 27.5l-48 51.5c-19.333 21.333 -42.833 39.833 -70.5 55.5s-62.5 23.5 -104.5 23.5c-41.333 0 -77.833 -9.83301 -109.5 -29.5s-57.167 -46.334 -76.5 -80.001s-31 -71.834 -35 -114.501c-0.666992 -10 -0.166992 -17.5 1.5 -22.5
s8.16699 -7.5 19.5 -7.5h32c12.667 0 19.334 4.66699 20.001 14c1.33301 40 10.833 70.667 28.5 92s45.167 32 82.5 32c30 0 55.167 -9 75.5 -27s38.833 -35.333 55.5 -52c21.333 -20.667 45.833 -39 73.5 -55s62.5 -24 104.5 -24zM109.998 750.002
c0 -106.667 16.5 -206.5 49.5 -299.5s80.667 -174.833 143 -245.5s138 -125.834 227 -165.501s189.167 -59.5 300.5 -59.5c106.667 0 204 19.833 292 59.5s164 94.834 228 165.501s113.333 152.5 148 245.5s52 192.833 52 299.5s-16.5 206.5 -49.5 299.5
s-80.667 174.833 -143 245.5s-138 125.834 -227 165.501s-189.167 59.5 -300.5 59.5s-211.5 -19.833 -300.5 -59.5s-164.667 -94.834 -227 -165.501s-110 -152.5 -143 -245.5s-49.5 -192.833 -49.5 -299.5zM339.998 750.002c0 91.333 9.33301 177.333 28 258
s47.5 151.834 86.5 213.501s89.667 110.167 152 145.5s136.833 53 223.5 53c87.333 0 162 -17.667 224 -53s112.5 -83.833 151.5 -145.5s67.833 -132.834 86.5 -213.501s28 -166.667 28 -258c0 -90.667 -8.33301 -176.5 -25 -257.5s-44 -152.333 -82 -214
s-88.333 -110.167 -151 -145.5s-140 -53 -232 -53c-86.667 0 -161.167 17.667 -223.5 53s-113 83.833 -152 145.5s-67.833 133 -86.5 214s-28 166.833 -28 257.5z" />
    <glyph glyph-name="Odieresis" unicode="&#xd6;" horiz-adv-x="1660" 
d="M990 1640c26.667 0 49.334 9.33301 68.001 28s28 41.334 28 68.001s-9.33301 49.5 -28 68.5s-41.334 28.5 -68.001 28.5s-49.334 -9.5 -68.001 -28.5s-28 -41.833 -28 -68.5s9.33301 -49.334 28 -68.001s41.334 -28 68.001 -28zM670 1640
c26.667 0 49.334 9.33301 68.001 28s28 41.334 28 68.001s-9.33301 49.5 -28 68.5s-41.334 28.5 -68.001 28.5s-49.334 -9.5 -68.001 -28.5s-28 -41.833 -28 -68.5s9.33301 -49.334 28 -68.001s41.334 -28 68.001 -28zM110 750c0 -106.667 16.5 -206.5 49.5 -299.5
s80.667 -174.833 143 -245.5s138 -125.834 227 -165.501s189.167 -59.5 300.5 -59.5c106.667 0 204 19.833 292 59.5s164 94.834 228 165.501s113.333 152.5 148 245.5s52 192.833 52 299.5s-16.5 206.5 -49.5 299.5s-80.667 174.833 -143 245.5s-138 125.834 -227 165.501
s-189.167 59.5 -300.5 59.5s-211.5 -19.833 -300.5 -59.5s-164.667 -94.834 -227 -165.501s-110 -152.5 -143 -245.5s-49.5 -192.833 -49.5 -299.5zM340 750c0 91.333 9.33301 177.333 28 258s47.5 151.834 86.5 213.501s89.667 110.167 152 145.5s136.833 53 223.5 53
c87.333 0 162 -17.667 224 -53s112.5 -83.833 151.5 -145.5s67.833 -132.834 86.5 -213.501s28 -166.667 28 -258c0 -90.667 -8.33301 -176.5 -25 -257.5s-44 -152.333 -82 -214s-88.333 -110.167 -151 -145.5s-140 -53 -232 -53c-86.667 0 -161.167 17.667 -223.5 53
s-113 83.833 -152 145.5s-67.833 133 -86.5 214s-28 166.833 -28 257.5z" />
    <glyph glyph-name="multiply" unicode="&#xd7;" horiz-adv-x="1003" 
d="M525 886c-10.667 -11.333 -19.1699 -16.8291 -25.5029 -16.4961s-15.166 6.16602 -26.499 17.499l-203 203c-7.33301 7.33301 -13.333 11.666 -18 12.999s-10.667 -1.33398 -18 -8.00098l-40 -40c-9.33301 -9.33301 -13.666 -16.666 -12.999 -21.999s5 -12 13 -20
l205 -205c10.667 -10.667 15.834 -19 15.501 -25s-5.5 -13.667 -15.5 -23l-206 -207c-7.33301 -7.33301 -11.5 -13.833 -12.5 -19.5s2.5 -12.5 10.5 -20.5l38 -38c8.66699 -8.66699 15.5 -13.167 20.5 -13.5s11.833 4.16699 20.5 13.5l206 205c12 12.667 21 18.5 27 17.5
s15 -7.83301 27 -20.5l209 -209c6.66699 -6.66699 11.834 -9.5 15.501 -8.5s9.16699 5.16699 16.5 12.5l41 41c6 6 9.66699 11.167 11 15.5s-1 9.5 -7 15.5l-214 214c-11.333 11.333 -16.333 20.166 -15 26.499s7.66602 15.166 18.999 26.499l211 210
c6 6 8.16699 11.167 6.5 15.5s-5.5 9.5 -11.5 15.5l-41 40c-8 8.66699 -15.167 12.167 -21.5 10.5s-13.833 -6.5 -22.5 -14.5z" />
    <glyph glyph-name="Oslash" unicode="&#xd8;" horiz-adv-x="1660" 
d="M110 750c0 -106.667 16.5 -206.5 49.5 -299.5s80.667 -174.833 143 -245.5s138 -125.834 227 -165.501s189.167 -59.5 300.5 -59.5c106.667 0 204 19.833 292 59.5s164 94.834 228 165.501s113.333 152.5 148 245.5s52 192.833 52 299.5s-16.5 206.5 -49.5 299.5
s-80.667 174.833 -143 245.5s-138 125.834 -227 165.501s-189.167 59.5 -300.5 59.5s-211.5 -19.833 -300.5 -59.5s-164.667 -94.834 -227 -165.501s-110 -152.5 -143 -245.5s-49.5 -192.833 -49.5 -299.5zM340 750c0 91.333 9.33301 177.333 28 258
s47.5 151.834 86.5 213.501s89.667 110.167 152 145.5s136.833 53 223.5 53c87.333 0 162 -17.667 224 -53s112.5 -83.833 151.5 -145.5s67.833 -132.834 86.5 -213.501s28 -166.667 28 -258c0 -90.667 -8.33301 -176.5 -25 -257.5s-44 -152.333 -82 -214
s-88.333 -110.167 -151 -145.5s-140 -53 -232 -53c-86.667 0 -161.167 17.667 -223.5 53s-113 83.833 -152 145.5s-67.833 133 -86.5 214s-28 166.833 -28 257.5zM1186 1660c-20 0 -33 -2.33496 -39 -7.00195s-11.667 -13.667 -17 -27l-721 -1784
c-6 -15.333 -7 -26.166 -3 -32.499s18.333 -9.5 43 -9.5h32c20.667 0 34.834 1.83301 42.501 5.5s14.167 12.5 19.5 26.5l717 1798c5.33301 12.667 6.66602 20.834 3.99902 24.501s-13.667 5.5 -33 5.5h-45z" />
    <glyph glyph-name="Ugrave" unicode="&#xd9;" horiz-adv-x="1680" 
d="M900 1669c7.33301 -4.66699 12.833 -6.33398 16.5 -5.00098s8.16699 5 13.5 11l34 36c11.333 12 11 24 -1 36l-194 189c-12 12.667 -26.667 20.334 -44 23.001s-34 0.666992 -50 -6s-28.667 -17.667 -38 -33c-14.667 -24.667 -18 -47.167 -10 -67.5
s20.333 -35.5 37 -45.5zM1248 1390c19.333 0 31.1699 -2.6709 35.5029 -8.00391s6.5 -17.666 6.5 -36.999v-745c0 -121.333 -12.833 -219.5 -38.5 -294.5s-68.334 -129.667 -128.001 -164s-140.834 -51.5 -243.501 -51.5c-109.333 0 -194.5 23 -255.5 69
s-103.667 109 -128 189s-36.5 170.667 -36.5 272v725c0 21.333 3 34.166 9 38.499s19.667 6.5 41 6.5h142c19.333 0 32.166 2.33301 38.499 7s9.5 17.334 9.5 38.001v28c0 17.333 -3.66699 27.833 -11 31.5s-19 5.5 -35 5.5h-562c-14.667 0 -25.334 -1.83301 -32.001 -5.5
s-10 -13.5 -10 -29.5v-32c0 -16.667 1.5 -28 4.5 -34s12.833 -9 29.5 -9h136c17.333 0 30 -2 38 -6s12 -15.667 12 -35v-749c0 -91.333 10.333 -175.5 31 -252.5s53.667 -143.667 99 -200s105 -100 179 -131s164.333 -46.5 271 -46.5c198 0 340.833 51.333 428.5 154
s131.5 261.334 131.5 476.001v751c0 18 2.66699 29 8 33s17.333 6 36 6h134c16 0 27 2 33 6s9 14.333 9 31v34c0 18 -3 29 -9 33s-17.667 6 -35 6h-506c-16 0 -26.667 -2.16699 -32 -6.5s-8 -15.166 -8 -32.499v-38c0 -13.333 1.83301 -22.166 5.5 -26.499
s11.834 -6.5 24.501 -6.5h178z" />
    </font>
</defs>
</svg>
